<?xml version="1.0" encoding="utf-8"?>
<!-- Generator: Adobe Illustrator 16.0.0, SVG Export Plug-In . SVG Version: 6.00 Build 0)  -->
<!DOCTYPE svg PUBLIC "-//W3C//DTD SVG 1.1//EN" "http://www.w3.org/Graphics/SVG/1.1/DTD/svg11.dtd">
<svg version="1.1" id="Layer_1" xmlns="http://www.w3.org/2000/svg" xmlns:xlink="http://www.w3.org/1999/xlink" x="0px" y="0px"
	 width="50px" height="50px" viewBox="0 0 50 50" enable-background="new 0 0 50 50" xml:space="preserve">
<circle fill="none" stroke="#BF973F" stroke-linecap="round" stroke-linejoin="round" stroke-miterlimit="10" cx="25" cy="25" r="24.125"/>
<g>
	<path fill-rule="evenodd" clip-rule="evenodd" fill="#BF973F" d="M24.848,11.546c0.466,0.199,0.641,0.562,0.651,1.056
		c0.03,1.333,0.205,2.649,0.561,3.936c0.938,3.386,3.005,5.873,6.09,7.503c1.011,0.534,2.082,0.965,3.152,1.373
		c0.738,0.281,1.202,0.762,1.293,1.513c0.088,0.734,0.1,1.487,0.056,2.227c-0.035,0.604-0.457,1.015-0.958,1.325
		c-0.073,0.045-0.148,0.085-0.252,0.144c0.095,0.118,0.182,0.228,0.285,0.357c0.244-0.177,0.478-0.346,0.723-0.524
		c0.066,0.063,0.129,0.117,0.188,0.177c0.759,0.77,1.517,1.54,2.274,2.312c0.524,0.533,0.483,1.103-0.119,1.547
		c-0.828,0.611-1.658,1.219-2.49,1.825c-0.603,0.439-1.162,0.311-1.513-0.347c-0.532-0.998-1.062-1.998-1.592-2.997
		c-0.012-0.022-0.02-0.048-0.039-0.098c0.217-0.164,0.439-0.332,0.689-0.521c-0.37-0.461-0.731-0.915-1.1-1.363
		c-0.031-0.039-0.104-0.061-0.158-0.062c-0.326-0.004-0.652-0.011-0.978,0.006c-0.469,0.025-0.778,0.275-0.944,0.729
		c0.22,0.132,0.445,0.251,0.654,0.395c1.049,0.722,1.571,2.077,1.291,3.325c-0.286,1.271-1.337,2.27-2.602,2.475
		c-0.058,0.01-0.112,0.033-0.169,0.05c-0.258,0-0.515,0-0.772,0c-0.038-0.016-0.076-0.038-0.116-0.045
		c-1.448-0.248-2.478-1.321-2.697-2.818c-0.188-1.278,0.565-2.644,1.794-3.255c0.066-0.033,0.131-0.071,0.192-0.105
		c-0.134-0.503-0.497-0.756-1.092-0.757c-1.184-0.004-2.367-0.002-3.55-0.002c-1.063,0-2.127,0.002-3.19,0
		c-0.412-0.001-0.754,0.128-0.988,0.489c-0.112,0.174-0.123,0.276,0.104,0.387c1.25,0.605,1.929,1.889,1.772,3.305
		c-0.143,1.285-1.136,2.386-2.444,2.708c-0.114,0.028-0.227,0.063-0.339,0.094c-0.275,0-0.549,0-0.824,0
		c-0.055-0.018-0.108-0.042-0.164-0.053c-1.984-0.355-3.167-2.478-2.419-4.341c0.317-0.791,0.854-1.378,1.627-1.736
		c0.184-0.084,0.234-0.19,0.196-0.379c-0.06-0.296-0.223-0.463-0.606-0.478c-0.832-0.03-1.653-0.744-1.623-1.837
		c0.018-0.651,0.007-1.304,0-1.955c-0.001-0.113-0.031-0.239-0.088-0.336c-0.264-0.448-0.396-0.929-0.37-1.448
		c0.054-1.106,0.339-2.168,0.708-3.2c0.5-1.401,0.716-2.853,0.888-4.317c0.136-1.157,0.262-2.316,0.412-3.471
		c0.111-0.858,0.594-1.424,1.446-1.593c1.747-0.346,3.502-0.645,5.255-0.962c0.478-0.086,0.956-0.171,1.433-0.256
		C24.54,11.546,24.694,11.546,24.848,11.546z M24.692,12.323c-0.096,0.01-0.163,0.014-0.228,0.024
		c-0.703,0.11-1.408,0.208-2.108,0.333c-1.492,0.268-2.982,0.548-4.473,0.825c-0.455,0.084-0.721,0.367-0.831,0.807
		c-0.031,0.125-0.06,0.25-0.075,0.377c-0.142,1.218-0.275,2.437-0.422,3.654c-0.147,1.217-0.335,2.423-0.719,3.598
		c-0.292,0.894-0.523,1.809-0.742,2.724c-0.141,0.59-0.163,1.194,0.195,1.74c0.185,0.282,0.425,0.431,0.784,0.447
		c1.748,0.077,3.497,0.14,5.24,0.281c2.2,0.18,4.352,0.663,6.498,1.168c1.109,0.261,2.217,0.542,3.364,0.569
		c0.875,0.021,1.75,0.017,2.625,0.015c0.291,0,0.584-0.012,0.872-0.046c0.907-0.11,1.334-0.665,1.208-1.561
		c-0.021-0.152-0.06-0.303-0.104-0.45c-0.094-0.305-0.287-0.505-0.596-0.622c-0.769-0.291-1.54-0.58-2.29-0.915
		c-1.674-0.749-3.188-1.744-4.477-3.057c-1.325-1.351-2.275-2.935-2.856-4.736c-0.063-0.194-0.151-0.26-0.362-0.26
		c-2.05,0.01-4.101,0.006-6.152,0.006c-0.101,0-0.202,0-0.331,0c0-0.113-0.003-0.196,0-0.279c0.009-0.18,0.004-0.362,0.037-0.538
		c0.234-1.264,1.255-2.142,2.54-2.162c1.081-0.017,2.162-0.004,3.243-0.005c0.092,0,0.183,0,0.291,0
		C24.779,13.599,24.736,12.97,24.692,12.323z M18.552,31.466c0.31-0.858,0.918-1.311,1.828-1.313
		c2.273-0.008,4.546-0.005,6.819-0.002c0.661,0.001,1.266,0.225,1.555,0.823c0.221,0.455,0.496,0.525,0.922,0.501
		c0.186-0.011,0.255-0.059,0.328-0.225c0.277-0.628,0.76-1.032,1.453-1.068c0.864-0.045,1.731-0.027,2.598-0.031
		c0.458-0.003,0.884-0.124,1.267-0.364c0.177-0.111,0.317-0.279,0.475-0.421c-0.407,0.071-0.772,0.231-1.144,0.248
		c-1.035,0.048-2.074,0.044-3.111,0.044c-0.394,0-0.795-0.003-1.179-0.075c-1.262-0.238-2.523-0.482-3.774-0.771
		c-2.193-0.505-4.405-0.877-6.649-1.034c-1.477-0.104-2.958-0.137-4.452-0.202c0,0.588-0.024,1.18,0.008,1.768
		c0.021,0.369,0.255,0.633,0.615,0.75c0.152,0.05,0.319,0.058,0.479,0.083c0.533,0.084,0.884,0.386,1.058,0.893
		c0.043,0.126,0.062,0.262,0.093,0.396C18.018,31.466,18.283,31.466,18.552,31.466z M31.908,34.676
		c0.003-1.329-1.088-2.433-2.41-2.438c-1.367-0.006-2.473,1.07-2.485,2.42c-0.013,1.339,1.099,2.465,2.442,2.475
		C30.793,37.143,31.905,36.028,31.908,34.676z M18.099,32.238c-1.341,0.001-2.444,1.101-2.444,2.436
		c0,1.343,1.124,2.467,2.457,2.458c1.342-0.008,2.467-1.146,2.446-2.472C20.537,33.313,19.445,32.236,18.099,32.238z M34.146,33.103
		c0.464,0.875,0.919,1.735,1.378,2.595c0.084,0.157,0.191,0.092,0.297,0.015c0.841-0.619,1.682-1.239,2.527-1.852
		c0.17-0.123,0.174-0.22,0.026-0.365c-0.391-0.384-0.769-0.781-1.158-1.168c-0.284-0.282-0.578-0.555-0.872-0.837
		C35.621,32.021,34.891,32.556,34.146,33.103z M24.935,15.047c-0.058-0.004-0.099-0.011-0.141-0.011
		c-1.157,0-2.314-0.004-3.471,0.003c-0.186,0.001-0.377,0.029-0.556,0.081c-0.63,0.181-1.161,0.778-1.199,1.328
		c1.878,0,3.756,0,5.653,0C25.124,15.972,25.032,15.521,24.935,15.047z M33.711,30.943c0.279,0.348,0.521,0.649,0.767,0.955
		c0.221-0.162,0.413-0.304,0.62-0.457c-0.127-0.16-0.244-0.316-0.37-0.464c-0.034-0.04-0.098-0.079-0.146-0.078
		C34.311,30.906,34.041,30.926,33.711,30.943z"/>
	<path fill-rule="evenodd" clip-rule="evenodd" fill="#BF973F" d="M30.999,25.749c-0.241-0.125-0.459-0.238-0.701-0.363
		c0.124-0.226,0.24-0.439,0.369-0.676c0.229,0.118,0.444,0.229,0.671,0.346C31.226,25.286,31.121,25.5,30.999,25.749z"/>
	<path fill-rule="evenodd" clip-rule="evenodd" fill="#BF973F" d="M32.709,25.66c-0.086,0.253-0.161,0.477-0.247,0.732
		c-0.247-0.102-0.479-0.196-0.746-0.306c0.103-0.236,0.199-0.457,0.308-0.706C32.25,25.474,32.466,25.561,32.709,25.66z"/>
	<path fill-rule="evenodd" clip-rule="evenodd" fill="#BF973F" d="M24.874,18.091c0.096,0.252,0.178,0.465,0.267,0.698
		c-0.236,0.1-0.454,0.193-0.708,0.301c-0.096-0.246-0.188-0.48-0.289-0.739C24.392,18.262,24.622,18.18,24.874,18.091z"/>
	<path fill-rule="evenodd" clip-rule="evenodd" fill="#BF973F" d="M29.379,23.92c0.226,0.145,0.424,0.272,0.634,0.407
		c-0.14,0.228-0.268,0.437-0.404,0.66c-0.228-0.147-0.44-0.284-0.665-0.429C29.092,24.34,29.226,24.145,29.379,23.92z"/>
	<path fill-rule="evenodd" clip-rule="evenodd" fill="#BF973F" d="M26.646,21.37c-0.205,0.159-0.393,0.305-0.61,0.475
		c-0.155-0.215-0.307-0.425-0.467-0.647c0.22-0.148,0.424-0.286,0.64-0.432C26.355,20.969,26.491,21.155,26.646,21.37z"/>
	<path fill-rule="evenodd" clip-rule="evenodd" fill="#BF973F" d="M28.297,24.09c-0.221-0.184-0.41-0.341-0.612-0.508
		c0.173-0.198,0.332-0.382,0.504-0.579c0.2,0.163,0.384,0.312,0.582,0.473C28.612,23.681,28.463,23.875,28.297,24.09z"/>
	<path fill-rule="evenodd" clip-rule="evenodd" fill="#BF973F" d="M24.765,19.818c0.24-0.12,0.457-0.229,0.691-0.346
		c0.12,0.221,0.232,0.428,0.354,0.654c-0.218,0.129-0.421,0.25-0.664,0.394C25.02,20.289,24.898,20.064,24.765,19.818z"/>
	<path fill-rule="evenodd" clip-rule="evenodd" fill="#BF973F" d="M27.637,22.486c-0.191,0.192-0.359,0.361-0.545,0.548
		c-0.18-0.188-0.354-0.369-0.544-0.569c0.198-0.177,0.38-0.34,0.577-0.517C27.3,22.132,27.463,22.303,27.637,22.486z"/>
	<path fill-rule="evenodd" clip-rule="evenodd" fill="#BF973F" d="M29.477,33.526c0.643,0.005,1.149,0.525,1.142,1.174
		c-0.007,0.625-0.529,1.143-1.154,1.143c-0.632,0-1.166-0.537-1.162-1.169C28.307,34.036,28.834,33.521,29.477,33.526z
		 M29.844,34.684c0.001-0.205-0.167-0.378-0.372-0.382c-0.217-0.005-0.399,0.177-0.393,0.39c0.007,0.197,0.192,0.376,0.389,0.374
		C29.671,35.063,29.843,34.888,29.844,34.684z"/>
	<path fill-rule="evenodd" clip-rule="evenodd" fill="#BF973F" d="M18.113,33.526c0.643,0.003,1.162,0.529,1.151,1.168
		c-0.011,0.629-0.528,1.145-1.153,1.148c-0.633,0.004-1.164-0.527-1.163-1.163C16.95,34.035,17.467,33.523,18.113,33.526z
		 M18.483,34.671c-0.006-0.209-0.172-0.371-0.381-0.369c-0.219,0.002-0.383,0.18-0.371,0.402c0.011,0.204,0.191,0.371,0.392,0.36
		C18.326,35.054,18.489,34.876,18.483,34.671z"/>
</g>
</svg>
