<?xml version="1.0" encoding="utf-8"?>
<!-- Generator: Adobe Illustrator 16.0.0, SVG Export Plug-In . SVG Version: 6.00 Build 0)  -->
<!DOCTYPE svg PUBLIC "-//W3C//DTD SVG 1.1//EN" "http://www.w3.org/Graphics/SVG/1.1/DTD/svg11.dtd">
<svg version="1.1" id="Layer_1" xmlns="http://www.w3.org/2000/svg" xmlns:xlink="http://www.w3.org/1999/xlink" x="0px" y="0px"
	 width="50px" height="50px" viewBox="0 0 50 50" enable-background="new 0 0 50 50" xml:space="preserve">
<g>
	<path fill-rule="evenodd" clip-rule="evenodd" fill="#BF973F" d="M27.801,11.2c1.276,0.146,2.337,0.892,3.531,1.264
		c0.57,0.178,1.152,0.281,1.748,0.15c0.17-0.037,0.338-0.118,0.489-0.208c0.357-0.212,0.744-0.055,0.822,0.354
		c0.021,0.105,0.022,0.214,0.022,0.321c0.001,1.15,0.001,2.3,0.001,3.45c0,0.625-0.203,0.816-0.837,0.785
		c-1.863-0.09-3.408-0.858-4.654-2.229c-0.466-0.513-0.966-0.962-1.621-1.21c-0.04-0.015-0.081-0.026-0.169-0.055
		c0.048,0.126,0.078,0.214,0.114,0.3c2.907,6.9,5.814,13.8,8.723,20.701c0.385,0.916,0.249,1.739-0.449,2.323
		c-0.258,0.216-0.599,0.372-0.927,0.454c-2.391,0.6-4.818,0.984-7.278,1.129c-2.663,0.157-5.317,0.062-7.952-0.356
		c-1.319-0.209-2.628-0.484-3.935-0.763c-1.337-0.286-1.952-1.477-1.422-2.735c3.068-7.291,6.142-14.578,9.214-21.867
		c0.352-0.834,0.974-1.26,1.886-1.249c0.053,0,0.109,0,0.159-0.016c0.541-0.179,1.08-0.361,1.62-0.542
		C27.19,11.2,27.496,11.2,27.801,11.2z M34.058,33.055c-0.716,0.473-1.403,0.94-2.107,1.385c-0.317,0.199-0.659,0.363-1,0.522
		c-0.294,0.137-0.579,0.033-0.716-0.227c-0.136-0.259-0.051-0.541,0.225-0.719c0.105-0.066,0.22-0.121,0.331-0.178
		c0.942-0.474,1.825-1.033,2.617-1.736c0.138-0.122,0.168-0.211,0.094-0.382c-0.5-1.161-0.989-2.327-1.48-3.491
		c-0.089-0.213-0.179-0.426-0.275-0.654c-0.127,0.063-0.229,0.111-0.332,0.164c-2.875,1.475-5.915,2.426-9.114,2.871
		c-1.721,0.24-3.45,0.313-5.185,0.243c-0.159-0.006-0.257,0.016-0.328,0.188c-0.595,1.432-1.205,2.858-1.803,4.289
		c-0.241,0.578,0.008,1.066,0.618,1.212c0.698,0.166,1.396,0.336,2.102,0.458c0.479,0.085,0.947,0.24,1.459,0.149
		c2.412-0.429,4.806-0.934,7.164-1.604c0.376-0.106,0.667,0.039,0.755,0.354c0.086,0.31-0.101,0.578-0.482,0.684
		c-0.526,0.146-1.053,0.297-1.583,0.429c-0.788,0.196-1.58,0.378-2.369,0.566c0.139,0.055,0.278,0.069,0.418,0.077
		c2.148,0.11,4.29,0.032,6.426-0.215c1.669-0.192,3.315-0.507,4.945-0.906c0.54-0.134,0.808-0.61,0.607-1.118
		C34.729,34.618,34.383,33.83,34.058,33.055z M17.321,29.786c4.974,0.146,9.623-0.896,14.001-3.216
		c-0.541-1.283-1.071-2.542-1.611-3.822c-0.102,0.07-0.177,0.117-0.246,0.171c-1.187,0.92-2.482,1.64-3.891,2.16
		c-0.108,0.04-0.222,0.078-0.335,0.087c-0.252,0.021-0.455-0.126-0.533-0.365c-0.074-0.228,0.014-0.475,0.232-0.604
		c0.115-0.068,0.242-0.116,0.368-0.163c1.382-0.519,2.635-1.258,3.785-2.183c0.148-0.12,0.161-0.209,0.089-0.378
		c-0.665-1.559-1.319-3.122-1.979-4.684c-0.03-0.073-0.068-0.143-0.115-0.24c-0.092,0.103-0.17,0.185-0.243,0.271
		c-0.549,0.651-1.189,1.195-1.912,1.644c-0.992,0.614-2.073,1.021-3.179,1.368c-0.195,0.061-0.311,0.16-0.391,0.354
		c-0.609,1.466-1.23,2.926-1.846,4.389c-0.033,0.077-0.056,0.159-0.11,0.313c0.555,0,1.056-0.003,1.557,0
		c0.403,0.003,0.64,0.203,0.643,0.532c0.003,0.327-0.238,0.549-0.633,0.542c-0.592-0.011-1.184-0.032-1.775-0.072
		c-0.175-0.013-0.25,0.025-0.317,0.186c-0.382,0.93-0.776,1.854-1.166,2.779C17.588,29.153,17.463,29.449,17.321,29.786z
		 M22.05,18.562c0.054,0.007,0.073,0.016,0.087,0.011c0.185-0.067,0.37-0.135,0.555-0.204c1.529-0.579,2.833-1.46,3.779-2.818
		c0.06-0.085,0.096-0.238,0.061-0.327c-0.243-0.616-0.511-1.223-0.767-1.835c-0.146-0.352-0.402-0.552-0.782-0.55
		c-0.374,0.002-0.612,0.216-0.752,0.553c-0.148,0.356-0.301,0.709-0.451,1.065C23.206,15.819,22.632,17.182,22.05,18.562z
		 M26.454,12.457c0.069,0.03,0.136,0.072,0.207,0.088c1.303,0.282,2.354,0.954,3.219,1.969c0.604,0.708,1.398,1.177,2.282,1.467
		c0.368,0.121,0.756,0.182,1.153,0.273c0-0.895,0-1.722,0-2.564c-1.01,0.176-1.951-0.021-2.86-0.389
		c-0.614-0.248-1.206-0.552-1.825-0.787C27.93,12.248,27.204,12.176,26.454,12.457z"/>
	<path fill-rule="evenodd" clip-rule="evenodd" fill="#BF973F" d="M29.191,35.355c0.006,0.278-0.247,0.527-0.535,0.528
		c-0.293,0.002-0.535-0.236-0.534-0.524c0.001-0.299,0.225-0.535,0.518-0.543C28.939,34.809,29.186,35.049,29.191,35.355z"/>
	<path fill-rule="evenodd" clip-rule="evenodd" fill="#BF973F" d="M23.725,25.202c-0.007,0.295-0.243,0.524-0.539,0.521
		c-0.305-0.004-0.541-0.254-0.526-0.56c0.014-0.298,0.243-0.505,0.552-0.499C23.512,24.671,23.732,24.901,23.725,25.202z"/>
</g>
<circle fill="none" stroke="#BF973F" stroke-linecap="round" stroke-linejoin="round" stroke-miterlimit="10" cx="25" cy="25" r="24.125"/>
</svg>
