<?xml version="1.0" encoding="utf-8"?>
<!-- Generator: Adobe Illustrator 16.0.0, SVG Export Plug-In . SVG Version: 6.00 Build 0)  -->
<!DOCTYPE svg PUBLIC "-//W3C//DTD SVG 1.1//EN" "http://www.w3.org/Graphics/SVG/1.1/DTD/svg11.dtd">
<svg version="1.1" id="Layer_1" xmlns="http://www.w3.org/2000/svg" xmlns:xlink="http://www.w3.org/1999/xlink" x="0px" y="0px"
	 width="50px" height="50px" viewBox="0 0 50 50" enable-background="new 0 0 50 50" xml:space="preserve">
<circle fill="none" stroke="#BF973F" stroke-linecap="round" stroke-linejoin="round" stroke-miterlimit="10" cx="25" cy="25" r="24.125"/>
<g>
	<path fill-rule="evenodd" clip-rule="evenodd" fill="#BF973F" d="M11.813,27.937c0.144-0.238,0.359-0.308,0.63-0.307
		c2.326,0.004,4.653,0,6.979-0.002c0.092,0,0.184,0,0.292,0c0-0.296,0-0.566,0-0.87c-0.286,0-0.564,0-0.853,0
		c0-0.305,0-0.576,0-0.871c0.28,0,0.551,0,0.868,0c0-0.129-0.002-0.235,0.001-0.342c0.01-0.392,0.16-0.543,0.552-0.544
		c0.996-0.001,1.992,0,2.988,0c0.378,0,0.756,0,1.133,0c0.454,0.002,0.596,0.146,0.599,0.604c0,0.077,0,0.154,0,0.26
		c0.284,0,0.563,0,0.859,0c0,0.305,0,0.583,0,0.881c-0.274,0-0.545,0-0.838,0c0,0.296,0,0.573,0,0.87c3.788,0,7.579,0,11.391,0
		c0-0.271,0-0.548,0-0.848c-0.271,0-0.543,0-0.836,0c0-0.298,0-0.576,0-0.884c0.271,0,0.549,0,0.856,0c0-0.232,0-0.435,0-0.639
		c0-0.644,0.004-1.288-0.002-1.932c-0.005-0.554-0.369-0.942-0.875-0.945c-0.513-0.002-0.869,0.375-0.881,0.933
		c-0.002,0.111,0,0.221,0,0.354c-0.295,0-0.571,0-0.847,0c-0.203-1.037,0.487-2.035,1.483-2.151
		c1.092-0.127,1.984,0.658,1.995,1.782c0.014,1.348,0.003,2.696,0.003,4.043c0,0.093,0,0.186,0,0.298
		c0.341,0.007,0.687-0.039,0.878,0.31c0,3.417,0,6.834,0,10.251c-8.791,0-17.583,0-26.375,0
		C11.813,34.771,11.813,31.354,11.813,27.937z M19.765,28.539c0,2.935,0,5.846,0,8.748c3.508,0,6.995,0,10.476,0
		c0-2.926,0-5.831,0-8.748C26.743,28.539,23.263,28.539,19.765,28.539z M18.813,32.058c-2.053,0-4.081,0-6.105,0
		c0,1.761,0,3.498,0,5.232c2.046,0,4.074,0,6.105,0C18.813,35.538,18.813,33.807,18.813,32.058z M37.299,28.529
		c-2.052,0-4.075,0-6.105,0c0,0.876,0,1.737,0,2.603c2.043,0,4.07,0,6.105,0C37.299,30.255,37.299,29.4,37.299,28.529z
		 M12.704,28.525c0,0.887,0,1.742,0,2.609c2.042,0,4.068,0,6.101,0c0-0.879,0-1.739,0-2.609
		C16.764,28.525,14.742,28.525,12.704,28.525z M34.695,32.051c0,1.758,0,3.502,0,5.247c0.878,0,1.732,0,2.594,0
		c0-1.758,0-3.501,0-5.247C36.414,32.051,35.559,32.051,34.695,32.051z M31.19,37.292c0.877,0,1.729,0,2.589,0
		c0-1.754,0-3.49,0-5.241c-0.87,0-1.723,0-2.589,0C31.19,33.803,31.19,35.538,31.19,37.292z M24.101,27.617c0-0.591,0-1.16,0-1.728
		c-1.168,0-2.315,0-3.476,0c0,0.581,0,1.149,0,1.728C21.791,27.617,22.938,27.617,24.101,27.617z"/>
	<path fill-rule="evenodd" clip-rule="evenodd" fill="#BF973F" d="M28.657,11.813c0.237,0.144,0.309,0.359,0.307,0.629
		c-0.007,1.561-0.007,3.123,0.004,4.685c0.001,0.126,0.068,0.281,0.155,0.374c0.45,0.472,0.917,0.927,1.378,1.388
		c0.153,0.152,0.271,0.314,0.181,0.546c-0.094,0.241-0.293,0.293-0.521,0.293c-3.44,0.001-6.88,0.001-10.321,0.001
		c-0.228-0.001-0.426-0.053-0.52-0.294c-0.09-0.231,0.027-0.394,0.18-0.546c0.462-0.461,0.928-0.917,1.378-1.388
		c0.088-0.093,0.155-0.248,0.155-0.374c0.01-1.562,0.01-3.124,0.004-4.685c-0.001-0.271,0.069-0.486,0.306-0.629
		C23.781,11.813,26.219,11.813,28.657,11.813z M28.081,12.705c-2.075,0-4.105,0-6.162,0c0,0.106,0,0.199,0,0.291
		c0,1.424-0.007,2.849,0.006,4.273c0.003,0.317-0.086,0.557-0.324,0.768c-0.269,0.236-0.513,0.5-0.807,0.791
		c2.823,0,5.587,0,8.404,0c-0.216-0.215-0.38-0.417-0.581-0.572c-0.432-0.334-0.565-0.749-0.549-1.295
		c0.039-1.32,0.013-2.643,0.013-3.963C28.081,12.905,28.081,12.813,28.081,12.705z"/>
	<path fill-rule="evenodd" clip-rule="evenodd" fill="#BF973F" d="M11.813,20.621c0.281,0,0.563,0,0.867,0c0-0.306,0-0.577,0-0.87
		c0.3,0,0.576,0,0.878,0c0,0.268,0,0.539,0,0.833c0.299,0,0.576,0,0.879,0c0-0.27,0-0.541,0-0.833c0.302,0,0.578,0,0.881,0
		c0,0.271,0,0.542,0,0.835c0.302,0,0.578,0,0.884,0c0-0.277,0-0.548,0-0.838c0.297,0,0.567,0,0.875,0c0,0.271,0,0.548,0,0.856
		c0.898,0,1.76,0,2.636,0c0,0.303,0,0.574,0,0.876c-0.873,0-1.734,0-2.626,0c0,0.603-0.003,1.175,0.005,1.749
		c0,0.049,0.069,0.115,0.122,0.141c0.749,0.36,0.944,1.274,0.537,1.907c-0.422,0.657-1.228,0.776-1.98,0.28
		c-0.571,0.418-1.158,0.439-1.756-0.004c-0.341,0.253-0.718,0.389-1.15,0.294c-0.574-0.126-0.881-0.521-1.051-1.053
		c0-0.155,0-0.309,0-0.464c0.137-0.431,0.364-0.787,0.795-0.98c0.036-0.016,0.077-0.074,0.078-0.113
		c0.004-0.578,0.003-1.155,0.003-1.739c-0.314,0-0.595,0-0.876,0C11.813,21.205,11.813,20.913,11.813,20.621z M13.568,21.5
		c0,0.445,0.023,0.867-0.007,1.283c-0.025,0.348,0.026,0.618,0.387,0.749c0.022,0.008,0.045,0.019,0.069,0.03
		c0.09-0.056,0.182-0.103,0.262-0.164c0.063-0.047,0.157-0.11,0.158-0.168c0.012-0.572,0.007-1.145,0.007-1.729
		C14.145,21.5,13.874,21.5,13.568,21.5z M15.794,23.548c0.076-0.046,0.167-0.095,0.25-0.154c0.058-0.042,0.149-0.097,0.15-0.147
		c0.011-0.579,0.007-1.159,0.007-1.736c-0.31,0-0.585,0-0.876,0c0,0.434,0.021,0.846-0.005,1.254
		C15.296,23.137,15.34,23.443,15.794,23.548z M13.563,24.561c0-0.24-0.206-0.442-0.444-0.435c-0.226,0.007-0.424,0.209-0.425,0.434
		c0,0.232,0.217,0.443,0.449,0.437C13.371,24.988,13.563,24.79,13.563,24.561z M16.227,24.554c-0.003,0.252,0.185,0.446,0.428,0.442
		c0.23-0.005,0.419-0.197,0.422-0.429c0.003-0.243-0.194-0.443-0.434-0.44C16.408,24.129,16.23,24.313,16.227,24.554z
		 M14.888,24.126c-0.228,0-0.423,0.193-0.43,0.423c-0.006,0.238,0.198,0.449,0.433,0.448c0.23-0.002,0.42-0.192,0.425-0.425
		C15.322,24.325,15.13,24.125,14.888,24.126z"/>
	<path fill-rule="evenodd" clip-rule="evenodd" fill="#BF973F" d="M19.437,11.813c0.245,0.155,0.295,0.389,0.294,0.661
		c-0.006,1.612-0.002,3.224-0.003,4.835c0,0.528-0.126,0.657-0.65,0.657c-2.212,0-4.424-0.002-6.636,0.002
		c-0.278,0.001-0.511-0.05-0.629-0.334c0-1.94,0-3.881,0-5.821C14.354,11.813,16.895,11.813,19.437,11.813z M18.825,17.071
		c0-1.464,0-2.917,0-4.366c-2.053,0-4.084,0-6.12,0c0,1.462,0,2.908,0,4.366C14.751,17.071,16.782,17.071,18.825,17.071z"/>
	<path fill-rule="evenodd" clip-rule="evenodd" fill="#BF973F" d="M38.188,17.633c-0.107,0.258-0.313,0.334-0.578,0.333
		c-2.254-0.003-4.508,0-6.764-0.003c-0.42,0-0.572-0.154-0.573-0.577c-0.002-1.664,0.001-3.327-0.003-4.99
		c0-0.25,0.082-0.446,0.294-0.584c2.541,0,5.083,0,7.624,0C38.188,13.752,38.188,15.693,38.188,17.633z M37.289,17.071
		c0-1.465,0-2.917,0-4.366c-2.051,0-4.08,0-6.118,0c0,1.462,0,2.908,0,4.366C33.22,17.071,35.25,17.071,37.289,17.071z"/>
	<path fill-rule="evenodd" clip-rule="evenodd" fill="#BF973F" d="M24.996,36.433c-1.253,0-2.506,0-3.759,0
		c-0.491,0-0.629-0.137-0.629-0.624c0-1.348-0.001-2.695,0-4.041c0-0.48,0.132-0.614,0.612-0.614c2.523-0.001,5.045-0.001,7.568,0
		c0.465,0,0.603,0.139,0.603,0.597c0.003,1.364,0.003,2.729,0,4.093c0,0.438-0.149,0.589-0.586,0.59
		C27.535,36.434,26.266,36.433,24.996,36.433z M21.509,32.049c0,1.172,0,2.331,0,3.488c2.342,0,4.662,0,6.987,0
		c0-1.171,0-2.323,0-3.488C26.159,32.049,23.839,32.049,21.509,32.049z"/>
	<path fill-rule="evenodd" clip-rule="evenodd" fill="#BF973F" d="M21.934,29.408c0.299,0,0.568,0,0.852,0c0,0.287,0,0.557,0,0.845
		c-0.286,0-0.561,0-0.852,0C21.934,29.97,21.934,29.7,21.934,29.408z"/>
	<path fill-rule="evenodd" clip-rule="evenodd" fill="#BF973F" d="M23.695,30.248c0-0.287,0-0.557,0-0.855
		c0.253,0,0.49-0.009,0.726,0.008c0.05,0.004,0.128,0.101,0.131,0.159c0.016,0.221,0.006,0.443,0.006,0.688
		C24.27,30.248,23.994,30.248,23.695,30.248z"/>
	<path fill-rule="evenodd" clip-rule="evenodd" fill="#BF973F" d="M26.294,30.256c-0.282,0-0.553,0-0.852,0
		c0-0.251-0.008-0.488,0.006-0.723c0.003-0.05,0.083-0.095,0.132-0.139c0.01-0.009,0.033-0.002,0.051-0.003
		C26.359,29.355,26.416,29.426,26.294,30.256z"/>
	<path fill-rule="evenodd" clip-rule="evenodd" fill="#BF973F" d="M28.06,30.256c-0.278,0-0.55,0-0.839,0c0-0.279,0-0.556,0-0.849
		c0.279,0,0.549,0,0.839,0C28.06,29.689,28.06,29.965,28.06,30.256z"/>
	<path fill-rule="evenodd" clip-rule="evenodd" fill="#BF973F" d="M16.637,33.784c-0.583,0-1.145,0-1.725,0c0-0.286,0-0.563,0-0.854
		c0.576,0,1.143,0,1.725,0C16.637,33.215,16.637,33.485,16.637,33.784z"/>
	<path fill-rule="evenodd" clip-rule="evenodd" fill="#BF973F" d="M33.355,30.255c0-0.294,0-0.557,0-0.842c0.575,0,1.142,0,1.73,0
		c0,0.275,0,0.551,0,0.842C34.515,30.255,33.947,30.255,33.355,30.255z"/>
	<path fill-rule="evenodd" clip-rule="evenodd" fill="#BF973F" d="M14.916,29.403c0.578,0,1.139,0,1.717,0c0,0.288,0,0.563,0,0.854
		c-0.572,0-1.133,0-1.717,0C14.916,29.983,14.916,29.707,14.916,29.403z"/>
	<path fill-rule="evenodd" clip-rule="evenodd" fill="#BF973F" d="M36.414,35.094c-0.281,0-0.553,0-0.841,0c0-0.427,0-0.849,0-1.285
		c0.28,0,0.551,0,0.841,0C36.414,34.235,36.414,34.657,36.414,35.094z"/>
	<path fill-rule="evenodd" clip-rule="evenodd" fill="#BF973F" d="M32.054,33.809c0.286,0,0.557,0,0.845,0c0,0.432,0,0.854,0,1.286
		c-0.286,0-0.558,0-0.845,0C32.054,34.668,32.054,34.254,32.054,33.809z"/>
	<path fill-rule="evenodd" clip-rule="evenodd" fill="#BF973F" d="M17.101,16.182c0-0.585,0-1.147,0-1.723c0.287,0,0.557,0,0.846,0
		c0,0.575,0,1.138,0,1.723C17.674,16.182,17.396,16.182,17.101,16.182z"/>
	<path fill-rule="evenodd" clip-rule="evenodd" fill="#BF973F" d="M32.89,16.189c-0.283,0-0.553,0-0.839,0c0-0.578,0-1.14,0-1.723
		c0.273,0,0.545,0,0.839,0C32.89,15.026,32.89,15.594,32.89,16.189z"/>
</g>
</svg>
