<?xml version="1.0" encoding="utf-8"?>
<!-- Generator: Adobe Illustrator 16.0.0, SVG Export Plug-In . SVG Version: 6.00 Build 0)  -->
<!DOCTYPE svg PUBLIC "-//W3C//DTD SVG 1.1//EN" "http://www.w3.org/Graphics/SVG/1.1/DTD/svg11.dtd">
<svg version="1.1" id="Layer_1" xmlns="http://www.w3.org/2000/svg" xmlns:xlink="http://www.w3.org/1999/xlink" x="0px" y="0px"
	 width="50px" height="50px" viewBox="0 0 50 50" enable-background="new 0 0 50 50" xml:space="preserve">
<circle fill="none" stroke="#BF973F" stroke-linecap="round" stroke-linejoin="round" stroke-miterlimit="10" cx="25" cy="25" r="24.125"/>
<path fill="#BF973F" d="M25.925,33.335c0-0.165,0-0.291,0-0.417c0-1.374-0.001-2.746,0.001-4.12
	c0.001-0.635,0.375-1.021,1.006-1.022c1.799-0.004,3.598-0.004,5.396,0c0.64,0.002,1.006,0.388,1.008,1.051
	c0.003,1.383,0.001,2.765,0.001,4.148c0,0.105,0,0.213,0,0.364c0.174,0,0.324-0.009,0.475,0.002
	c0.266,0.019,0.445,0.211,0.445,0.452c0.001,0.23-0.169,0.423-0.417,0.459c-0.088,0.014-0.18,0.009-0.271,0.009
	c-2.629,0-5.258,0-7.889,0c-0.054,0-0.109,0.003-0.162,0c-0.317-0.016-0.521-0.204-0.515-0.477c0.006-0.265,0.196-0.435,0.507-0.447
	C25.637,33.331,25.762,33.335,25.925,33.335z M32.393,28.716c-0.781,0-1.527,0-2.277,0c0,0.618,0,1.216,0,1.835
	c0.298,0,0.576-0.003,0.855,0.002c0.227,0.006,0.407,0.094,0.481,0.321c0.1,0.304-0.099,0.583-0.437,0.599
	c-0.302,0.014-0.604,0.004-0.906,0.004c0,0.642,0,1.234,0,1.838c0.767,0,1.519,0,2.281,0C32.393,31.771,32.393,30.252,32.393,28.716
	z M29.159,33.32c0-0.62,0-1.213,0-1.822c-0.771,0-1.531,0-2.287,0c0,0.618,0,1.217,0,1.822C27.639,33.32,28.384,33.32,29.159,33.32z
	 M29.152,28.721c-0.772,0-1.531,0-2.289,0c0,0.616,0,1.209,0,1.805c0.773,0,1.531,0,2.307,0c0-0.572,0.001-1.121,0-1.67
	C29.169,28.813,29.159,28.77,29.152,28.721z"/>
<path fill="#BF973F" d="M19.442,32.406c-0.299,0-0.597,0.008-0.895-0.002c-0.566-0.02-0.925-0.375-0.946-0.94
	c-0.01-0.298-0.01-0.597,0-0.896c0.02-0.551,0.37-0.92,0.92-0.938c0.614-0.02,1.23-0.02,1.843-0.001
	c0.56,0.017,0.921,0.396,0.938,0.954c0.009,0.289,0.009,0.579,0,0.867c-0.016,0.559-0.382,0.931-0.938,0.953
	C20.056,32.414,19.749,32.405,19.442,32.406z M18.542,30.566c0,0.309,0,0.593,0,0.891c0.614,0,1.211,0,1.82,0
	c0-0.305,0-0.588,0-0.891C19.755,30.566,19.164,30.566,18.542,30.566z"/>
<path fill="#BF973F" d="M18.052,34.334c-0.15-0.119-0.297-0.191-0.378-0.307c-0.191-0.278-0.004-0.654,0.339-0.68
	c0.313-0.024,0.631-0.014,0.946-0.012c0.26,0.002,0.437,0.128,0.476,0.389c0.039,0.258-0.084,0.433-0.334,0.514
	c-0.034,0.011-0.066,0.027-0.108,0.046c-0.035,0.362,0.109,0.84-0.472,0.896C18.198,35.208,18.083,34.975,18.052,34.334z"/>
<path fill="#BF973F" d="M38.309,19.005c-0.132-0.096-0.272-0.178-0.412-0.263c-3.205-1.956-6.408-3.915-9.619-5.864
	c-0.993-0.602-2.004-1.176-3.003-1.762c-0.181,0-0.361,0-0.543,0c-0.261,0.137-0.53,0.259-0.782,0.413
	c-2.307,1.401-4.612,2.808-6.916,4.213c-1.734,1.057-3.47,2.113-5.202,3.175c-0.601,0.368-0.852,1.042-0.644,1.686
	c0.207,0.641,0.806,1.034,1.51,0.99c0.085-0.006,0.171-0.009,0.27-0.014c0,0.132,0,0.24,0,0.348c0,5.124,0,10.248,0,15.372
	c0,1.038,0.549,1.587,1.587,1.587c6.968,0,13.936,0,20.902,0c1.036,0,1.582-0.551,1.582-1.594c0-5.133,0-10.267,0-15.399
	c0-0.107,0-0.213,0-0.324c0.161,0.009,0.295,0.023,0.428,0.023c0.615-0.005,1.162-0.408,1.351-0.99
	C39.005,20.014,38.803,19.37,38.309,19.005z M22.213,37.952c-1.854,0-3.678,0-5.523,0c0-3.082,0-6.155,0-9.238
	c1.849,0,3.678,0,5.523,0C22.213,31.796,22.213,34.861,22.213,37.952z M36.111,37.352c0,0.438-0.159,0.607-0.573,0.607
	c-4.058,0.002-8.115,0.001-12.173,0.001c-0.06,0-0.122,0-0.21,0c0-0.132,0-0.237,0-0.343c0-2.91,0-5.82,0-8.729
	c-0.001-0.761-0.353-1.115-1.109-1.115c-1.735,0-3.47,0-5.205,0c-0.74,0-1.098,0.359-1.098,1.1c0,2.9,0,5.802,0,8.704
	c0,0.114,0,0.229,0,0.382c-0.491,0-0.941,0.01-1.392-0.002c-0.261-0.007-0.412-0.168-0.452-0.423
	c-0.015-0.089-0.007-0.181-0.007-0.271c-0.001-5.305,0.002-10.608-0.005-15.915c-0.001-0.229,0.07-0.351,0.264-0.468
	c3.497-2.12,6.99-4.248,10.48-6.38c0.267-0.163,0.487-0.158,0.75,0.003c3.514,2.146,7.031,4.287,10.549,6.423
	c0.146,0.089,0.187,0.188,0.187,0.347C36.111,26.633,36.113,31.992,36.111,37.352z M37.881,20.424
	c-0.167,0.281-0.473,0.324-0.826,0.108c-3.725-2.267-7.447-4.538-11.177-6.799c-0.261-0.159-0.569-0.244-0.876-0.372
	c-0.303,0.126-0.592,0.205-0.84,0.355c-3.706,2.245-7.407,4.5-11.109,6.753c-0.069,0.042-0.137,0.089-0.208,0.126
	c-0.273,0.143-0.565,0.075-0.715-0.165c-0.159-0.255-0.094-0.551,0.185-0.726c0.535-0.337,1.077-0.662,1.617-0.99
	c3.569-2.176,7.14-4.348,10.705-6.531c0.271-0.166,0.487-0.152,0.749,0.008c4.066,2.486,8.137,4.966,12.208,7.447
	C37.945,19.855,38.05,20.142,37.881,20.424z"/>
<path fill="#BF973F" d="M21.298,24.074c0-0.165,0-0.291,0-0.417c0-1.374-0.001-2.746,0.001-4.12
	c0.001-0.635,0.375-1.021,1.006-1.022c1.799-0.004,3.598-0.004,5.396,0c0.64,0.002,1.006,0.388,1.008,1.051
	c0.003,1.383,0.001,2.765,0.001,4.148c0,0.105,0,0.213,0,0.364c0.174,0,0.324-0.009,0.475,0.002
	c0.266,0.019,0.445,0.211,0.445,0.452c0.001,0.23-0.169,0.423-0.417,0.459C29.124,25.005,29.032,25,28.941,25
	c-2.629,0-5.258,0-7.889,0c-0.054,0-0.109,0.003-0.162,0c-0.317-0.016-0.521-0.204-0.515-0.477c0.006-0.265,0.196-0.435,0.507-0.447
	C21.01,24.07,21.135,24.074,21.298,24.074z M27.766,19.455c-0.781,0-1.527,0-2.277,0c0,0.618,0,1.216,0,1.835
	c0.298,0,0.576-0.003,0.855,0.002c0.227,0.006,0.407,0.094,0.481,0.321c0.1,0.304-0.099,0.583-0.437,0.599
	c-0.302,0.014-0.604,0.004-0.906,0.004c0,0.642,0,1.234,0,1.838c0.767,0,1.519,0,2.281,0C27.766,22.511,27.766,20.991,27.766,19.455
	z M24.532,24.06c0-0.62,0-1.213,0-1.822c-0.771,0-1.531,0-2.287,0c0,0.618,0,1.217,0,1.822C23.012,24.06,23.757,24.06,24.532,24.06z
	 M24.525,19.46c-0.772,0-1.531,0-2.289,0c0,0.616,0,1.209,0,1.805c0.773,0,1.531,0,2.307,0c0-0.572,0.001-1.121,0-1.67
	C24.542,19.552,24.532,19.509,24.525,19.46z"/>
</svg>
