<?xml version="1.0" encoding="utf-8"?>
<!-- Generator: Adobe Illustrator 16.0.0, SVG Export Plug-In . SVG Version: 6.00 Build 0)  -->
<!DOCTYPE svg PUBLIC "-//W3C//DTD SVG 1.1//EN" "http://www.w3.org/Graphics/SVG/1.1/DTD/svg11.dtd">
<svg version="1.1" id="Layer_1" xmlns="http://www.w3.org/2000/svg" xmlns:xlink="http://www.w3.org/1999/xlink" x="0px" y="0px"
	 width="50px" height="50px" viewBox="0 0 50 50" enable-background="new 0 0 50 50" xml:space="preserve">
<circle fill="none" stroke="#BF973F" stroke-linecap="round" stroke-linejoin="round" stroke-miterlimit="10" cx="25" cy="25" r="24.125"/>
<g>
	<path fill="none" stroke="#BF973F" stroke-linecap="round" stroke-linejoin="round" stroke-miterlimit="10" d="M37.326,20.76
		c0,1.385-1.123,2.507-2.508,2.507H15.181c-1.385,0-2.507-1.122-2.507-2.507v-5.808c0-1.384,1.122-2.506,2.507-2.506h19.637
		c1.385,0,2.508,1.122,2.508,2.506V20.76z"/>
	<polyline fill="none" stroke="#BF973F" stroke-linecap="round" stroke-linejoin="round" stroke-miterlimit="10" points="
		37.25,21.47 37.201,23.601 35.822,25.188 14.262,25.188 12.924,23.852 12.924,21.854 	"/>
	<path fill="none" stroke="#BF973F" stroke-linecap="round" stroke-linejoin="round" stroke-miterlimit="10" d="M14.22,25.214
		c0,0,1.128,1.521,1.796,1.897h2.591"/>
	<path fill="none" stroke="#BF973F" stroke-linecap="round" stroke-linejoin="round" stroke-miterlimit="10" d="M35.799,25.339
		c0,0-0.703,1.396-1.373,1.772h-2.59"/>
	
		<line fill="none" stroke="#BF973F" stroke-linecap="round" stroke-linejoin="round" stroke-miterlimit="10" x1="32.262" y1="15.509" x2="32.262" y2="20.481"/>
	
		<line fill="none" stroke="#BF973F" stroke-linecap="round" stroke-linejoin="round" stroke-miterlimit="10" x1="30.256" y1="16.637" x2="34.268" y2="19.353"/>
	
		<line fill="none" stroke="#BF973F" stroke-linecap="round" stroke-linejoin="round" stroke-miterlimit="10" x1="34.35" y1="16.804" x2="30.172" y2="19.186"/>
	
		<circle fill="none" stroke="#BF973F" stroke-linecap="round" stroke-linejoin="round" stroke-miterlimit="10" cx="20.733" cy="27.487" r="0.919"/>
	
		<circle fill="none" stroke="#BF973F" stroke-linecap="round" stroke-linejoin="round" stroke-miterlimit="10" cx="20.307" cy="30.436" r="0.919"/>
	
		<circle fill="none" stroke="#BF973F" stroke-linecap="round" stroke-linejoin="round" stroke-miterlimit="10" cx="19.172" cy="33.478" r="0.919"/>
	
		<circle fill="none" stroke="#BF973F" stroke-linecap="round" stroke-linejoin="round" stroke-miterlimit="10" cx="17.15" cy="36.596" r="0.919"/>
	
		<circle fill="none" stroke="#BF973F" stroke-linecap="round" stroke-linejoin="round" stroke-miterlimit="10" cx="29.778" cy="27.526" r="0.919"/>
	
		<circle fill="none" stroke="#BF973F" stroke-linecap="round" stroke-linejoin="round" stroke-miterlimit="10" cx="30.204" cy="30.475" r="0.919"/>
	
		<circle fill="none" stroke="#BF973F" stroke-linecap="round" stroke-linejoin="round" stroke-miterlimit="10" cx="31.339" cy="33.517" r="0.919"/>
	
		<circle fill="none" stroke="#BF973F" stroke-linecap="round" stroke-linejoin="round" stroke-miterlimit="10" cx="33.361" cy="36.635" r="0.92"/>
	
		<circle fill="none" stroke="#BF973F" stroke-linecap="round" stroke-linejoin="round" stroke-miterlimit="10" cx="25.208" cy="27.487" r="0.919"/>
	
		<circle fill="none" stroke="#BF973F" stroke-linecap="round" stroke-linejoin="round" stroke-miterlimit="10" cx="25.208" cy="30.436" r="0.919"/>
	
		<circle fill="none" stroke="#BF973F" stroke-linecap="round" stroke-linejoin="round" stroke-miterlimit="10" cx="25.209" cy="33.517" r="0.92"/>
	
		<circle fill="none" stroke="#BF973F" stroke-linecap="round" stroke-linejoin="round" stroke-miterlimit="10" cx="25.209" cy="36.465" r="0.92"/>
</g>
</svg>
