<?xml version="1.0" encoding="utf-8"?>
<!-- Generator: Adobe Illustrator 16.0.0, SVG Export Plug-In . SVG Version: 6.00 Build 0)  -->
<!DOCTYPE svg PUBLIC "-//W3C//DTD SVG 1.1//EN" "http://www.w3.org/Graphics/SVG/1.1/DTD/svg11.dtd">
<svg version="1.1" id="Layer_1" xmlns="http://www.w3.org/2000/svg" xmlns:xlink="http://www.w3.org/1999/xlink" x="0px" y="0px"
	 width="50px" height="50px" viewBox="0 0 50 50" enable-background="new 0 0 50 50" xml:space="preserve">
<circle fill="none" stroke="#BF973F" stroke-linecap="round" stroke-linejoin="round" stroke-miterlimit="10" cx="25" cy="25" r="24.125"/>
<g>
	<path fill-rule="evenodd" clip-rule="evenodd" fill="#BF973F" d="M12.82,37.474c-0.193-0.119-0.25-0.292-0.246-0.516
		c0.011-0.673-0.006-1.348,0.006-2.021c0.019-1.063,0.514-1.819,1.49-2.248c0.125-0.055,0.166-0.117,0.164-0.25
		c-0.003-0.349-0.029-0.704,0.026-1.045c0.121-0.755,0.567-1.269,1.301-1.488c0.726-0.217,1.359-0.02,1.888,0.519
		c0.04,0.041,0.077,0.083,0.116,0.124c0.85-0.974,2.165-0.96,2.994-0.009c0.951-1.056,2.263-0.854,2.984,0.019
		c0.389-0.463,0.878-0.733,1.49-0.732c0.606,0.001,1.092,0.263,1.49,0.738c0.396-0.474,0.887-0.742,1.5-0.738
		c0.606,0.003,1.092,0.269,1.476,0.73c0.865-1.01,2.206-0.938,3.011,0.029c0.048-0.069,0.084-0.143,0.14-0.196
		c0.574-0.549,1.246-0.725,1.991-0.436c0.731,0.284,1.133,0.844,1.184,1.634c0.019,0.291-0.005,0.585,0.015,0.876
		c0.006,0.08,0.077,0.192,0.148,0.228c0.96,0.459,1.449,1.213,1.455,2.277c0.003,0.649-0.007,1.299,0.004,1.948
		c0.004,0.224-0.039,0.412-0.217,0.557c-0.098,0-0.195,0-0.292,0c-0.192-0.136-0.232-0.327-0.229-0.551
		c0.009-0.625,0.006-1.249,0.002-1.874c-0.001-0.17-0.001-0.344-0.036-0.509c-0.17-0.803-0.936-1.37-1.731-1.295
		c-0.857,0.082-1.502,0.767-1.512,1.621c-0.009,0.697-0.009,1.396,0.001,2.093c0.004,0.224-0.056,0.395-0.246,0.515
		c-0.081,0-0.162,0-0.243,0c-0.196-0.116-0.253-0.287-0.25-0.512c0.012-0.689,0.007-1.379,0.003-2.068
		c-0.002-0.45-0.155-0.847-0.479-1.16c-0.485-0.471-1.064-0.621-1.702-0.395c-0.646,0.229-1.044,0.703-1.085,1.391
		c-0.043,0.728-0.023,1.459-0.019,2.189c0.002,0.224-0.038,0.413-0.221,0.555c-0.098,0-0.195,0-0.292,0
		c-0.188-0.139-0.227-0.329-0.226-0.553c0.004-0.737,0.023-1.478-0.02-2.213c-0.054-0.914-0.972-1.599-1.873-1.445
		c-0.846,0.145-1.394,0.779-1.411,1.662c-0.013,0.665-0.009,1.33,0,1.995c0.003,0.224-0.038,0.413-0.223,0.554
		c-0.098,0-0.195,0-0.292,0c-0.186-0.14-0.226-0.331-0.223-0.554c0.009-0.633,0.007-1.266,0.001-1.898
		c-0.002-0.177-0.01-0.359-0.052-0.53c-0.197-0.795-0.963-1.335-1.743-1.243c-0.852,0.101-1.476,0.772-1.487,1.62
		c-0.01,0.697-0.009,1.396,0.001,2.093c0.003,0.224-0.055,0.396-0.249,0.513c-0.082,0-0.163,0-0.244,0
		c-0.192-0.119-0.251-0.29-0.248-0.514c0.011-0.697,0.008-1.396,0.002-2.093c-0.004-0.47-0.18-0.875-0.53-1.186
		c-0.505-0.449-1.089-0.571-1.718-0.315c-0.625,0.254-0.991,0.735-1.02,1.414c-0.03,0.713-0.017,1.428-0.01,2.142
		c0.002,0.224-0.04,0.413-0.227,0.552c-0.098,0-0.195,0-0.292,0c-0.181-0.144-0.223-0.332-0.219-0.556
		c0.01-0.624,0.007-1.249,0.001-1.874c-0.002-0.185-0.01-0.376-0.054-0.555c-0.195-0.793-0.964-1.334-1.745-1.241
		c-0.841,0.1-1.469,0.763-1.485,1.598c-0.014,0.705-0.01,1.411,0,2.117c0.003,0.224-0.053,0.396-0.25,0.511
		C12.982,37.474,12.901,37.474,12.82,37.474z M25.004,33.615c0.285-0.407,0.622-0.7,1.042-0.899c0.055-0.026,0.108-0.118,0.11-0.182
		c0.011-0.299,0.018-0.6,0-0.898c-0.037-0.631-0.536-1.092-1.15-1.08c-0.6,0.012-1.07,0.482-1.094,1.108
		c-0.011,0.291-0.009,0.583,0.001,0.874c0.002,0.068,0.041,0.171,0.092,0.196C24.407,32.933,24.725,33.224,25.004,33.615z
		 M14.97,32.503c0.848,0.039,1.508,0.411,2.02,1.141c0.089-0.193,0.203-0.333,0.209-0.477c0.022-0.51,0.016-1.021,0.005-1.532
		c-0.013-0.576-0.479-1.047-1.05-1.078c-0.585-0.032-1.118,0.388-1.179,0.966C14.943,31.841,14.97,32.166,14.97,32.503z
		 M35.1,32.501c0-0.283,0.006-0.541-0.001-0.8c-0.015-0.664-0.499-1.151-1.132-1.146c-0.63,0.005-1.108,0.504-1.115,1.17
		c-0.006,0.454,0.009,0.908-0.006,1.362c-0.007,0.213,0.062,0.369,0.228,0.509C33.557,32.894,34.227,32.54,35.1,32.501z
		 M23.193,32.506c-0.02-0.385,0.003-0.762-0.066-1.121c-0.102-0.528-0.649-0.879-1.19-0.825c-0.566,0.056-0.995,0.517-1.011,1.12
		c-0.015,0.584-0.004,1.167-0.002,1.751c0,0.05,0.024,0.101,0.047,0.191C21.518,32.849,22.241,32.486,23.193,32.506z M26.914,32.504
		c0.9,0,1.603,0.368,2.146,1.131c0.038-0.113,0.077-0.177,0.078-0.241c0.004-0.6,0.018-1.199-0.006-1.798
		c-0.021-0.557-0.49-1.003-1.038-1.039c-0.556-0.035-1.087,0.338-1.17,0.884C26.871,31.779,26.914,32.132,26.914,32.504z
		 M20.188,32.838c0-0.424,0.009-0.805-0.002-1.184c-0.017-0.59-0.461-1.056-1.031-1.097c-0.579-0.042-1.105,0.34-1.182,0.925
		c-0.053,0.402-0.01,0.816-0.01,1.249C18.708,32.407,19.436,32.441,20.188,32.838z M32.117,32.757c0-0.388,0.007-0.744-0.001-1.1
		c-0.013-0.585-0.46-1.057-1.03-1.1c-0.584-0.044-1.13,0.361-1.193,0.945c-0.045,0.421-0.009,0.852-0.009,1.313
		C30.624,32.427,31.359,32.415,32.117,32.757z"/>
	<path fill-rule="evenodd" clip-rule="evenodd" fill="#BF973F" d="M18.91,12.527c0.205,0.108,0.256,0.281,0.253,0.505
		c-0.042,3.185-1.087,6.004-3.067,8.487c-0.075,0.094-0.15,0.188-0.225,0.282c0.009,0.025,0.019,0.051,0.028,0.077
		c0.16-0.041,0.347-0.041,0.474-0.128c0.549-0.374,1.085-0.766,1.615-1.166c0.273-0.206,0.608-0.142,0.638,0.164
		c0.012,0.121-0.06,0.296-0.153,0.375c-0.417,0.347-0.855,0.669-1.288,0.998c-0.07,0.054-0.148,0.096-0.24,0.155
		c0.248,0.344,0.374,0.708,0.282,1.123s-0.341,0.708-0.692,0.895c0.167,0.56,0.331,1.101,0.49,1.644
		c0.054,0.184,0.042,0.445,0.162,0.538c0.125,0.096,0.373,0.032,0.568,0.033c3.573,0,7.146,0,10.718,0
		c0.073,0,0.146-0.002,0.22,0.001c0.242,0.01,0.401,0.158,0.398,0.367c-0.003,0.21-0.161,0.356-0.407,0.361
		c-0.325,0.006-0.649,0.001-0.975,0.001c-3.386,0-6.772,0-10.158,0c-0.096,0-0.191,0-0.295,0c0,0.306,0.001,0.587,0,0.868
		c-0.002,0.282-0.142,0.451-0.366,0.449s-0.366-0.171-0.363-0.454c0.012-1.21-0.221-2.369-0.692-3.483
		c-0.062-0.146-0.131-0.216-0.302-0.205c-0.258,0.018-0.518,0.005-0.814,0.005c0,0.097,0,0.183,0,0.268c0,1.112,0,2.225,0,3.337
		c0,0.081,0.006,0.165-0.013,0.242c-0.048,0.188-0.175,0.297-0.371,0.286c-0.193-0.011-0.313-0.126-0.341-0.319
		c-0.012-0.08-0.005-0.162-0.005-0.243c0-1.177,0-2.354,0-3.571c-0.322,0-0.636-0.012-0.948,0.004
		c-0.226,0.011-0.394-0.057-0.511-0.25c0-0.081,0-0.162,0-0.244c0.125-0.2,0.309-0.254,0.538-0.245
		c0.34,0.013,0.681,0.003,1.021,0.003c0.624,0,1.248,0.003,1.872-0.002c0.275-0.002,0.476-0.157,0.547-0.399
		c0.067-0.227-0.023-0.499-0.238-0.608c-0.124-0.063-0.277-0.092-0.417-0.093c-0.94-0.008-1.88-0.009-2.819-0.001
		c-0.224,0.002-0.395-0.061-0.501-0.263c0-0.081,0-0.162,0-0.244c0.142-0.077,0.286-0.151,0.425-0.233
		c0.063-0.037,0.138-0.079,0.17-0.138c0.937-1.745,1.447-3.6,1.453-5.589c0.003-1.03,0.046-2.061,0.064-3.091
		c0.004-0.223,0.069-0.395,0.275-0.498c0.065,0,0.13,0,0.195,0c0.218,0.108,0.274,0.287,0.268,0.521
		c-0.032,1.055-0.059,2.11-0.073,3.165c-0.025,1.846-0.426,3.6-1.249,5.255c-0.057,0.114-0.107,0.231-0.173,0.376
		c0.274,0,0.518,0.017,0.757-0.007c0.122-0.012,0.271-0.065,0.349-0.152c2.201-2.458,3.394-5.321,3.438-8.638
		c0.003-0.219,0.055-0.396,0.241-0.521C18.748,12.527,18.829,12.527,18.91,12.527z"/>
	<path fill-rule="evenodd" clip-rule="evenodd" fill="#BF973F" d="M31.383,12.527c0.184,0.126,0.238,0.302,0.24,0.521
		c0.043,3.318,1.236,6.181,3.439,8.639c0.078,0.087,0.228,0.14,0.35,0.151c0.239,0.023,0.482,0.007,0.755,0.007
		c-0.066-0.146-0.117-0.264-0.174-0.377c-0.819-1.648-1.221-3.394-1.247-5.231c-0.016-1.047-0.047-2.094-0.07-3.141
		c-0.001-0.065-0.004-0.131,0.005-0.194c0.028-0.197,0.151-0.309,0.343-0.316c0.192-0.007,0.327,0.097,0.362,0.292
		c0.022,0.127,0.023,0.258,0.027,0.388c0.034,1.226,0.048,2.452,0.104,3.676c0.066,1.436,0.453,2.795,1.076,4.089
		c0.085,0.175,0.17,0.35,0.253,0.526c0.076,0.16,0.138,0.316,0.367,0.329c0.09,0.005,0.173,0.125,0.26,0.193
		c0,0.082,0,0.163,0,0.244c-0.108,0.202-0.277,0.265-0.502,0.263c-0.932-0.008-1.863-0.002-2.795-0.004
		c-0.222,0-0.419,0.049-0.552,0.243c-0.12,0.175-0.138,0.363-0.043,0.552c0.108,0.217,0.294,0.312,0.534,0.312
		c0.939-0.001,1.88,0.005,2.819-0.004c0.229-0.002,0.412,0.047,0.538,0.246c0,0.082,0,0.163,0,0.244
		c-0.118,0.193-0.286,0.261-0.512,0.249c-0.275-0.015-0.552-0.001-0.828,0.001c-0.015,0-0.028,0.011-0.071,0.028
		c0,0.076,0,0.162,0,0.249c0,1.023,0,2.046,0,3.069c0,0.082,0.001,0.163,0,0.244c0,0.368-0.123,0.547-0.371,0.542
		c-0.24-0.006-0.359-0.181-0.359-0.532c0-0.975,0-1.948,0-2.923c0-0.217,0-0.435,0-0.681c-0.325,0-0.632-0.009-0.937,0.008
		c-0.059,0.003-0.134,0.101-0.164,0.171c-0.464,1.062-0.701,2.173-0.707,3.332c0,0.09,0.005,0.18-0.003,0.268
		c-0.021,0.212-0.169,0.355-0.362,0.357c-0.201,0.002-0.357-0.151-0.363-0.376c-0.008-0.3-0.002-0.601-0.002-0.941
		c-0.077,0-0.162,0-0.246,0c-0.707,0-1.413,0.001-2.12,0c-0.332,0-0.501-0.121-0.506-0.359c-0.005-0.244,0.17-0.37,0.516-0.371
		c0.064,0,0.13,0,0.194,0c0.683,0,1.364-0.007,2.047,0.004c0.184,0.003,0.232-0.057,0.277-0.234c0.147-0.58,0.328-1.152,0.498-1.726
		c0.022-0.077,0.056-0.149,0.083-0.219c-0.836-0.659-0.962-1.236-0.438-2.05c-0.07-0.047-0.14-0.096-0.212-0.141
		c-0.731-0.463-1.386-1.018-1.964-1.663c-0.192-0.214-0.204-0.423-0.035-0.578c0.171-0.157,0.373-0.133,0.571,0.084
		c0.639,0.702,1.36,1.302,2.195,1.756c0.145,0.079,0.321,0.1,0.482,0.148c0.012-0.023,0.023-0.046,0.034-0.07
		c-0.026-0.042-0.05-0.089-0.082-0.128c-1.517-1.838-2.548-3.911-2.961-6.264c-0.144-0.819-0.164-1.66-0.241-2.491
		c-0.019-0.2,0.1-0.314,0.252-0.408C31.221,12.527,31.302,12.527,31.383,12.527z"/>
	<path fill-rule="evenodd" clip-rule="evenodd" fill="#BF973F" d="M21.443,12.527c0.201,0.145,0.235,0.338,0.207,0.575
		c-0.125,1.062-0.179,2.135-0.368,3.185c-0.232,1.292-0.819,2.452-1.599,3.509c-0.174,0.237-0.369,0.292-0.557,0.165
		c-0.197-0.133-0.214-0.348-0.034-0.593c1.091-1.481,1.637-3.148,1.722-4.978c0.021-0.461,0.054-0.924,0.115-1.381
		c0.023-0.167,0.145-0.322,0.222-0.482C21.249,12.527,21.346,12.527,21.443,12.527z"/>
	<path fill-rule="evenodd" clip-rule="evenodd" fill="#BF973F" d="M28.898,12.527c0.208,0.16,0.22,0.391,0.242,0.627
		c0.087,0.913,0.147,1.829,0.285,2.734c0.147,0.97,0.527,1.869,1.026,2.715c0.016,0.028,0.033,0.056,0.048,0.084
		c0.106,0.209,0.064,0.404-0.108,0.514c-0.184,0.115-0.408,0.071-0.518-0.148c-0.289-0.579-0.586-1.158-0.824-1.758
		c-0.427-1.078-0.51-2.224-0.588-3.367c-0.02-0.283-0.027-0.568-0.065-0.849c-0.031-0.231,0.019-0.414,0.209-0.552
		C28.703,12.527,28.801,12.527,28.898,12.527z"/>
</g>
</svg>
