<?xml version="1.0" encoding="utf-8"?>
<!-- Generator: Adobe Illustrator 16.0.0, SVG Export Plug-In . SVG Version: 6.00 Build 0)  -->
<!DOCTYPE svg PUBLIC "-//W3C//DTD SVG 1.1//EN" "http://www.w3.org/Graphics/SVG/1.1/DTD/svg11.dtd">
<svg version="1.1" id="Layer_1" xmlns="http://www.w3.org/2000/svg" xmlns:xlink="http://www.w3.org/1999/xlink" x="0px" y="0px"
	 width="50px" height="50px" viewBox="0 0 50 50" enable-background="new 0 0 50 50" xml:space="preserve">
<circle fill="none" stroke="#BF973F" stroke-linecap="round" stroke-linejoin="round" stroke-miterlimit="10" cx="25" cy="25" r="24.125"/>
<g>
	<path fill-rule="evenodd" clip-rule="evenodd" fill="#BF973F" d="M38.977,22.764c0,5.402,0,10.805,0,16.211
		c-9.312,0-18.622,0-27.953,0c0-5.401,0-10.806,0-16.211c0.169-0.287,0.415-0.383,0.749-0.381c1.836,0.013,3.673,0.006,5.51,0.006
		c0.104,0,0.208,0,0.309,0c0-1.12,0-2.195,0-3.284c-0.124,0-0.223,0-0.323,0c-1.482,0-2.964,0.001-4.446-0.001
		c-0.483,0-0.68-0.204-0.671-0.682c0.051-2.654,1.867-4.978,4.432-5.659c0.332-0.088,0.671-0.146,1.032-0.223
		c0-0.271,0.013-0.543-0.003-0.813c-0.021-0.329,0.098-0.564,0.401-0.701c0.109,0,0.218,0,0.328,0
		c0.295,0.181,0.394,0.447,0.37,0.784c-0.017,0.243-0.003,0.488-0.003,0.74c0.092,0.02,0.162,0.041,0.232,0.05
		c2.93,0.402,5.113,2.803,5.229,5.753c0.021,0.546-0.173,0.751-0.717,0.751c-1.474,0.001-2.948,0-4.422,0c-0.097,0-0.195,0-0.306,0
		c0,1.104,0,2.181,0,3.27c2.404,0,4.792,0,7.206,0c0-0.103,0-0.192,0-0.28c0-0.683-0.01-1.365,0.003-2.047
		c0.025-1.259,1.034-2.321,2.273-2.411c1.288-0.093,2.463,0.766,2.63,2.028c0.104,0.788,0.047,1.597,0.063,2.396
		c0.002,0.105,0,0.209,0,0.312c0.547,0,1.053,0,1.582,0c0-0.75-0.003-1.485,0.001-2.22c0.009-1.413,1.093-2.517,2.47-2.522
		c1.396-0.005,2.487,1.094,2.498,2.521c0.005,0.655,0.001,1.31,0.001,1.965c0,0.087,0,0.173,0,0.271
		c0.288,0,0.534,0.016,0.778-0.003C38.563,22.357,38.809,22.477,38.977,22.764z M12.117,31.951c0,0.488-0.005,1.051,0.008,1.611
		c0.001,0.059,0.101,0.142,0.171,0.167c0.497,0.18,0.938,0.049,1.364-0.237c0.932-0.627,1.897-0.66,2.835-0.041
		c0.633,0.418,1.228,0.486,1.873,0.058c0.269-0.179,0.575-0.097,0.741,0.154c0.167,0.252,0.124,0.569-0.15,0.741
		c-0.266,0.167-0.553,0.326-0.853,0.412c-0.764,0.217-1.474,0.048-2.121-0.405c-0.539-0.377-1.105-0.431-1.654-0.052
		c-0.672,0.462-1.385,0.662-2.201,0.472c0,1.021,0,2.026,0,3.037c8.588,0,17.162,0,25.733,0c0-1.02,0-2.022,0-3.034
		c-0.658,0.143-1.3,0.115-1.831-0.268c-0.791-0.57-1.487-0.534-2.3-0.004c-0.872,0.568-1.806,0.446-2.666-0.133
		c-0.288-0.193-0.349-0.499-0.181-0.759c0.166-0.26,0.483-0.339,0.762-0.153c0.626,0.417,1.22,0.377,1.822-0.052
		c0.441-0.313,0.94-0.461,1.488-0.445c0.538,0.016,1.01,0.206,1.443,0.509c0.407,0.284,0.846,0.367,1.318,0.195
		c0.064-0.024,0.154-0.1,0.155-0.151c0.012-0.569,0.007-1.138,0.007-1.636c-0.645-0.194-1.257-0.318-1.816-0.561
		c-1.43-0.62-2.833-0.624-4.249,0.018c-0.704,0.319-1.45,0.467-2.223,0.485c-0.975,0.024-1.882-0.232-2.773-0.605
		c-1.243-0.521-2.504-0.508-3.737,0.034c-1.713,0.754-3.409,0.763-5.121-0.002c-0.903-0.404-1.864-0.547-2.825-0.298
		C14.134,31.27,13.153,31.623,12.117,31.951z M12.13,26.094c0,1.566,0,3.101,0,4.723c0.525-0.169,1.028-0.292,1.499-0.49
		c1.621-0.684,3.234-0.693,4.844,0.011c1.389,0.607,2.76,0.592,4.147-0.013c0.43-0.187,0.891-0.337,1.352-0.402
		c0.633-0.091,1.28-0.086,1.938-0.123c0-1.191,0-2.44,0-3.705c-0.281,0-0.543,0-0.807,0c-1.201,0-2.402,0.003-3.603-0.002
		c-0.333-0.002-0.567-0.233-0.572-0.536c-0.004-0.302,0.229-0.534,0.558-0.552c0.073-0.004,0.146-0.001,0.218-0.001
		c1.31,0,2.621,0,3.931,0c0.095,0,0.19,0,0.272,0c0-0.532,0-1.019,0-1.506c-4.602,0-9.183,0-13.771,0c0,0.509,0,1.002,0,1.506
		c1.413,0,2.804,0,4.195,0c0.091,0,0.183-0.004,0.273,0.004c0.297,0.03,0.508,0.259,0.507,0.544c-0.001,0.286-0.214,0.514-0.51,0.54
		c-0.09,0.009-0.182,0.004-0.273,0.004C14.938,26.094,13.547,26.094,12.13,26.094z M37.876,26.113c-1.447,0-2.868,0-4.287,0
		c0,1.243,0,2.467,0,3.699c0.127,0,0.234,0,0.343-0.001c0.925-0.001,1.797,0.222,2.637,0.598c0.411,0.184,0.842,0.307,1.308,0.33
		C37.876,29.184,37.876,27.658,37.876,26.113z M27.021,28.723c0,0.45-0.004,0.868,0.004,1.286c0.002,0.065,0.043,0.164,0.095,0.188
		c0.908,0.439,1.866,0.739,2.872,0.547c0.847-0.161,1.665-0.464,2.471-0.697c0-0.491,0-0.906,0-1.324
		C30.646,28.723,28.848,28.723,27.021,28.723z M19.636,17.997c-0.034-0.396-0.052-0.769-0.101-1.136
		c-0.126-0.958-0.315-1.902-0.828-2.742c-0.382-0.627-0.722-0.635-1.094-0.009c-0.708,1.192-0.852,2.522-0.93,3.887
		C17.676,17.997,18.635,17.997,19.636,17.997z M33.576,22.369c0.941,0,1.854,0,2.776,0c0-0.809,0.024-1.598-0.007-2.386
		c-0.028-0.703-0.66-1.255-1.367-1.26c-0.725-0.005-1.364,0.543-1.396,1.259C33.551,20.77,33.576,21.559,33.576,22.369z
		 M27.025,22.369c0.94,0,1.853,0,2.775,0c0-0.809,0.024-1.598-0.007-2.386c-0.029-0.705-0.66-1.256-1.366-1.26
		c-0.725-0.004-1.363,0.542-1.395,1.259C26.999,20.77,27.025,21.559,27.025,22.369z M27.041,23.488c0,0.518,0,1.011,0,1.5
		c1.818,0,3.616,0,5.417,0c0-0.508,0-1,0-1.5C30.646,23.488,28.856,23.488,27.041,23.488z M32.467,26.112c-1.826,0-3.629,0-5.433,0
		c0,0.506,0,0.992,0,1.491c1.816,0,3.618,0,5.433,0C32.467,27.102,32.467,26.615,32.467,26.112z M16.415,13.991
		c-1.351,0.399-2.952,1.969-3.133,4c0.767,0,1.532,0,2.309,0C15.658,16.606,15.854,15.268,16.415,13.991z M19.961,13.995
		c0.179,0.658,0.394,1.305,0.526,1.968c0.133,0.666,0.184,1.348,0.272,2.032c0.747,0,1.506,0,2.265,0
		C22.976,16.377,21.541,14.521,19.961,13.995z M33.579,24.982c1.449,0,2.87,0,4.288,0c0-0.506,0-0.993,0-1.48
		c-1.439,0-2.861,0-4.288,0C33.579,24.003,33.579,24.484,33.579,24.982z"/>
	<path fill-rule="evenodd" clip-rule="evenodd" fill="#BF973F" d="M27.363,36.37c-0.518,0.009-0.99-0.143-1.407-0.44
		c-0.643-0.46-1.259-0.45-1.913-0.002c-0.889,0.608-1.954,0.592-2.815,0.005c-0.318-0.217-0.405-0.515-0.231-0.79
		c0.176-0.277,0.49-0.339,0.809-0.132c0.59,0.38,1.154,0.345,1.729-0.043c0.968-0.652,1.965-0.653,2.93-0.001
		c0.573,0.388,1.138,0.425,1.728,0.044c0.32-0.206,0.634-0.146,0.81,0.131c0.174,0.274,0.09,0.58-0.229,0.791
		C28.347,36.216,27.88,36.377,27.363,36.37z"/>
	<path fill-rule="evenodd" clip-rule="evenodd" fill="#BF973F" d="M19.56,25.54c0.004,0.301-0.226,0.544-0.523,0.553
		c-0.306,0.009-0.558-0.241-0.555-0.549c0.002-0.298,0.243-0.538,0.538-0.539C19.316,25.003,19.556,25.241,19.56,25.54z"/>
</g>
</svg>
