<?xml version="1.0" encoding="utf-8"?>
<!-- Generator: Adobe Illustrator 24.0.1, SVG Export Plug-In . SVG Version: 6.00 Build 0)  -->
<svg version="1.1" id="Layer_5" xmlns="http://www.w3.org/2000/svg" xmlns:xlink="http://www.w3.org/1999/xlink" x="0px" y="0px"
	 viewBox="0 0 512 512" style="enable-background:new 0 0 512 512;" xml:space="preserve">
<style type="text/css">
	.st0{display:none;}
	.st1{display:inline;fill:#BF973F;}
	.st2{fill:none;stroke:#BF973F;stroke-width:5;stroke-miterlimit:10;}
	.st3{display:inline;}
	.st4{fill:#BF973F;stroke:#BF973F;stroke-width:0.25;stroke-miterlimit:10;}
	.st5{display:none;stroke:#BF973F;stroke-width:0.25;stroke-miterlimit:10;}
	.st6{display:inline;fill:none;stroke:#BF973F;stroke-width:7;stroke-linecap:round;stroke-miterlimit:10;}
	.st7{fill:#BF973F;}
	.st8{fill-rule:evenodd;clip-rule:evenodd;fill:#BF973F;}
	.st9{display:none;fill:#BE9746;}
	.st10{display:none;fill:#BF973F;stroke:#BF973F;stroke-width:4;stroke-miterlimit:10;}
	.st11{display:inline;fill:#BF973F;stroke:#BF973F;stroke-width:3;stroke-miterlimit:10;}
	.st12{display:inline;fill:none;stroke:#BF973F;stroke-width:8;stroke-miterlimit:10;}
	.st13{fill:#BE9746;stroke:#BF973F;stroke-miterlimit:10;}
</style>
<g class="st0">
	<path class="st1" d="M784.1,304.3h-7.7V289h7.7v-19.2c0-6.4-5.2-11.5-11.5-11.5h-18l-19.9-44.8c-3.5-7.8-11.2-12.8-19.7-12.8
		s-16.3,5-19.7,12.8l-3.2,7.1l-7.8-21.5c-3-8.3-10.9-13.8-19.7-13.8c-8.2,0-15.7,4.8-19.1,12.3l-11.3,24.9l-0.6-1.3
		c-2.8-5.6-8.3-9-14.6-9s-11.8,3.4-14.6,9l-4.8,9.6c-3.5-2.1-7.3-3.3-11.3-3.3c-14.8,0-26.9,15.5-26.9,34.6c0,17.4,10,31.8,23,34.2
		V312h-30.8v7.7h96c2.1,0,3.8,1.7,3.8,3.8c0,2.1-1.7,3.8-3.8,3.8h-38.4c-6.4,0-11.5,5.2-11.5,11.5s5.2,11.5,11.5,11.5h57.6
		c2.1,0,3.8,1.7,3.8,3.8c0,6.4,5.2,11.5,11.5,11.5h19.2c2.1,0,3.8,1.7,3.8,3.8c0,2.1-1.7,3.8-3.8,3.8H553.6v7.7h149.8
		c6.4,0,11.5-5.2,11.5-11.5s-5.2-11.5-11.5-11.5h-19.2c-2.1,0-3.8-1.7-3.8-3.8c0-6.4-5.2-11.5-11.5-11.5h-57.6
		c-2.1,0-3.8-1.7-3.8-3.8s1.7-3.8,3.8-3.8h38.4c6.4,0,11.5-5.2,11.5-11.5c0-6.4-5.2-11.5-11.5-11.5h-23v-8.1
		c10.9-2.1,19.2-13.2,19.2-26.5H692V289h7.7v15.4H692c-4.2,0-7.7,3.4-7.7,7.7v7.7c0,4.2,3.4,7.7,7.7,7.7v23h23v-23h46.1v23h23v-23
		c4.2,0,7.7-3.4,7.7-7.7V312C791.8,307.8,788.3,304.3,784.1,304.3L784.1,304.3z M768.7,304.3H761V289h7.7V304.3z M753.4,289v15.4
		h-30.8V289H753.4z M776.4,269.8v11.5h-76.8v-11.5c0-2.1,1.7-3.8,3.8-3.8h69.2C774.7,265.9,776.4,267.7,776.4,269.8z M611.2,224.6
		c1.5-2.9,4.4-4.7,7.7-4.7s6.2,1.8,7.7,4.7l3.4,6.9l-8.8,19.3c-2.5,0.2-4.9,0.8-7.2,1.9c-1.5-6.6-4.4-12.5-8.4-16.8L611.2,224.6z
		 M569,262.1c0-14.8,8.6-26.9,19.2-26.9s19.2,12.1,19.2,26.9c0,13-6.6,23.8-15.4,26.3v-21.2l10.8-14.3l-6.1-4.6l-4.6,6.1v-3.8h-7.7
		v16.9l-4.4-7.3l-6.6,4l11,18.3v6.1C575.6,285.9,569,275.1,569,262.1z M592,312v-15.8c4-0.7,7.7-2.6,10.9-5.3
		c3.4,6.8,9.3,11.6,16,13v8.1L592,312L592,312z M626.6,296v-22.4h-7.7V296c-4.6-1.5-8.5-5.7-10.4-11.4c4-6,6.5-13.9,6.5-22.5
		c0-0.4,0-0.7,0-1.1c2.4-1.7,5-2.7,7.7-2.7c8.5,0,15.4,8.6,15.4,19.2C638.1,286.4,633.2,293.8,626.6,296z M644.8,269.8
		c-2.2-8.7-8.1-15.5-15.6-18.1l23.1-50.9c2.2-4.7,6.9-7.8,12.1-7.8c5.6,0,10.6,3.5,12.5,8.8l10.5,29L670,269.9h-25.2V269.8z
		 M678.6,269.8l23.6-53.2c2.2-5,7.2-8.2,12.7-8.2s10.5,3.2,12.7,8.2l18.5,41.7h-42.7c-6.4,0-11.5,5.2-11.5,11.5H678.6z M707.3,289
		h7.7v15.4h-7.7V289z M707.3,342.8h-7.7v-15.4h7.7V342.8z M776.4,342.8h-7.7v-15.4h7.7V342.8z M691.9,319.7V312h92.2v7.7H691.9z"/>
	<path class="st1" d="M592,189.1c12.7,0,23-10.3,23-23s-10.3-23-23-23s-23,10.3-23,23S579.3,189.1,592,189.1z M592,150.7
		c8.5,0,15.4,6.9,15.4,15.4s-6.9,15.4-15.4,15.4s-15.4-6.9-15.4-15.4C576.7,157.6,583.6,150.7,592,150.7z"/>
	<path class="st1" d="M684.2,169.9h30.7c2.1,0,3.8,1.7,3.8,3.8s-1.7,3.8-3.8,3.8s-3.8-1.7-3.8-3.8h-7.7c0,6.4,5.2,11.5,11.5,11.5
		s11.5-5.2,11.5-11.5c0-6.4-5.2-11.5-11.5-11.5H695c0.4-1.2,0.7-2.5,0.7-3.8c0-6.4-5.2-11.5-11.5-11.5s-11.5,5.2-11.5,11.5h7.7
		c0-2.1,1.7-3.8,3.8-3.8s3.8,1.7,3.8,3.8s-1.7,3.8-3.8,3.8h-26.9h-11.5v7.7h11.5H684.2z"/>
	<path class="st1" d="M791.8,196.8c0-6.4-5.2-11.5-11.5-11.5s-11.5,5.2-11.5,11.5h7.7c0-2.1,1.7-3.8,3.8-3.8s3.8,1.7,3.8,3.8
		s-1.7,3.8-3.8,3.8h-34.6v7.7h34.6C786.6,208.3,791.8,203.2,791.8,196.8z"/>
	<path class="st1" d="M553.6,162.2h7.7v7.7h-7.7V162.2z"/>
	<path class="st1" d="M562.2,190.5l5.4-5.4l5.4,5.4l-5.4,5.4L562.2,190.5z"/>
	<path class="st1" d="M588.2,196.8h7.7v7.7h-7.7V196.8z"/>
	<path class="st1" d="M611,190.5l5.4-5.4l5.4,5.4l-5.4,5.4L611,190.5z"/>
	<path class="st1" d="M622.8,162.2h7.7v7.7h-7.7V162.2z"/>
</g>
<circle class="st2" cx="256" cy="256.5" r="216"/>
<g id="Multi-function_room_with_pantry" class="st0">
	<g class="st3">
		<path class="st4" d="M136.2,201.5v11.3c0,2.2,1.8,4,4,4s4-1.8,4-4v-11.3c0-2.2-1.8-4-4-4C138,197.6,136.2,199.3,136.2,201.5z"/>
		<path class="st5" d="M140.2,217.8c-2.7,0-5-2.2-5-5v-11.3c0-2.7,2.2-5,5-5s5,2.2,5,5v11.3C145.1,215.6,142.9,217.8,140.2,217.8z
			 M140.2,198.6c-1.6,0-3,1.3-3,3v11.3c0,1.6,1.3,3,3,3s3-1.3,3-3v-11.3C143.1,199.9,141.8,198.6,140.2,198.6z"/>
	</g>
	<g class="st3">
		<path class="st4" d="M140.2,267.1c2.2,0,4-1.8,4-4v-11.3c0-2.2-1.8-4-4-4s-4,1.8-4,4v11.3C136.2,265.3,138,267.1,140.2,267.1z"/>
		<path class="st5" d="M140.2,268.1c-2.7,0-5-2.2-5-5v-11.3c0-2.7,2.2-5,5-5s5,2.2,5,5v11.3C145.1,265.9,142.9,268.1,140.2,268.1z
			 M140.2,248.8c-1.6,0-3,1.3-3,3v11.3c0,1.6,1.3,3,3,3s3-1.3,3-3v-11.3C143.1,250.1,141.8,248.8,140.2,248.8z"/>
	</g>
	<g class="st3">
		<path class="st4" d="M381.8,264h-10.6c0.4-1.1,0.6-2.3,0.7-3.6h4.5c5.1,0,9.3-4.2,9.3-9.3v-4.7c0-5.1-4.2-9.3-9.3-9.3H372v-0.7
			c0-2.8-2.3-5.1-5.1-5.1H344c-2.8,0-5.1,2.3-5.1,5.1v23.4c0,1.5,0.2,2.9,0.7,4.2h-6.9v-62.8c0-4.8-3.9-8.8-8.8-8.8h-98.8v-13.8
			c0-2.2-1.8-4-4-4s-4,1.8-4,4v52.2h-88.4v-82.2c0-1.9,1.5-3.4,3.4-3.4h81.6c1.9,0,3.4,1.5,3.4,3.4v11.3c0,2.2,1.8,4,4,4s4-1.8,4-4
			v-11.3c0-6.2-5.1-11.3-11.3-11.3h-81.6c-6.2,0-11.3,5.1-11.3,11.3v214.9c0,6.2,5.1,11.3,11.3,11.3h89c0.1,0,0.2,0,0.3,0H376
			c5.3,0,9.7-4.3,9.7-9.7v-17.5c0-2.2-1.8-4-4-4s-4,1.8-4,4v17.5c0,1-0.8,1.8-1.8,1.8H225.2v-78.3h152.6V329c0,2.2,1.8,4,4,4
			s4-1.8,4-4v-41.4c3.2-1.5,5.4-4.7,5.4-8.4v-6.1C391.1,268.1,386.9,264,381.8,264L381.8,264z M371.9,245h4.4c0.8,0,1.4,0.6,1.4,1.4
			v4.7c0,0.8-0.6,1.4-1.4,1.4h-4.4V245z M217.3,366.8h-85c-1.9,0-3.4-1.5-3.4-3.4V238.7h88.4L217.3,366.8L217.3,366.8z M346.8,239.1
			H364v20.6c0,1.7-0.8,3.2-2.1,4.2h-13.1c-1.3-1-2.1-2.6-2.1-4.2v-20.6H346.8z M225.2,200.3H324c0.5,0,0.8,0.4,0.8,0.8V264h-99.6
			L225.2,200.3z M383.2,279.3c0,0.7-0.6,1.3-1.3,1.3H225.2v-8.7h156.7c0.7,0,1.3,0.6,1.3,1.3L383.2,279.3L383.2,279.3z"/>
		<path class="st5" d="M221.2,375.8h-89c-6.8,0-12.3-5.5-12.3-12.3v-215c0-6.8,5.5-12.3,12.3-12.3h81.6c6.8,0,12.3,5.5,12.3,12.3
			v11.3c0,2.7-2.2,5-5,5s-5-2.2-5-5v-11.3c0-1.3-1.1-2.4-2.4-2.4h-81.6c-1.3,0-2.4,1.1-2.4,2.4v81.2h86.4v-51.2c0-2.7,2.2-5,5-5
			s5,2.2,5,5v12.8h97.8c5.4,0,9.8,4.4,9.8,9.8V263h4.5c-0.2-1.1-0.4-2.1-0.4-3.2v-23.4c0-3.4,2.7-6.1,6.1-6.1h22.8
			c3.3,0,6,2.6,6.1,5.8h3.5c5.7,0,10.3,4.6,10.3,10.3v4.7c0,5.7-4.6,10.3-10.3,10.3h-3.5c-0.1,0.5-0.2,1-0.3,1.6h9.3
			c5.6,0,10.2,4.6,10.2,10.2v6.1c0,3.8-2.1,7.2-5.4,9V329c0,2.7-2.2,5-5,5s-5-2.2-5-5v-39.5H226.2v76.3H376c0.4,0,0.8-0.3,0.8-0.8
			v-17.5c0-2.7,2.2-5,5-5s5,2.2,5,5V365c0,5.9-4.8,10.7-10.7,10.7H221.5C221.5,375.8,221.3,375.8,221.2,375.8z M132.2,138.2
			c-5.7,0-10.3,4.6-10.3,10.3v214.9c0,5.7,4.6,10.3,10.3,10.3h89c0.1,0,0.1,0,0.2,0H376c4.8,0,8.7-3.9,8.7-8.7v-17.5
			c0-1.6-1.3-3-3-3s-3,1.3-3,3V365c0,1.5-1.2,2.8-2.8,2.8H225.2l-1-1v-78.3l1-1h152.6l1,1V329c0,1.6,1.3,3,3,3s3-1.3,3-3v-41.4
			l0.6-0.9c2.9-1.3,4.8-4.3,4.8-7.5v-6.1c0-4.5-3.7-8.2-8.2-8.2h-10.6l-0.9-1.3c0.4-1.1,0.6-2.2,0.6-3.3l1-1h4.5
			c4.6,0,8.3-3.7,8.3-8.3v-4.7c0-4.6-3.7-8.3-8.3-8.3h-4.4l-1-1v-0.7c0-2.3-1.8-4.1-4.1-4.1H344c-2.3,0-4.1,1.8-4.1,4.1v23.4
			c0,1.3,0.2,2.6,0.6,3.9l-0.9,1.3h-6.9l-1-1v-62.8c0-4.3-3.5-7.8-7.8-7.8h-98.8l-1-1v-13.8c0-1.6-1.3-3-3-3s-3,1.3-3,3v52.2l-1,1
			h-88.4l-1-1v-82.2c0-2.4,2-4.4,4.4-4.4h81.6c2.4,0,4.4,2,4.4,4.4v11.3c0,1.6,1.3,3,3,3s3-1.3,3-3v-11.3c0-5.7-4.6-10.3-10.3-10.3
			L132.2,138.2L132.2,138.2z M217.3,367.8h-85c-2.4,0-4.4-2-4.4-4.4V238.7l1-1h88.4l1,1v128.2L217.3,367.8z M129.8,239.7v123.8
			c0,1.3,1.1,2.4,2.4,2.4h84V239.7H129.8z M381.8,281.6H225.2l-1-1v-8.7l1-1h156.7c1.3,0,2.3,1,2.3,2.3v6.1
			C384.2,280.5,383.1,281.6,381.8,281.6z M226.2,279.6h155.7c0.2,0,0.3-0.1,0.3-0.3v-6.1c0-0.2-0.1-0.3-0.3-0.3H226.2V279.6z
			 M361.9,265h-13.1l-0.6-0.2c-1.6-1.2-2.5-3-2.5-5v-20.6l1-1H364l1,1v20.6c0,2-0.9,3.8-2.5,5L361.9,265z M349.2,263h12.3
			c0.9-0.8,1.4-2,1.4-3.2v-19.6h-15.2v19.6C347.8,261,348.3,262.2,349.2,263z M324.8,265h-99.6l-1-1v-63.6l1-1H324
			c1,0,1.8,0.8,1.8,1.8V264L324.8,265z M226.2,263h97.6v-61.6h-97.6L226.2,263L226.2,263z M376.4,253.5H372l-1-1V245l1-1h4.4
			c1.3,0,2.4,1.1,2.4,2.4v4.7C378.8,252.4,377.7,253.5,376.4,253.5z M372.9,251.5h3.4c0.2,0,0.4-0.2,0.4-0.4v-4.7
			c0-0.2-0.2-0.4-0.4-0.4h-3.4V251.5z"/>
	</g>
	<g class="st3">
		<path class="st4" d="M290.8,209.8h-49.3c-3.4,0-6.1,2.7-6.1,6.1v32.3c0,3.4,2.7,6.1,6.1,6.1h49.3c3.4,0,6.1-2.7,6.1-6.1v-32.3
			C296.9,212.5,294.2,209.8,290.8,209.8z M289,246.3h-45.7v-28.6H289V246.3z"/>
		<path class="st5" d="M290.8,255.2h-49.3c-3.9,0-7.1-3.2-7.1-7.1v-32.3c0-3.9,3.2-7.1,7.1-7.1h49.3c1.9,0,3.7,0.7,5,2.1
			c1.3,1.3,2.1,3.1,2.1,5v32.3C297.9,252,294.7,255.2,290.8,255.2z M241.5,210.8c-2.8,0-5.1,2.3-5.1,5.1v32.3c0,2.8,2.3,5.1,5.1,5.1
			h49.3c2.8,0,5.1-2.3,5.1-5.1v-32.3c0-1.4-0.5-2.6-1.5-3.6s-2.2-1.5-3.6-1.5H241.5z M289,247.3h-45.7l-1-1v-28.6l1-1H289l1,1v28.6
			L289,247.3z M244.3,245.3H288v-26.6h-43.7V245.3z"/>
	</g>
	<g class="st3">
		<circle class="st4" cx="311.5" cy="217.8" r="4"/>
		<path class="st5" d="M311.5,222.8c-2.8,0-5-2.3-5-5c0-2.8,2.3-5,5-5s5,2.3,5,5C316.5,220.6,314.3,222.8,311.5,222.8z M311.5,214.7
			c-1.7,0-3,1.4-3,3s1.4,3,3,3s3-1.4,3-3S313.2,214.7,311.5,214.7z"/>
	</g>
	<g class="st3">
		<circle class="st4" cx="311.5" cy="234" r="4"/>
		<path class="st5" d="M311.5,239c-2.8,0-5-2.3-5-5c0-2.8,2.3-5,5-5s5,2.3,5,5C316.5,236.8,314.3,239,311.5,239z M311.5,230.9
			c-1.7,0-3,1.4-3,3s1.4,3,3,3s3-1.4,3-3S313.2,230.9,311.5,230.9z"/>
	</g>
	<rect x="217" y="174.5" class="st1" width="8.2" height="6.1"/>
	<rect x="217" y="159.5" class="st1" width="8.3" height="4.6"/>
	<rect x="377.7" y="327.2" class="st1" width="8.2" height="6.1"/>
	<rect x="377.6" y="343.5" class="st1" width="8.2" height="4.8"/>
</g>
<g id="Dance_Studio" class="st0">
	<path class="st6" d="M314.4,264.9l38.4,3.9c5.9,0.6,10.9-4.4,10.3-10.3l0,0c-0.6-6.2-7-10-12.8-7.8L314.4,264.9z"/>
	<path class="st6" d="M318.8,257.3l19.3-14.8c3-2.3,3-6.5,0.1-8.8l0,0c-3.1-2.3-7.7-1.2-9.3,2.2L318.8,257.3z"/>
	<path class="st6" d="M256.2,192c0,0,31.1,42.6,31.1,95.9c0,0-2.3,42.2,36,86c1.8,2.1,4.5,3.2,7.2,3.2l0,0c6,0,10.5-5.4,9.5-11.3
		c-1.7-9.8-4.5-24-8.4-34.5c0,0,10.2-10.8,8.9-36.5c0,0-1.7-18.9-22.7-19.5c0,0-10.8-23.4-7.2-59.9c0,0,10.2-74.3-29.9-90.4"/>
	<path class="st6" d="M285.9,267.8c0,0,12.4,2,28.5-2.9"/>
	<path class="st6" d="M213.5,266.3c-5.1,10.3-4.8,23.3-4.4,28.5c0.1,1.5,0.2,2.3,0.2,2.3c0.7,5.4,1.1,11.2,1.1,17.2
		c0,1.1,0,2.2,0,3.2c0,7.6-0.3,15.2-0.9,22.4C208,360.3,205,377,205,377h-24c-8.1-14.9-10.6-30.8-10.1-45.8
		c0.2-6.9,1.1-13.7,2.4-20.1c0,0,0-0.1,0-0.2c1.6-7.8,3.7-15.1,6-21.4c5.3-14.9,11.2-24.7,11.2-24.7l17.4-153.1h44.3
		C296.2,157.3,213.5,266.3,213.5,266.3z"/>
	<path class="st6" d="M190.8,264.9c0,0,6.6,6,20.9,5.8"/>
	<path class="st6" d="M184.6,277.1c0,0,10.7,6.1,24.6,6"/>
	<path class="st6" d="M193.5,263.7L171.8,232c-3.3-4.9-10.8-5.8-15.5-1.8l0,0c-4.8,4.1-4,11.3,1.7,14.3L193.5,263.7z"/>
	<path class="st6" d="M210.8,269l39.3,5.2c6.1,0.8,11-4,10.2-10l0,0c-0.9-6.2-7.5-10.3-13.3-8.2L210.8,269z"/>
	<path class="st6" d="M210.5,317.6c0,7.6-0.3,15.2-0.8,22.4c-5.3-2.8-12.7-7.2-20.3-13.9c-4.7-4.1-9.4-9-13.7-14.9
		c-0.1,0-0.1-0.1-0.1-0.2c0.1,0,0.1,0,0.2,0c1.5-7.8,3.5-15.1,5.7-21.4c1.2,4.2,4.1,10.6,11.5,17.1c3.7,3.3,8.6,6.5,14.9,9.6
		C208.6,316.7,209.5,317.1,210.5,317.6z"/>
	<path class="st6" d="M210.5,314.3c-0.9,0.7-1.9,1.3-2.8,2c-6.2,4.2-12.4,7.4-18.3,9.8c-5.8,2.4-11.3,4-16,5.2
		c0.2-6.9,1.1-13.7,2.3-20.1c-0.1,0-0.1-0.1-0.1-0.2c0.1,0,0.1,0,0.2,0c6.9-0.9,12.6-2.5,17.2-4.4c8.7-3.6,13.7-8.4,16.4-11.9
		c0.1,1.5,0.2,2.3,0.2,2.3C210,302.6,210.4,308.4,210.5,314.3z"/>
	<path class="st6" d="M171.1,338.6c0,0,7.6,11.8,25.8,11.8l12.7-10.4"/>
	<path class="st6" d="M306.3,350.4c0,0,9.6,0.6,4.8-15c0,0-11.1-29.8-4.8-54.2l11.6-6c0,0-5,8.2-30.6,7.8"/>
	<path class="st6" d="M287.3,294.8c0,0,9.5,16.8,20,27"/>
	<path class="st6" d="M293.1,321.8c0,0,5.4,7.7,18,13.7"/>
</g>
<g id="Box_Cricket" class="st0">
	<path class="st1" d="M174.8,186.3c0-14.3-11.1-14.4-14.8-14.4h-5c-7.1,0-15.3,1.7-15.3,15V360c0,2.2,1.8,4,4,4s4-1.8,4-4V187
		c0-6.3,1.4-6.9,7.3-6.9h1.7h3.3c5.5,0,6.7,1.2,6.7,6.3v130c0,14.6,0,29.1,0,43.7c0,2.2,1.8,4,4,4l0,0c2.2,0,4-1.8,4-4
		c-0.1-14.5-0.1-29.1-0.1-43.6L174.8,186.3z"/>
	<path class="st1" d="M278.3,336.6v-11.7l68.8-95.3c2.4-3.3,3.4-7.4,2.7-11.5c-0.1-0.6-0.3-1.1-0.4-1.6c0-0.1,0-0.2,0-0.3
		c0,0,0-0.1-0.1-0.1c-1-3.2-2.9-6.1-5.7-8.1l-4.3-3.1l32-44.3c1.9-2.6,2.7-5.8,2.1-9c-0.5-3.2-2.2-6-4.9-7.9l-5.7-4.2
		c-2.6-1.9-5.8-2.7-9-2.1c-3.2,0.5-6,2.2-7.9,4.9l-32,44.3l-4.3-3.1c-3.3-2.4-7.4-3.4-11.5-2.7s-7.6,2.9-10,6.2l-9.8,13.5v-14.2
		c0-9.5-5-14.3-14.9-14.3h-5.1c-7.6,0-15.3,1.8-15.3,15v62.3l-16.6,23v-85.9c0-9.5-5-14.3-14.8-14.3h-5c-7.2,0-15.4,1.7-15.4,15v134
		l-3.5,4.8c-5,6.9-3.4,16.6,3.5,21.5l0,0V360c0,2.2,1.8,4,4,4s4-1.8,4-4v-7l26,18.7c2.7,1.9,5.8,2.9,9,2.9c0.8,0,1.7-0.1,2.5-0.2
		c4.1-0.7,7.6-2.9,10-6.2l23.3-32.3v0.5c0,7.6,0,14.5,0,23.5c0,2.2,1.8,4,4,4l0,0c2.2,0,4-1.8,4-4.1
		C278.2,351,278.3,344.1,278.3,336.6z M352.4,147c0.6-0.9,1.6-1.5,2.7-1.6c1.1-0.2,2.1,0.1,3,0.7l5.8,4.2c0.9,0.6,1.5,1.6,1.6,2.7
		c0.2,1.1-0.1,2.1-0.7,3l-32,44.3l-12.4-8.9L352.4,147z M308.8,192.9L308.8,192.9l22.5,16.3l0,0l7.6,5.5c0.3,0.2,0.5,0.5,0.7,0.8
		l-42.1,15l4.7-41.5c0.9,0.2,1.9,0.6,2.7,1.1L308.8,192.9z M251.2,186.9c0-6.3,1.4-6.9,7.2-6.9h5.1c5.5,0,6.8,1.2,6.8,6.3v25.4
		l-19,26.4L251.2,186.9L251.2,186.9z M199.4,186.9c0-6.3,1.4-6.9,7.3-6.9h5.1c5.4,0,6.7,1.2,6.7,6.3v97l-19,26.4
		C199.4,309.7,199.4,186.9,199.4,186.9z M240.4,363.6c-1.1,1.6-2.8,2.6-4.8,3c-1.9,0.3-3.9-0.2-5.5-1.3l-34-24.6
		c-3.3-2.4-4-7-1.7-10.3l99.2-137.3l-4.8,42.8c-0.2,1.4,0.4,2.7,1.5,3.6c0.7,0.6,1.6,0.9,2.5,0.9c0.5,0,0.9-0.1,1.4-0.2l47.1-16.8
		c-0.2,0.5-0.3,1-0.7,1.5L240.4,363.6z"/>
	<path class="st1" d="M153,157.5v3.4c0,4.5,3.6,8.1,8.1,8.1h35.5c4.5,0,8.1-3.6,8.1-8.1v-3.4h8.5v3.4c0,4.5,3.6,8.1,8.1,8.1h35.5
		c4.5,0,8.1-3.6,8.1-8.1v-3.4h12.6c2.2,0,4-1.8,4-4s-1.8-4-4-4H265V146c0-4.5-3.6-8.1-8.1-8.1h-35.5c-4.5,0-8.1,3.6-8.1,8.1v3.4
		h-8.5V146c0-4.5-3.6-8.1-8.1-8.1h-35.5c-4.5,0-8.1,3.6-8.1,8.1v3.4h-12.6c-2.2,0-4,1.8-4,4s1.8,4,4,4L153,157.5L153,157.5z
		 M256.9,146v14.8l0,0h-35.5v-14.9L256.9,146z M161.1,146h35.5v14.8l0,0h-35.5V146z"/>
	<path class="st1" d="M361.2,300.9c-15.6-11.2-37.4-7.7-48.7,7.8c-11.3,15.6-7.7,37.4,7.9,48.7c6,4.3,13.1,6.6,20.4,6.6
		c1.9,0,3.7-0.2,5.6-0.5c9.2-1.5,17.3-6.5,22.7-14C380.3,334,376.8,312.2,361.2,300.9z M362.5,344.9c-8.7,12-25.5,14.7-37.4,6
		c-5.8-4.2-9.6-10.4-10.8-17.5c-1.1-7.1,0.5-14.2,4.7-20c5.2-7.3,13.4-11.1,21.8-11.1c5.4,0,10.9,1.6,15.7,5.1
		C368.4,316.1,371.1,332.9,362.5,344.9z"/>
	<rect x="139.7" y="357.5" class="st1" width="8" height="6.8"/>
	<rect x="166.7" y="357.5" class="st1" width="8" height="6.8"/>
	<rect x="191.2" y="357.5" class="st1" width="8" height="6.8"/>
	<rect x="270" y="357.5" class="st1" width="8" height="6.8"/>
	<rect x="136.4" y="149.4" class="st1" width="4.4" height="8"/>
	<rect x="277.1" y="149.5" class="st1" width="4.5" height="8"/>
</g>
<g id="Well-designed_lobbies">
	<path class="st7" d="M369.6,283.1h-25l3.7-22h-22.7v-12.8l8.3-6.2c13.2-9.9,21-25.6,21-42c0-11.2-3.5-21.9-10-30.9L322,137.6
		l-23,31.6c-6.6,9-10,19.7-10,30.9c0,16.4,7.9,32.2,21,42l8.3,6.2v12.8h-22.7l3.7,22h-56.6c-1.6-4.4-5.7-7.3-10.4-7.3h-2.9
		c-4.6,0-8.5,3.1-9.7,7.3h-7.1l3.7-22h-22.7v-12.8l8.3-6.2c13.2-9.9,21-25.6,21-42c0-11.2-3.5-21.9-10-30.9L190,137.6l-22.9,31.5
		c-6.6,9-10,19.7-10,30.9c0,16.4,7.9,32.2,21,42l8.3,6.2V261h-22.7l3.7,22h-1.6c-1.6-4.4-5.7-7.3-10.4-7.3h-2.9
		c-5.6,0-10.1,4.5-10.1,10.1c0,0.9,0.1,1.8,0.4,2.7l10,36.8c0.9,3.2,3.8,5.4,7.1,5.4h15.5v25.7h-14.7v7.3h36.7v-7.3h-14.7v-25.7h22
		c4,0,7.3-3.3,7.3-7.3v-7.3c0-4-3.3-7.3-7.3-7.3h-30.3l-6.1-18.3h52l9.5,34.9c0.9,3.2,3.8,5.4,7.1,5.4h15.5v25.7h-14.7v7.3h36.7
		v-7.3h-14.7v-25.7h22c4,0,7.3-3.3,7.3-7.3v-7.3c0-4-3.3-7.3-7.3-7.3h-30.3l-6.1-18.3H301l9.5,34.9c0.9,3.2,3.8,5.4,7.1,5.4H333
		v25.7h-14.7v7.3H355v-7.3h-14.7v-25.7h22c4,0,7.3-3.3,7.3-7.3v-7.3c0-4-3.3-7.3-7.3-7.3H332l-6.1-18.3h43.8L369.6,283.1
		L369.6,283.1z M314.4,236.2c-11.3-8.5-18.1-22-18.1-36.2c0-9.6,3-18.8,8.6-26.6l17-23.4l17,23.4c5.7,7.8,8.6,17,8.6,26.6
		c0,14.1-6.8,27.7-18.1,36.2l-3.9,2.9v-16.5l13.2-9.9l-4.4-5.9l-8.8,6.6v-27.8l6.3-6.3l-5.2-5.2l-8.4,8.4V195l-8.8-6.6l-4.4,5.9
		l13.2,9.9V239L314.4,236.2z M182.4,236.2c-11.3-8.5-18.1-22-18.1-36.2c0-9.6,3-18.8,8.6-26.6l17-23.4l17,23.4
		c5.7,7.8,8.6,17,8.6,26.6c0,14.1-6.8,27.7-18.1,36.2l-3.9,2.9v-16.5l13.2-9.9l-4.4-5.9l-8.8,6.6v-27.8l6.3-6.3l-5.2-5.2l-8.4,8.4
		V195l-8.8-6.6l-4.4,5.9l13.2,9.9V239L182.4,236.2z M339.6,268.5l-2.4,14.7h-13.8c-1.6-4.4-5.7-7.3-10.4-7.3h-2.9
		c-1.6,0-3.1,0.4-4.4,1.1l-1.4-8.4h35.3L339.6,268.5L339.6,268.5z M172.4,268.5h35.3l-2.4,14.7h-30.5L172.4,268.5z M149.8,286.7
		c-0.1-0.2-0.1-0.5-0.1-0.7c0-1.5,1.3-2.8,2.8-2.8h2.9c1.6,0,3,1,3.5,2.5l7.7,23.2h-10.8L149.8,286.7z M204.7,316.1v7.3h-44.9
		l-2-7.3H204.7z M226.8,286.7c-0.1-0.2-0.1-0.5-0.1-0.7c0-1.5,1.3-2.8,2.8-2.8h2.9c1.6,0,3,1,3.5,2.5l7.7,23.2h-10.8L226.8,286.7z
		 M281.7,316.1v7.3h-44.9l-2-7.3H281.7z M307.4,286.7c-0.1-0.2-0.1-0.5-0.1-0.7c0-1.5,1.3-2.8,2.8-2.8h2.9c1.6,0,3,1,3.5,2.5
		l7.7,23.2h-10.8L307.4,286.7z M362.3,316.1v7.3h-44.9l-2-7.3H362.3z"/>
	<path class="st7" d="M237.7,187.8h-7.3v7.3h7.3v29.3H223v7.3h14.7V261H223v7.3h66V261h-14.7v-29.3H289v-7.3h-14.7v-29.3h7.3v-7.3
		h-7.3v-29.3h29.3v-7.3h-95.3v7.3h29.3v29.3L237.7,187.8L237.7,187.8z M267,261.1h-22v-29.3h22V261.1z M267,224.5h-22v-29.3h22
		V224.5z M267,187.8h-22v-29.3h22V187.8z"/>
</g>
<g id="STP__x28_Sewage_treatment_plant_x29_" class="st0">
	<path class="st1" d="M294.3,261c-3.3-1.8-5.5-5.5-5.5-9.5c0-2.2-1.5-3.7-3.7-3.7h-14.6c-2.2,0-3.7,1.5-3.7,3.7
		c0,11.7,5.9,22.3,16.5,28.6c0.7,0.4,1.1,0.7,1.8,0.7c0.4,0,0.7,0,0.7,0c1.1-0.4,1.8-0.7,2.2-1.8l7.3-12.8
		C296.5,264.3,296.1,262.1,294.3,261z M284,271.6c-5.1-4.4-8.8-10.2-9.5-16.5h7.3c0.7,4,2.9,7.7,5.9,10.2L284,271.6z"/>
	<path class="st1" d="M313.3,280.4c0.4,0,0.7,0,1.1,0c0.7,0,1.1,0,1.8-0.4c5.1-2.9,9.2-7,12.1-12.1c1.1-1.8,0.4-4-1.5-5.1
		c-1.8-1.1-4-0.4-5.1,1.5c-1.5,2.9-3.7,5.1-6.2,7.3l-3.7-6.6c2.9-2.6,5.1-5.9,5.9-9.9H329c2.2,0,3.7-1.5,3.7-3.7s-1.5-3.7-3.7-3.7
		h-14.6c-2.2,0-3.7,1.5-3.7,3.7c0,4-2.2,7.7-5.1,9.2c-0.7,0.4-1.5,1.1-1.8,2.2c-0.4,1.1,0,1.8,0.4,2.9l7.3,12.8
		C311.8,279.3,312.6,280,313.3,280.4z"/>
	<path class="st1" d="M305.6,242.3c0.4,0.4,1.1,0.4,1.5,0.4c1.1,0,2.6-0.7,3.3-1.8l7.3-12.8c1.1-1.8,0.4-4-1.5-5.1
		c-5.1-2.9-10.6-4.4-16.5-4.4c-2.2,0-3.7,1.5-3.7,3.7s1.5,3.7,3.7,3.7c3.3,0,6.6,0.7,9.5,1.8l-3.7,6.6c-3.7-1.1-7.7-1.1-11.3,0
		l-5.9-9.9c-1.1-1.8-3.3-2.2-5.1-1.5c-1.8,1.1-2.2,3.3-1.5,5.1l7.3,12.8c1.1,1.8,2.9,2.2,4.8,1.5
		C297.9,240.5,301.6,240.5,305.6,242.3z"/>
	<path class="st1" d="M171.6,324.7v-7.3v-1.8c0-7.3,5.1-13.9,12.1-15.7c1.8-0.4,3.3-2.6,2.6-4.4c-0.4-1.8-2.6-3.3-4.4-2.6
		c-10.2,2.6-17.6,12.1-17.6,22.7v1.8v7.3c0,2.2,1.5,3.7,3.7,3.7S171.6,326.9,171.6,324.7z"/>
	<path class="st1" d="M226.5,291.7c2.2,0,3.7-1.5,3.7-3.7v-3.7h3.7c2.2,0,3.7-1.5,3.7-3.7s-1.5-3.7-3.7-3.7h-5.5
		c-3.3,0-5.5,2.2-5.5,5.5v5.5C222.9,290.3,224.3,291.7,226.5,291.7z"/>
	<path class="st1" d="M226.5,313.7c2.2,0,3.7-1.5,3.7-3.7v-7.3c0-2.2-1.5-3.7-3.7-3.7s-3.7,1.5-3.7,3.7v7.3
		C222.9,312.2,224.3,313.7,226.5,313.7z"/>
	<path class="st1" d="M256.9,204.3L256.9,204.3c-2.2,0-3.7,1.8-3.7,3.7s0,3.7,0,5.1c0,2.2,1.5,3.7,3.7,3.7l0,0
		c1.8,0,3.7-1.5,3.7-3.7c0-1.8,0-3.7,0-5.5S259.1,204.3,256.9,204.3z"/>
	<path class="st1" d="M252.9,192.2c0,2.2,1.8,3.7,4,3.3c2.2,0,3.7-1.8,3.3-4c-1.1-15.7-3.3-31.1-7.3-46.1h93.3
		c-8.8,35.5-10.2,73.9-3.7,111.3l12.4,68.8c0.4,1.8,1.8,2.9,3.7,2.9c0.4,0,0.4,0,0.7,0c1.8-0.4,3.3-2.2,2.9-4.4l-12.1-68.8
		c-6.6-36.2-5.1-73.9,3.7-109.1c0.4-1.8,0-4-1.5-5.5c-1.5-1.8-3.3-2.6-5.1-2.6H252c-1.8,0-3.7,0.7-5.1,2.6c-1.5,1.5-1.8,3.7-1.5,5.9
		C249.6,161.1,251.8,176.4,252.9,192.2z"/>
	<path class="st1" d="M365.3,338.6c-0.4-1.8-2.2-3.3-4.4-2.9c-1.8,0.4-3.3,2.2-2.9,4.4l3.3,17.6h-46.9c-2.2,0-3.7,1.5-3.7,3.7
		s1.5,3.7,3.7,3.7h51.2c1.1,0,2.2-0.4,2.9-1.5c0.7-0.7,1.1-1.8,0.7-2.9L365.3,338.6z"/>
	<path class="st1" d="M299.7,357.6h-61.5l18.3-101c1.5-8.4,2.6-17.2,3.3-25.6c0-2.2-1.5-3.7-3.3-4c-2.2,0-3.7,1.5-4,3.3
		c-0.7,8.4-1.8,16.8-3.3,24.9l-1.5,7.3h-13.9c-2.2,0-3.7,1.5-3.7,3.7s1.5,3.7,3.7,3.7h12.8l-13.2,72.8l-5.5-2.9
		c-4-1.8-8.4-2.2-12.4-1.5v-68.5h3.3c2.2,0,3.7-1.5,3.7-3.7s-1.5-3.7-3.7-3.7h-3.3c-4,0-7.3,3.3-7.3,7.3h-7.7c-3.7,0-7,3.3-7,7v0.4
		h-8.4c-9.2,0-17.9,3.7-24.9,9.9c-1.5,1.5-1.5,3.7,0,5.1c0.7,0.7,1.8,1.1,2.6,1.1c1.1,0,1.8-0.4,2.6-1.1c5.1-5.1,12.4-8.1,19.8-8.1
		h8.4v22h-0.4c-8.1,0-14.3,6.6-14.3,14.3v19.8c-3.3,0.7-6.2,0.7-9.5-0.7c-4-1.8-8.4-2.2-12.4-1.5v-25.6c0-2.9,0.4-5.9,1.5-8.8
		c0.7-1.8-0.4-4-2.2-4.8s-4,0.4-4.8,2.2c-1.1,3.7-1.8,7.3-1.8,11v28.2l-5.1,2.6c-1.8,0.7-2.6,2.9-1.5,4.8c1.1,1.8,2.9,2.6,4.8,1.5
		l7.3-3.7c3.7-1.8,7.7-1.8,11.7,0c5.5,2.6,12.1,2.6,17.6,0l0,0l0,0c3.7-1.8,7.7-1.8,11.7,0c5.9,2.6,12.1,2.6,17.6,0
		c3.7-1.8,7.7-1.8,11.3,0l7.3,3.7l-1.1,5.9l-2.9-1.5c-5.9-2.6-12.1-2.6-17.6,0c-3.7,1.8-7.7,1.8-11.7,0c-5.9-2.6-12.1-2.6-17.6,0
		c-3.7,1.8-7.7,1.8-11.7,0c-5.9-2.6-12.1-2.6-17.9,0l-7.3,3.7c-1.8,0.7-2.6,2.9-1.5,4.8c1.1,1.8,2.9,2.6,4.8,1.5l7.3-3.7
		c3.7-1.8,7.7-1.8,11.7,0c5.9,2.6,12.1,2.6,17.6,0c3.7-1.8,7.7-1.8,11.7,0c5.9,2.6,12.1,2.6,17.6,0c3.7-1.8,7.7-1.8,11.3,0l7.3,3.7
		c0,0,0.7,0.4,1.5,0.4l0,0l0,0l0,0h65.9c2.2,0,3.7-1.5,3.7-3.7S301.9,357.6,299.7,357.6z M200.9,277.1h7.3v36.6h-7.3V277.1z
		 M198.7,339.7c-4-1.8-8.4-2.2-12.4-1.5V321c0-3.7,3.3-7,7-7h0.4v0.4c0,3.7,3.3,7,7,7h7.7v18.3c0,0.4,0,0.7,0.4,1.1
		C205.3,341.2,202,341.2,198.7,339.7z"/>
	<path class="st1" d="M281.4,343c-2.2,0-3.7,1.5-3.7,3.7s1.5,3.7,3.7,3.7h7.3c2.2,0,3.7-1.5,3.7-3.7s-1.5-3.7-3.7-3.7H281.4z"/>
	<path class="st1" d="M255.8,328.4c-1.8-0.4-4,0.7-4.4,2.9l-2.9,14.6c-0.4,1.1,0,2.2,0.7,2.9c0.7,0.7,1.8,1.5,2.9,1.5h14.6
		c2.2,0,3.7-1.5,3.7-3.7s-1.5-3.7-3.7-3.7h-10.2l2.2-10.2C259.1,330.9,257.7,328.7,255.8,328.4z"/>
	<path class="st1" d="M330.1,167.3c0.4,0,0.7,0,0.7,0c1.5,0,3.3-1.1,3.7-2.9l1.8-7.3c0.4-1.1,0-2.2-0.7-3.3s-1.8-1.1-2.9-1.1h-7.3
		c-2.2,0-3.7,1.5-3.7,3.7s1.5,3.7,3.7,3.7h2.6l-0.7,2.9C326.8,164.7,327.9,166.6,330.1,167.3z"/>
	<rect x="299" y="357.6" class="st1" width="5.7" height="6.2"/>
	<rect x="309.4" y="357.7" class="st1" width="5.7" height="7.4"/>
	<rect x="218.1" y="262.4" class="st1" width="5" height="7.4"/>
	<rect x="230" y="262.5" class="st1" width="5" height="7.4"/>
	
		<rect x="252.5" y="223.6" transform="matrix(4.126417e-02 -0.9991 0.9991 4.126417e-02 18.5694 473.9277)" class="st1" width="7.4" height="7.3"/>
	
		<rect x="253" y="190.8" transform="matrix(0.9985 -5.505544e-02 5.505544e-02 0.9985 -10.3193 14.4253)" class="st1" width="7.3" height="7.4"/>
	<rect x="253.2" y="204.3" class="st1" width="7.4" height="4.1"/>
	<rect x="253.2" y="212.7" class="st1" width="7.4" height="4.1"/>
	
		<rect x="357.7" y="334.2" transform="matrix(0.983 -0.1837 0.1837 0.983 -55.9405 72.1408)" class="st1" width="7.4" height="7.6"/>
	
		<rect x="354.9" y="321.4" transform="matrix(0.983 -0.1837 0.1837 0.983 -53.6386 71.4095)" class="st1" width="7.4" height="7.6"/>
</g>
<g id="Solar_Photo-Voltaic_System" transform="translate(0,-280.06665)" class="st0">
	<path class="st1" d="M192.9,423.5c0,0,2.3,6.4,9.2,10.1c4.1,2.2,8.6,1.8,11.9,1c-0.1,3.1,0.3,6.9,2.6,10.3c2.3,3.2,5.5,4.6,8.3,5.5
		c-1.7,2.4-3.4,5.3-3.3,9.1c0,3.7,1.7,6.7,3.3,9.1c-2.8,0.9-6.1,2.3-8.3,5.5c-2.4,3.4-2.7,7.2-2.6,10.3c-3.3-0.7-7.7-1.2-11.9,1
		c-2.8,1.5-4.3,3.4-5.7,5.1c-1.4-1.8-3-3.6-5.7-5.1c-4.1-2.2-8.6-1.8-11.9-1c0.1-3.1-0.3-6.9-2.6-10.3c-2.3-3.2-5.5-4.6-8.3-5.5
		c1.7-2.4,3.4-5.3,3.3-9.1c0-3.7-1.7-6.7-3.3-9.1c2.8-0.9,6.1-2.3,8.3-5.5c2.4-3.5,2.7-7.4,2.6-10.5c2.2,0.5,4.7,1,7.5,0.6
		c5.1-0.6,3.9-8.3-1.1-7.4c-3.6,0.6-9.1-1.7-9.1-1.7c-2.8-1.3-5.9,1.2-5.2,4.3c0,0,0.4,1.8,0.5,4.1c0.1,2.3-0.4,5-1.3,6.3
		c-0.9,1.3-3.1,2.4-5.2,3c-2.2,0.6-3.9,0.6-3.9,0.6c-3.4,0.1-4.9,4.2-2.4,6.5c0,0,1.4,1.3,2.8,3.1c1.4,1.9,2.5,4.3,2.5,5.6v0.1
		c0,1.3-1.1,3.7-2.5,5.6s-2.8,3.1-2.8,3.1c-2.5,2.3-0.9,6.4,2.4,6.5c0,0,1.8,0.1,3.9,0.6c2.2,0.6,4.3,1.7,5.2,3c1,1.4,1.4,4,1.3,6.3
		c-0.1,2.3-0.5,4.1-0.5,4.1c-0.7,3,2.4,5.6,5.2,4.3c0,0,1.8-0.8,4.2-1.4c2.4-0.5,5.2-0.5,6.8,0.3c4.6,2.5,5.8,6,5.8,6
		c1.2,3.3,5.9,3.3,7,0c0,0,1.2-3.6,5.8-6c1.6-0.9,4.4-0.9,6.8-0.3c2.4,0.5,4.2,1.4,4.2,1.4c2.8,1.3,5.9-1.2,5.2-4.3
		c0,0-0.4-1.8-0.5-4.1c-0.1-2.3,0.4-5,1.3-6.3c0.9-1.3,3.1-2.4,5.2-3c2.2-0.6,3.9-0.6,3.9-0.6c3.4-0.1,4.9-4.2,2.4-6.5
		c0,0-1.4-1.3-2.8-3.1c-1.4-1.9-2.5-4.3-2.5-5.6v-0.1c0-1.3,1.1-3.7,2.5-5.6s2.8-3.1,2.8-3.1c2.5-2.3,0.9-6.4-2.4-6.5
		c0,0-1.8-0.1-3.9-0.6c-2.2-0.6-4.3-1.7-5.2-3c-1-1.4-1.4-4-1.3-6.3c0.1-2.3,0.5-4.1,0.5-4.1c0.7-3-2.4-5.6-5.2-4.3
		c0,0-1.8,0.8-4.2,1.4c-2.4,0.5-5.2,0.5-6.8-0.3c-4.6-2.5-5.8-6-5.8-6c-0.5-1.6-2.1-2.6-3.7-2.5C193.6,418.7,192,421.2,192.9,423.5
		L192.9,423.5z M196.4,440.9c-10.2,0-18.6,8.4-18.6,18.6s8.4,18.6,18.6,18.6c10.2,0,18.6-8.4,18.6-18.6S206.6,440.9,196.4,440.9z
		 M196.4,448.4c6.2,0,11.2,5,11.2,11.2s-4.9,11.2-11.2,11.2c-6.2,0-11.2-5-11.2-11.2C185.2,453.3,190.2,448.4,196.4,448.4z
		 M311.6,485.6c-0.9,0-1.7,0.4-2.3,1L257.1,535c-3.6,3.4,1.4,8.8,5.1,5.5l49.6-46.1L349,529v60.9c-24.9-0.1-49.6,0-74.5,0v-44.7
		c0-5-7.5-5-7.5,0v48.4c0,2.1,1.7,3.7,3.7,3.7h37.2v27.9c0,6.3-4.9,11.2-11.2,11.2h-85.6c-6.3,0-11.2-4.9-11.2-11.2v-16.8
		c0.1-5.1-7.6-5.1-7.4,0v16.8c0,10.3,8.4,18.6,18.6,18.6h85.6c10.3,0,18.6-8.4,18.6-18.6v-27.9h37.2c2.1,0,3.7-1.7,3.7-3.7v-57.7
		l4.9,4.6c3.7,3.6,8.9-2.1,5.1-5.5l-10-9.3v-36.4c0-2.1-1.7-3.7-3.7-3.7h-18.6c-2.1,0-3.7,1.7-3.7,3.7v3.7c-0.1,5,7.5,5,7.4,0H349
		v25.8l-34.7-32.2C313.6,485.9,312.6,485.6,311.6,485.6z M181.5,597.3h29.8c5.1,0.1,5.1-7.6,0-7.4h-11.2V575h44.6
		c5.1,0.1,5.1-7.6,0-7.4h-18.8l-1.3-18.6h13.2l1.1,8c0.5,5.1,8.3,4,7.4-1l-5.3-37.2c-0.3-1.8-1.8-3.2-3.7-3.2h-81.9
		c-5.2,0-5,7.5,0,7.5H170l-1.3,18.6h-12.8l1-6.9c0.4-2.4-1.5-4.5-3.9-4.3c-1.8,0.1-3.2,1.5-3.4,3.2l-5.3,37.2
		c-0.3,2.2,1.4,4.2,3.7,4.2h44.7V590h-11.2C176.4,589.9,176.6,597.3,181.5,597.3L181.5,597.3z M315.7,521.1c-1.2,0-2.4,0.7-3,1.7
		L297.3,546c-1.6,2.5,0.1,5.8,3.1,5.8h16.2L305,569.2c-2.7,4.1,3.4,8.2,6.2,4.1l15.4-23.2c1.7-2.5-0.1-5.8-3.1-5.8h-16.2l11.6-17.4
		C320.6,524.5,318.8,521.1,315.7,521.1L315.7,521.1z M177.5,522.9h15.1v18.6h-16.5L177.5,522.9z M200.1,522.9h15.1l1.3,18.6H200
		L200.1,522.9L200.1,522.9z M222.7,522.9H234l2.6,18.6H224L222.7,522.9z M154.8,548.9h13.3l-1.3,18.6h-14.6L154.8,548.9z
		 M175.6,548.9h17v18.6h-18.3L175.6,548.9z M200.1,548.9h17l1.3,18.6H200L200.1,548.9z"/>
	<rect x="330.2" y="492.8" class="st1" width="7.4" height="5.7"/>
	<rect x="241.7" y="567.6" class="st1" width="7.5" height="7.4"/>
	<rect x="208.2" y="589.9" class="st1" width="7.5" height="7.4"/>
	<rect x="177.7" y="590" class="st1" width="7.5" height="7.3"/>
	
		<rect x="149.6" y="530.5" transform="matrix(0.1376 -0.9905 0.9905 0.1376 -396.937 612.5369)" class="st1" width="7.4" height="7.4"/>
	<rect x="151.6" y="515.6" class="st1" width="7.4" height="7.5"/>
	
		<rect x="255.8" y="534" transform="matrix(0.7445 -0.6676 0.6676 0.7445 -292.714 310.6989)" class="st1" width="7.5" height="7.5"/>
	
		<rect x="360" y="534.1" transform="matrix(0.6899 -0.7239 0.7239 0.6899 -276.5704 430.1144)" class="st1" width="7.5" height="7.5"/>
	<rect x="267" y="541.3" class="st1" width="7.5" height="5.7"/>
	<rect x="192.5" y="604.5" class="st1" width="7.4" height="5.7"/>
	<polygon class="st1" points="246.9,560.3 239.5,561.4 238.7,555.8 246.1,554.7 	"/>
</g>
<g id="Piped_Gas_connection" class="st0">
	<g transform="translate(-120.000000, -2331.000000)" class="st3">
		<g transform="translate(120.000000, 2331.000000)">
			<path class="st8" d="M225.6,285.7c-2.4,0-4.3,1.9-4.3,4.3v60.7c0,2.4,1.9,4.3,4.3,4.3h60.7c2.4,0,4.3-1.9,4.3-4.3V290
				c0-2.4-1.9-4.3-4.3-4.3H225.6z M286.4,363.8h-60.7c-7.2,0-13-5.8-13-13V290c0-7.2,5.8-13,13-13h60.7c7.2,0,13,5.8,13,13v60.7
				C299.4,357.9,293.5,363.8,286.4,363.8L286.4,363.8z"/>
			<path class="st8" d="M256,164.2c-19.1,0-34.7,15.6-34.7,34.7s15.6,34.7,34.7,34.7s34.7-15.6,34.7-34.7S275.1,164.2,256,164.2
				 M256,242.3c-23.9,0-43.4-19.5-43.4-43.4s19.5-43.4,43.4-43.4s43.4,19.5,43.4,43.4S279.9,242.3,256,242.3"/>
			<path class="st8" d="M138.9,294.4c-2.4,0-4.3,1.9-4.3,4.3v43.4c0,2.4,1.9,4.3,4.3,4.3h73.8v-52.1h-73.8V294.4z M217,355.1h-78.1
				c-7.2,0-13-5.8-13-13v-43.4c0-7.2,5.8-13,13-13H217c2.4,0,4.3,1.9,4.3,4.3v60.7C221.3,353.2,219.3,355.1,217,355.1L217,355.1z"/>
			<path class="st8" d="M299.4,346.4h73.8c2.4,0,4.3-1.9,4.3-4.3v-43.4c0-2.4-1.9-4.3-4.3-4.3h-73.8L299.4,346.4L299.4,346.4z
				 M373.1,355.1H295c-2.4,0-4.3-1.9-4.3-4.3V290c0-2.4,1.9-4.3,4.3-4.3h78.1c7.2,0,13,5.8,13,13v43.4
				C386.2,349.3,380.3,355.1,373.1,355.1L373.1,355.1z"/>
			<path class="st8" d="M235.8,227.1c5.9,4.2,12.9,6.5,20.2,6.5c7.3,0,14.3-2.3,20.2-6.5c-5.9-4.2-12.9-6.5-20.2-6.5
				C248.7,220.6,241.7,222.9,235.8,227.1 M256,242.3c-11.2,0-21.8-4.3-30-12c-0.9-0.8-1.3-2-1.3-3.1s0.5-2.3,1.3-3.1
				c8.1-7.8,18.8-12,30-12c11.2,0,21.8,4.3,30,12c0.9,0.8,1.3,2,1.3,3.1s-0.5,2.3-1.3,3.1C277.8,238,267.2,242.3,256,242.3"/>
			<path class="st8" d="M256,203.3c-1.1,0-2.2-0.4-3.1-1.3c-1.7-1.7-1.7-4.4,0-6.1l13-13c1.7-1.7,4.4-1.7,6.1,0s1.7,4.4,0,6.1
				l-13,13C258.2,202.8,257.1,203.3,256,203.3"/>
			<path class="st8" d="M256,172.8c-2.4,0-4.3-1.9-4.3-4.3v-8.4c0-2.4,1.9-4.3,4.3-4.3c2.4,0,4.3,1.9,4.3,4.3v8.4
				C260.3,170.9,258.4,172.8,256,172.8"/>
			<path class="st8" d="M225.6,203.3H217c-2.4,0-4.3-1.9-4.3-4.3s1.9-4.3,4.3-4.3h8.7c2.4,0,4.3,1.9,4.3,4.3S228,203.3,225.6,203.3"
				/>
			<path class="st8" d="M295,203.3h-8.7c-2.4,0-4.3-1.9-4.3-4.3s1.9-4.3,4.3-4.3h8.7c2.4,0,4.3,1.9,4.3,4.3S297.4,203.3,295,203.3"
				/>
			<path class="st8" d="M147.5,311.7h-17.4c-2.4,0-4.3-1.9-4.3-4.3s1.9-4.3,4.3-4.3h17.4c2.4,0,4.3,1.9,4.3,4.3
				S149.9,311.7,147.5,311.7"/>
			<path class="st8" d="M217,311.7h-34.7c-2.4,0-4.3-1.9-4.3-4.3s1.9-4.3,4.3-4.3H217c2.4,0,4.3,1.9,4.3,4.3S219.3,311.7,217,311.7"
				/>
			<path class="st8" d="M169.2,307.4c0-2.4-1.9-4.3-4.3-4.3c-2.4,0-4.3,1.9-4.3,4.3s1.9,4.3,4.3,4.3
				C167.3,311.7,169.2,309.8,169.2,307.4"/>
			<path class="st8" d="M338.4,311.7H295c-2.4,0-4.3-1.9-4.3-4.3s1.9-4.3,4.3-4.3h43.4c2.4,0,4.3,1.9,4.3,4.3
				S340.8,311.7,338.4,311.7"/>
			<path class="st8" d="M360.1,307.4c0-2.4-1.9-4.3-4.3-4.3s-4.3,1.9-4.3,4.3s1.9,4.3,4.3,4.3C358.2,311.7,360.1,309.8,360.1,307.4"
				/>
			<path class="st8" d="M256,146.9c-28.7,0-52.1,23.4-52.1,52.1s23.4,52,52.1,52s52.1-23.4,52.1-52.1S284.7,146.9,256,146.9
				 M256,259.7c-33.5,0-60.7-27.2-60.7-60.7s27.2-60.7,60.7-60.7s60.7,27.2,60.7,60.7S289.5,259.7,256,259.7"/>
			<path class="st8" d="M381.8,311.7h-8.7c-2.4,0-4.3-1.9-4.3-4.3s1.9-4.3,4.3-4.3h8.7c2.4,0,4.3,1.9,4.3,4.3
				S384.2,311.7,381.8,311.7"/>
			<path class="st8" d="M247.3,277h17.4v-18c-5.9,0.9-11.5,0.9-17.4,0L247.3,277L247.3,277z M269,285.7h-26c-2.4,0-4.3-1.9-4.3-4.3
				v-27.6c0-1.3,0.6-2.6,1.6-3.4c1-0.8,2.4-1.1,3.7-0.8c8.2,1.9,15.9,1.9,24,0c1.3-0.3,2.6,0,3.7,0.8c1,0.8,1.6,2.1,1.6,3.4v27.6
				C273.4,283.8,271.4,285.7,269,285.7L269,285.7z"/>
		</g>
	</g>
	<rect x="145.5" y="303.1" class="st1" width="7.8" height="8.6"/>
	<rect x="177.5" y="303.1" class="st1" width="7.8" height="8.6"/>
	<rect x="335.1" y="303.1" class="st1" width="7.8" height="8.6"/>
	<rect x="367.1" y="303.1" class="st1" width="7.8" height="8.6"/>
</g>
<path id="Music_Room" class="st9" d="M195.7,154v163.4c-7.1-7.8-17.3-12.5-28.1-12.5c-20.9,0-37.9,17-37.9,37.9s17,37.9,37.9,37.9
	s37.9-17,37.9-37.9V217.2l167-41v108.1c-7.1-7.8-17.3-12.5-28.1-12.5c-20.9,0-37.9,17-37.9,37.9s17,37.9,37.9,37.9
	s37.9-17,37.9-37.9V108.2L195.7,154z M167.6,370.8c-15.5,0-28.1-12.6-28.1-28.1s12.6-28.1,28.1-28.1s28.1,12.6,28.1,28.1
	C195.7,358.2,183.1,370.8,167.6,370.8z M344.4,337.8c-15.5,0-28.1-12.6-28.1-28.1s12.6-28.1,28.1-28.1s28.1,12.6,28.1,28.1
	S359.9,337.8,344.4,337.8z M372.5,166.2l-167,41v-45.5l167-41V166.2z"/>
<path class="st10" d="M362,346.3h-48.4c4.8-3,8.3-7.6,8.3-12.9c0-9.3-10.9-16.6-20.4-16.6c-2.1,0-7.3,0.8-13.5,2.2
	c-4-5.1-6.9-11.4-8.6-18.8c-2.7-11.9-0.4-24.2,6.2-33.8c3.4-4.9,6.7-8,6.8-8.1c19.7-20.2,14.1-40.3,13.9-41.2
	c-7.3-25.8-39-43.4-48-48c5.2-5.3,7.8-10.7,7.8-16.1c0-6.1-3.3-12.1-9.7-18c-0.7-0.6-1.8-0.6-2.5,0c-6.5,5.9-9.7,11.9-9.7,18
	c0,5.4,2.7,10.9,7.9,16.2c-8.1,4.7-36.3,22.2-45.6,47.8c-0.3,0.8-7.5,21,10.7,41.3c0.2,0.2,15,15.5,16.4,29.8
	c0,0.2,1.8,16.9-9.2,31.1c-6.3-1.4-11.5-2.2-13.7-2.2c-9.4,0-20.4,7.3-20.4,16.6c0,5.3,3.5,9.9,8.3,12.9H150
	c-7.1,0-12.8,5.7-12.8,12.8s5.7,12.8,12.8,12.8h212c7.1,0,12.8-5.7,12.8-12.8S369,346.3,362,346.3z M318.2,333.3
	c0,7-9.2,12.9-16.7,12.9c-11.9,0-43.6-5.1-43.6-10.5c0-4,16.2-9.9,29.5-13.1c0.2,0,0.4-0.1,0.6-0.1c5.6-1.3,10.6-2.2,13.5-2.2
	C309,320.4,318.2,326.4,318.2,333.3z M256.1,339.5c3.1,3,9.7,5.2,17,6.8h-33.9C246.4,344.7,253,342.5,256.1,339.5z M255.2,246.4
	c-8.1,0-14.6-9.9-14.6-22.2s6.6-22.2,14.6-22.2c8,0,14.6,9.9,14.6,22.2S263.3,246.4,255.2,246.4z M273.5,224.3
	c0-14.2-8.2-25.8-18.3-25.8s-18.3,11.6-18.3,25.8c0,11.1,5,20.6,12,24.2c-3.9,0.8-9.5,1.1-15.1-2c-10.7-5.8-15.1-20.5-9.9-33.5
	c4.5-11.5,11.1-25.1,31.3-41.2c18.9,16,30.8,30.2,34.2,41.1c4.1,13-1.5,27.7-12.7,33.6c-5.9,3.1-11.4,2.9-15.2,2
	C268.4,244.9,273.5,235.4,273.5,224.3z M247.9,152.8c0-4.6,2.5-9.3,7.3-14.1c4.9,4.8,7.3,9.5,7.3,14.1s-2.5,9.3-7.3,14.1
	C250.3,162.2,247.9,157.4,247.9,152.8z M237.3,287.5c-1.5-15.5-16.7-31.3-17.3-31.9c-16.6-18.6-10.2-36.8-9.9-37.5
	c5.2-14.3,17-26.2,27.3-34.4c-10.4,11.9-14.4,21.9-16.9,28.1c-5.8,14.6-0.7,31.3,11.6,38c10.2,5.5,20.1,1.9,23.1,0.6
	c1.7,0.8,5.8,2.4,11.1,2.4c3.6,0,7.7-0.7,12-3c12.7-6.6,19.1-23.3,14.5-37.9c-2.8-9-10.9-20-23.6-32.2c12.4,8.1,28.8,21.6,33.6,38.4
	c0.2,0.8,5.2,19-12.9,37.6c-0.1,0.1-3.5,3.4-7.2,8.6c-7.3,10.5-9.7,23.8-6.8,36.7c1.7,7.3,4.4,13.6,8.2,18.9
	c-10.9,2.7-23.4,7-28.1,12c-4.6-5-17-9.2-27.8-12C239.1,304.8,237.3,288.2,237.3,287.5z M194,333.3c0-7,9.2-12.9,16.7-12.9
	c3,0,8,0.8,13.7,2.2c0.3,0.1,0.5,0.2,0.8,0.2c0,0,0,0,0.1,0c13.2,3.2,29.1,8.9,29.1,13c0,5.4-31.7,10.5-43.6,10.5
	C203.2,346.3,194,340.3,194,333.3z M362,368.2H150c-5,0-9.1-4.1-9.1-9.1s4.1-9.1,9.1-9.1h212c5,0,9.1,4.1,9.1,9.1
	S367,368.2,362,368.2z"/>
<g id="Walkaway" class="st0">
	<path class="st11" d="M143.2,349.6c3-0.1,6-0.6,9-1.8c2.6-1,5.1-2.5,7.5-4.6c2.3-4.1,1-9.2-0.3-14.2c-0.7-2.8-1.4-5.7-1.6-8.5
		c0-0.2,0-0.4,0.1-0.6c0.6-2.6,0.4-5.7-0.2-9.3c-0.6-3.7-1.7-7.9-2.9-12.2c-0.1-0.3-0.1-0.7,0-1c1-5.4-0.4-10.7-1.9-16.1
		c-0.8-2.9-1.5-5.7-2-8.7c0-0.3,0-0.6,0.1-0.8c0.6-2.6-0.1-5.4-0.9-8.2c-0.5-1.6-0.9-3.2-1.1-4.9c0-0.3,0-0.6,0.1-0.8
		c1.3-4.2,0.2-8.6-0.8-12.9c-0.5-2.3-1.1-4.7-1.3-7.2c0-0.2,0-0.3,0-0.5c0.6-3.7-0.5-7.7-1.5-11.7c-0.6-2.1-1.1-4.2-1.5-6.4l0,0l0,0
		c-0.1-0.6-0.3-1-0.5-1.3c-0.1-0.1-0.1-0.1-0.1-0.2c0,0-0.1,0.1-0.1,0.2c-0.2,0.3-0.4,0.8-0.5,1.3v0.1c-0.4,2.2-0.9,4.3-1.5,6.3
		c-1.1,4-2.1,7.9-1.5,11.7c0,0.2,0,0.4,0,0.5c-0.2,2.4-0.8,4.8-1.3,7.1c-1,4.3-2,8.7-0.8,12.9c0.1,0.3,0.1,0.6,0,0.9
		c-0.2,1.6-0.7,3.2-1.1,4.8c-0.8,2.8-1.6,5.7-0.9,8.3c0.1,0.3,0.1,0.5,0,0.8l0,0c-0.4,3-1.2,5.8-2,8.7c-1.5,5.4-2.9,10.8-1.8,16.2
		c0.1,0.3,0,0.6,0,0.9l0,0c-1.2,4.3-2.3,8.5-2.9,12.2c-0.6,3.6-0.7,6.8-0.1,9.4c0,0.2,0.1,0.4,0,0.5l0,0c-0.2,2.9-0.9,5.7-1.6,8.5
		c-1.3,5-2.6,10.1-0.3,14.2c2.4,2.1,4.9,3.6,7.5,4.6C137.2,349,140.2,349.5,143.2,349.6L143.2,349.6z M255.6,223.6
		c-1.1,0-1.9-0.9-1.9-1.9c0-1.1,0.9-1.9,1.9-1.9l13.2,0.1l-6.1-13.9c-0.4-1,0-2.1,1-2.5s2.1,0,2.5,1l72.2,165.9c0.4,1,0,2.1-1,2.5
		c-0.2,0.1-0.5,0.2-0.8,0.2l0,0h-53c-1.1,0-1.9-0.9-1.9-1.9s0.9-1.9,1.9-1.9h50.1L293,275.4l-45-0.4c-1.1,0-1.9-0.9-1.9-1.9
		c0-1.1,0.9-1.9,1.9-1.9l43.3,0.3l-20.8-47.9H255.6L255.6,223.6z M233.2,244.8l29.6,0.2c1.1,0,1.9,0.9,1.9,1.9
		c0,1.1-0.9,1.9-1.9,1.9l-31.3-0.2l-27.2,59.1l64,0.5c1.1,0,1.9,0.9,1.9,1.9c0,1.1-0.9,1.9-1.9,1.9l-65.7-0.5l-27.7,60.3
		c-0.4,1-1.6,1.4-2.5,0.9c-1-0.4-1.4-1.6-0.9-2.5l28.3-61.5l0,0L247.5,205c0.4-1,1.6-1.4,2.5-0.9c1,0.4,1.4,1.6,0.9,2.5L233.2,244.8
		L233.2,244.8z M278.5,202.1c-0.5-0.1-1.1-0.3-1.6-0.5c-1.6-0.6-3.2-1.6-4.7-2.9c-0.2-0.1-0.3-0.3-0.4-0.5l0,0
		c-1.8-3.1-1-6.2-0.2-9.4c0.3-1.2,0.6-2.4,0.7-3.5c-0.3-1.6-0.2-3.5,0.1-5.5c0.3-1.9,0.8-3.9,1.4-6c-0.5-3.2,0.3-6.1,1-8.9
		c0.3-1.2,0.7-2.5,0.9-3.7c-0.4-1.9,0.1-3.5,0.6-5.2c0.2-0.6,0.3-1.2,0.4-1.7c-0.7-2.7-0.1-5.1,0.5-7.5c0.2-1,0.5-2,0.6-3
		c-0.3-2.4,0.3-4.6,0.9-6.8c0.3-1,0.5-2,0.7-2.9l0,0c0.1-0.8,0.4-1.5,0.9-2.1c0.6-0.7,1.4-1.1,2.3-1.2h0.1c0.9,0,1.7,0.4,2.3,1.2
		c0.4,0.5,0.7,1.3,0.9,2.1v0.1c0.1,0.9,0.4,1.9,0.7,2.8c0.6,2.2,1.2,4.4,0.9,6.8c0.1,0.9,0.3,2,0.6,3c0.6,2.4,1.1,4.8,0.5,7.5
		c0.1,0.5,0.3,1.1,0.4,1.7c0.5,1.7,0.9,3.3,0.6,5.2c0.2,1.2,0.5,2.4,0.9,3.7c0.8,2.9,1.6,5.8,1,8.9c0.6,2.1,1.1,4.1,1.4,6
		c0.3,2,0.4,3.9,0.1,5.5c0.1,1.1,0.4,2.3,0.7,3.5c0.8,3.1,1.6,6.3-0.2,9.4c-0.1,0.2-0.3,0.4-0.5,0.5c-1.5,1.3-3,2.2-4.6,2.8
		c-0.6,0.2-1.3,0.4-1.9,0.6v0.1c2,0.2,3.8,0.7,5.2,1.3c2.3,1,3.6,2.4,3.6,4.2c0,1.9-1.7,3.5-4.3,4.5c-2.1,0.8-4.9,1.2-8,1.2
		s-5.9-0.5-8-1.2c-2.7-1-4.3-2.5-4.3-4.5c0-1.7,1.3-3.2,3.4-4.1c1.3-0.6,3.1-1.1,5-1.3v-0.2H278.5z M278.3,198
		c1.4,0.5,2.8,0.8,4.1,0.8c1.4,0,2.8-0.3,4.1-0.8c1.1-0.4,2.3-1.1,3.3-2c0.8-1.7,0.3-4-0.3-6.3c-0.4-1.5-0.7-2.9-0.8-4.4l0,0
		c0-0.2,0-0.4,0-0.5c0.3-1.2,0.2-2.6-0.1-4.3c-0.3-1.8-0.8-3.9-1.4-6l0,0c-0.1-0.3-0.1-0.6,0-0.9c0.5-2.5-0.2-5.1-0.9-7.7
		c-0.4-1.5-0.8-2.9-1-4.5l0,0c0-0.2,0-0.5,0-0.8c0.3-1-0.1-2.3-0.5-3.6c-0.2-0.8-0.5-1.6-0.6-2.5c-0.1-0.3,0-0.6,0-0.9
		c0.6-1.9,0.1-3.9-0.4-6c-0.3-1.2-0.6-2.4-0.7-3.6c0-0.2,0-0.4,0-0.5c0.3-1.7-0.2-3.6-0.8-5.5l-0.2-0.6l-0.2,0.6
		c-0.5,1.9-1,3.8-0.8,5.4c0,0.2,0,0.3,0,0.5c-0.1,1.3-0.4,2.5-0.7,3.7c-0.5,2-1,4.1-0.4,6c0.1,0.3,0.1,0.5,0.1,0.8
		c-0.1,0.9-0.4,1.7-0.6,2.6c-0.4,1.3-0.7,2.5-0.5,3.6c0.1,0.3,0.1,0.5,0.1,0.8c-0.2,1.5-0.6,3-1,4.5c-0.7,2.6-1.4,5.1-0.9,7.6
		c0.1,0.3,0.1,0.7,0,1c-0.6,2.1-1.1,4.2-1.4,6c-0.3,1.7-0.3,3.1-0.1,4.3c0.1,0.2,0.1,0.4,0.1,0.6c-0.1,1.5-0.5,3-0.8,4.4
		c-0.6,2.3-1.2,4.5-0.3,6.3C276,196.9,277.1,197.5,278.3,198L278.3,198z M278.5,206.1L278.5,206.1c-1.4,0.2-2.6,0.5-3.5,0.9
		c-0.7,0.3-1.2,0.6-1.2,0.6c0,0.2,0.7,0.5,1.8,0.9c1.7,0.6,4.1,1,6.7,1c2.7,0,5-0.4,6.7-1c1.1-0.4,1.8-0.7,1.8-0.9
		c0-0.1-0.5-0.3-1.3-0.7c-1-0.4-2.2-0.7-3.7-1v0.1l0,0c0,0.3-0.1,0.6-0.2,0.8c-0.4,0.8-1,1.4-1.7,1.8c-0.6,0.3-1.2,0.5-1.8,0.5
		c-0.6,0-1.2-0.1-1.8-0.4c-0.7-0.3-1.3-0.9-1.7-1.6C278.7,206.9,278.5,206.5,278.5,206.1L278.5,206.1z M311.2,252.9
		c-0.2,0-0.4,0-0.7,0v4.8c0.1,0.1,0.2,0.1,0.2,0.2c0.1,0.1,0.2,0.1,0.3,0.1c0.1,0,0.2,0,0.3-0.1c0.1,0,0.1-0.1,0.2-0.1V253
		C311.4,252.9,311.4,252.9,311.2,252.9L311.2,252.9L311.2,252.9z M306.7,252.3c-0.9-0.2-1.7-0.5-2.6-0.8c-2.1-0.8-4.2-2.1-6.1-3.8
		c-0.2-0.1-0.3-0.3-0.4-0.5l0,0c-2.3-3.9-1.3-8-0.2-12c0.4-1.7,0.9-3.3,1-4.9c-0.4-2.1-0.3-4.5,0.1-7.2c0.4-2.5,1.1-5.3,1.9-8.1
		c-0.7-4.2,0.3-8,1.3-11.8c0.5-1.7,0.9-3.4,1.2-5.1c-0.5-2.4,0.1-4.6,0.7-6.8c0.2-0.8,0.5-1.7,0.6-2.5c-0.9-3.4-0.2-6.6,0.6-9.8
		c0.3-1.4,0.7-2.8,0.8-4.1c-0.4-3.1,0.3-6,1.1-8.9c0.4-1.3,0.7-2.7,0.9-3.9l0,0c0.1-0.9,0.5-1.8,1-2.4c0.6-0.8,1.5-1.3,2.5-1.3h0.1
		c1,0,1.9,0.5,2.5,1.3c0.5,0.6,0.9,1.5,1,2.4v0.1c0.2,1.2,0.6,2.6,0.9,3.9c0.8,2.9,1.6,5.8,1.1,8.9c0.1,1.3,0.5,2.7,0.8,4.1
		c0.7,3.2,1.5,6.3,0.6,9.8c0.1,0.8,0.4,1.6,0.6,2.5c0.6,2.2,1.2,4.4,0.7,6.8c0.3,1.7,0.7,3.4,1.2,5.1c1,3.8,2.1,7.6,1.3,11.8
		c0.8,2.8,1.5,5.5,1.9,8.1c0.4,2.7,0.5,5.1,0.1,7.2c0.1,1.5,0.6,3.2,1,4.9c1,4.1,2.1,8.1-0.2,12c-0.1,0.2-0.3,0.4-0.5,0.5
		c-1.9,1.7-3.9,2.9-6,3.7c-1,0.4-2,0.7-3,0.9v1.2c2.9,0.3,5.4,0.9,7.3,1.7c1.7,0.8,3,1.7,3.8,2.8c0.1-0.6,0.3-1.1,0.5-1.7
		c-0.9-5.1,0.4-9.9,1.7-14.7c0.6-2.2,1.2-4.4,1.5-6.5c-0.6-2.9,0.1-5.6,0.9-8.3c0.3-1.1,0.6-2.2,0.8-3.2c-1.1-4.2-0.2-8.2,0.7-12.1
		c0.4-1.8,0.8-3.6,1-5.3c-0.5-3.8,0.4-7.4,1.4-11c0.5-1.7,0.9-3.4,1.2-5l0,0c0.2-1.1,0.6-2.1,1.2-2.8c0.7-0.9,1.7-1.4,2.8-1.5h0.1
		c1.1,0,2.1,0.6,2.8,1.5c0.6,0.7,1,1.7,1.2,2.8v0.1c0.3,1.6,0.7,3.2,1.2,4.9c1,3.6,1.9,7.2,1.4,11c0.2,1.7,0.6,3.5,1,5.3
		c0.9,3.9,1.8,7.9,0.7,12.1c0.2,1,0.5,2.1,0.8,3.2c0.8,2.7,1.5,5.4,0.9,8.3c0.3,2.1,0.9,4.3,1.5,6.5c1.3,4.8,2.6,9.5,1.7,14.7
		c1,3.5,1.9,7,2.4,10.1c0.5,3.3,0.7,6.3,0.1,8.9c0.1,0.8,0.2,1.6,0.4,2.5c0.5-1.9,0.9-3.7,1.2-5.6c-0.8-3.4,0.1-6.7,1-9.9
		c0.4-1.4,0.8-2.7,1-4c-1.4-5-0.3-9.7,0.8-14.4c0.5-2.2,1-4.3,1.2-6.4c-0.7-4.5,0.5-8.8,1.7-13c0.6-2,1.1-4.1,1.4-6l0,0
		c0.2-1.2,0.7-2.4,1.3-3.2c0.8-1,1.9-1.6,3.1-1.6h0.1c1.2,0,2.3,0.6,3.1,1.6c0.7,0.8,1.1,1.9,1.3,3.2v0.1c0.3,1.9,0.9,3.9,1.4,6
		c1.2,4.3,2.3,8.6,1.7,13c0.2,2.1,0.7,4.2,1.2,6.4c1.1,4.7,2.2,9.4,0.8,14.4c0.2,1.3,0.6,2.7,1,4c0.9,3.2,1.8,6.4,1,9.9
		c0.4,2.6,1.1,5.3,1.8,7.9c1.5,5.7,3.1,11.4,2,17.5c1.2,4.2,2.2,8.4,2.8,12.2c0.6,3.9,0.8,7.5,0.2,10.6c0.2,2.4,0.8,5,1.5,7.6
		c1.5,5.9,3,11.8-0.3,17.3c-0.1,0.2-0.3,0.4-0.5,0.5c-2.8,2.4-5.8,4.2-8.8,5.4c-1.7,0.7-3.4,1.1-5.1,1.5v0.1v3.3
		c4.5,0.4,8.5,1.3,11.5,2.6c3.8,1.6,6.1,3.9,6.1,6.7c0,3-2.8,5.5-7.4,7.2c-4,1.5-9.4,2.3-15.4,2.3s-11.4-0.9-15.4-2.3
		c-4.6-1.7-7.4-4.2-7.4-7.2c0-2.6,2.1-4.9,5.7-6.5c2.9-1.3,6.8-2.3,11.2-2.7V353c0-0.1,0-0.2,0-0.2c-1.5-0.3-3-0.8-4.5-1.3
		c-3.1-1.2-6.1-3-8.9-5.5c-0.2-0.1-0.3-0.3-0.4-0.5l0,0c-3.3-5.5-1.8-11.4-0.3-17.3c0.7-2.6,1.3-5.2,1.5-7.6c0-0.2-0.1-0.4-0.1-0.6
		c-1.2,0.3-2.5,0.6-3.9,0.7c-2,0.3-4.2,0.4-6.4,0.4c-5,0-9.6-0.8-13-2c-3.9-1.4-6.4-3.6-6.4-6.3c0-2.3,1.9-4.3,5-5.7
		c2.4-1.1,5.5-1.9,9.2-2.3v-2.4c-1.2-0.3-2.4-0.6-3.5-1.1c-2.6-1-5.1-2.5-7.5-4.6c-0.2-0.1-0.3-0.3-0.4-0.5l0,0
		c-2.8-4.7-1.5-9.7-0.3-14.7c0.5-2.1,1.1-4.3,1.2-6.2c-0.5-2.6-0.4-5.6,0.1-8.9c0.1-0.9,0.3-1.7,0.5-2.6c-0.9,0.7-2,1.2-3.3,1.7
		c-2.7,1-6.4,1.6-10.5,1.6s-7.8-0.6-10.5-1.6c-3.3-1.2-5.3-3.1-5.3-5.4c0-2,1.6-3.7,4.2-4.9c1.8-0.8,4.3-1.5,7.1-1.8L306.7,252.3
		L306.7,252.3z M305.5,247.9c1.9,0.7,3.8,1.1,5.7,1.1c1.9,0,3.8-0.4,5.7-1.1c1.6-0.6,3.2-1.6,4.7-2.9c1.3-2.5,0.5-5.7-0.3-8.9
		c-0.5-1.9-1-3.8-1.1-5.8l0,0c0-0.2,0-0.4,0-0.5c0.4-1.6,0.3-3.7-0.1-6c-0.4-2.5-1.1-5.2-1.9-8.1l0,0c-0.1-0.3-0.1-0.6,0-0.9
		c0.7-3.5-0.3-7-1.2-10.5c-0.5-1.9-1-3.9-1.3-5.9l0,0c0-0.2,0-0.5,0-0.8c0.4-1.6-0.1-3.4-0.6-5.2c-0.3-1.1-0.6-2.1-0.8-3.3
		c-0.1-0.3,0-0.6,0-0.9c0.8-2.6,0.1-5.5-0.5-8.3c-0.4-1.6-0.7-3.1-0.9-4.8c0-0.2,0-0.4,0-0.5c0.4-2.4-0.3-5-1-7.5
		c-0.3-1.1-0.6-2.2-0.8-3.3c-0.2,1.1-0.5,2.2-0.8,3.3c-0.7,2.6-1.4,5.2-1,7.5c0,0.2,0,0.3,0,0.5c-0.2,1.7-0.5,3.3-0.9,4.8
		c-0.7,2.8-1.3,5.6-0.5,8.3c0.1,0.3,0.1,0.5,0.1,0.8c-0.2,1.2-0.5,2.2-0.8,3.3c-0.5,1.8-1,3.6-0.6,5.1c0.1,0.3,0.1,0.6,0.1,0.8
		c-0.3,2-0.8,3.9-1.3,5.9c-0.9,3.5-1.9,7-1.2,10.4c0.1,0.3,0.1,0.7,0,1c-0.8,2.9-1.5,5.6-1.9,8.1c-0.4,2.3-0.5,4.3-0.1,5.9
		c0.1,0.2,0.1,0.4,0.1,0.6c-0.1,2-0.6,3.9-1.1,5.8c-0.8,3.2-1.6,6.4-0.3,8.9C302.2,246.4,303.8,247.3,305.5,247.9L305.5,247.9z
		 M306.7,258.2v-0.8c-2.2,0.3-4.1,0.8-5.5,1.4c-1.2,0.6-1.9,1.1-1.9,1.4c0,0.5,1.1,1.2,2.8,1.8c2.3,0.8,5.6,1.4,9.2,1.4
		s6.9-0.5,9.2-1.4c1.7-0.6,2.8-1.3,2.8-1.8c0-0.4-0.8-0.9-2.1-1.5c-1.5-0.6-3.5-1.1-5.8-1.4v0.8l0,0c0,0.3-0.1,0.6-0.2,0.8
		c-0.5,1-1.2,1.7-2,2.1c-0.6,0.4-1.4,0.5-2.1,0.5s-1.4-0.2-2-0.5c-0.8-0.4-1.6-1.1-2.1-2C306.8,258.9,306.7,258.6,306.7,258.2z
		 M353,299.3c-1.4,0.9-2.8,1.6-4.3,2.2c-1.3,0.5-2.7,0.9-4,1.2v2.3c1.4,0.1,2.7,0.3,3.9,0.6c1,0.2,1.9,0.4,2.7,0.7
		C351.8,303.9,352.4,301.6,353,299.3z M350.6,309.9c-0.8-0.3-1.8-0.5-2.7-0.7c-1-0.2-2-0.3-3.1-0.5v1.5l0,0c0,0.3-0.1,0.6-0.2,0.8
		c-0.6,1.1-1.3,1.9-2.3,2.4c-0.7,0.4-1.6,0.6-2.4,0.6s-1.6-0.2-2.3-0.5c-1-0.5-1.8-1.2-2.4-2.3c-0.2-0.3-0.3-0.7-0.3-1v-1.5
		c-3,0.4-5.7,1-7.6,1.9c-1.7,0.8-2.7,1.6-2.7,2.2c0,0.9,1.5,1.8,3.8,2.7c2.9,1.1,7.1,1.7,11.7,1.7c2.1,0,4.1-0.1,5.9-0.4
		c1.5-0.2,2.9-0.5,4.1-0.8c0-1.9,0.2-4,0.6-6.1L350.6,309.9L350.6,309.9z M354.1,285.5c-0.1-0.2-0.3-0.4-0.3-0.7
		c-0.2-0.6-0.3-1.4-0.6-2.2c-0.6-2.4-1.2-4.8-1.4-7.2l0,0c0-0.2,0-0.4,0-0.5c0.5-2.1,0.3-4.7-0.1-7.7c-0.5-3.1-1.4-6.6-2.4-10.1l0,0
		c-0.1-0.3-0.1-0.6,0-0.9c0.9-4.4-0.3-8.9-1.5-13.4c-0.6-2.4-1.3-4.8-1.7-7.3l0,0c0-0.2,0-0.5,0-0.8c0.5-2.1-0.1-4.4-0.8-6.7
		c-0.4-1.3-0.7-2.7-1-4c-0.1-0.3,0-0.6,0-0.9c1-3.4,0.2-7-0.6-10.6c-0.5-1.9-0.9-3.9-1.1-5.9c0-0.2,0-0.4,0-0.5
		c0.5-3.1-0.4-6.3-1.3-9.6c-0.5-1.7-0.9-3.5-1.2-5.3v-0.1c0-0.3-0.1-0.6-0.2-0.7c-0.1,0.2-0.2,0.4-0.2,0.7l0,0l0,0
		c-0.3,1.9-0.8,3.6-1.3,5.4c-0.9,3.3-1.8,6.5-1.3,9.6c0,0.2,0,0.3,0,0.5c-0.2,2.1-0.7,4-1.1,6c-0.8,3.6-1.7,7.2-0.6,10.6
		c0.1,0.3,0.1,0.5,0.1,0.8c-0.2,1.4-0.6,2.8-1,4.1c-0.6,2.3-1.3,4.6-0.8,6.7c0.1,0.3,0.1,0.6,0.1,0.8c-0.4,2.5-1,4.9-1.7,7.3
		c-1.2,4.4-2.4,8.9-1.5,13.3c0.1,0.3,0.1,0.7,0,1c-1,3.6-1.9,7-2.4,10.1c-0.5,2.9-0.6,5.6-0.1,7.6c0.1,0.2,0.1,0.4,0.1,0.6
		c-0.2,2.4-0.8,4.8-1.4,7.2c-1,4.1-2.1,8.2-0.3,11.5c1.9,1.7,4,2.9,6.1,3.7c2.4,0.9,4.9,1.4,7.4,1.4c2.4-0.1,4.9-0.5,7.4-1.4
		c2-0.8,3.9-1.9,5.7-3.4C353,291.4,353.4,288.5,354.1,285.5L354.1,285.5z M340.9,303.1c-0.3,0-0.6,0-0.8,0c0,0,0,0-0.1,0
		c-0.4,0-0.9,0-1.3-0.1v6.6c0.2,0.2,0.4,0.4,0.6,0.5s0.4,0.2,0.6,0.2s0.4-0.1,0.6-0.2s0.3-0.2,0.5-0.4v-6.6H340.9z M368.8,353.4
		c-0.7,0-1.3,0-2-0.1v8.5c0.3,0.3,0.6,0.6,0.9,0.8c0.3,0.2,0.6,0.2,0.9,0.2s0.6-0.1,0.9-0.2c0.3-0.2,0.5-0.4,0.8-0.7v-8.5
		C369.8,353.4,369.3,353.4,368.8,353.4L368.8,353.4z M359.9,347.8c3,1.2,6,1.7,9,1.8c3-0.1,6-0.6,9-1.8c2.6-1,5.1-2.5,7.5-4.6
		c2.3-4.1,1-9.2-0.3-14.2c-0.7-2.8-1.4-5.7-1.6-8.5l0,0c0-0.2,0-0.4,0-0.5c0.6-2.6,0.4-5.8-0.1-9.4c-0.6-3.7-1.7-7.9-2.9-12.2l0,0
		c-0.1-0.3-0.1-0.6,0-0.9c1.1-5.4-0.4-10.8-1.8-16.2c-0.8-2.9-1.5-5.7-2-8.7l0,0c0-0.2,0-0.5,0-0.8c0.7-2.6-0.1-5.4-0.9-8.3
		c-0.4-1.6-0.9-3.2-1.1-4.8c-0.1-0.3,0-0.6,0-0.9c1.3-4.2,0.2-8.6-0.8-12.9c-0.5-2.3-1.1-4.6-1.3-7.1c0-0.2,0-0.4,0-0.5
		c0.6-3.8-0.5-7.7-1.5-11.7c-0.6-2.1-1.1-4.1-1.5-6.3v-0.1c-0.1-0.6-0.3-1-0.5-1.3c-0.1-0.1-0.1-0.1-0.1-0.2c0,0-0.1,0.1-0.1,0.2
		c-0.2,0.3-0.4,0.8-0.5,1.3l0,0l0,0c-0.4,2.2-0.9,4.3-1.5,6.4c-1.1,4-2.1,7.9-1.5,11.7c0,0.2,0,0.3,0,0.5c-0.2,2.5-0.8,4.8-1.3,7.2
		c-1,4.3-2,8.7-0.8,12.9c0.1,0.3,0.1,0.5,0.1,0.8c-0.2,1.7-0.7,3.3-1.1,4.9c-0.8,2.8-1.6,5.6-0.9,8.2c0.1,0.3,0.1,0.6,0.1,0.8
		c-0.4,3-1.2,5.8-2,8.7c-1.5,5.4-2.9,10.8-1.9,16.1c0.1,0.3,0.1,0.7,0,1c-1.2,4.3-2.3,8.5-2.9,12.2c-0.6,3.6-0.7,6.8-0.2,9.3
		c0.1,0.2,0.1,0.4,0.1,0.6c-0.2,2.9-0.9,5.7-1.6,8.5c-1.3,5-2.6,10.1-0.3,14.2C354.7,345.3,357.3,346.8,359.9,347.8L359.9,347.8z
		 M363,362.3v-2.2c-3.9,0.4-7.2,1.3-9.6,2.4c-2.2,1-3.5,2-3.5,3c0,1.2,1.9,2.5,4.9,3.6c3.6,1.3,8.6,2.1,14.1,2.1s10.5-0.8,14.1-2.1
		c3-1.1,4.9-2.4,4.9-3.6c0-1-1.4-2.1-3.8-3.1c-2.5-1.1-6-1.9-10-2.3v2.3l0,0c0,0.3-0.1,0.6-0.2,0.8c-0.6,1.3-1.5,2.2-2.5,2.7
		c-0.8,0.5-1.8,0.7-2.7,0.7c-0.9,0-1.8-0.2-2.6-0.6c-1.1-0.5-2-1.4-2.7-2.6C363.1,363.1,363,362.7,363,362.3L363,362.3z
		 M229.6,198.8c1.4,0,2.8-0.3,4.1-0.8c1.1-0.4,2.3-1.1,3.3-2c0.8-1.7,0.3-4-0.3-6.3c-0.4-1.5-0.7-2.9-0.8-4.4c0-0.2,0-0.4,0.1-0.6
		c0.2-1.1,0.2-2.6-0.1-4.3c-0.3-1.8-0.8-3.9-1.4-6c-0.1-0.3-0.1-0.7,0-1c0.5-2.4-0.2-5-0.9-7.6c-0.4-1.5-0.8-2.9-1-4.5
		c0-0.3,0-0.6,0.1-0.8c0.2-1-0.1-2.3-0.5-3.6c-0.2-0.8-0.5-1.7-0.6-2.6c0-0.3,0-0.6,0.1-0.8c0.6-1.9,0.1-3.9-0.4-6
		c-0.3-1.2-0.6-2.4-0.7-3.7c0-0.2,0-0.3,0-0.5c0.3-1.7-0.2-3.6-0.8-5.4l-0.2-0.6l-0.2,0.6c-0.5,1.9-1,3.8-0.8,5.5c0,0.2,0,0.4,0,0.5
		c-0.1,1.3-0.4,2.5-0.7,3.6c-0.5,2-1,4.1-0.4,6c0.1,0.3,0.1,0.6,0,0.9c-0.1,0.9-0.4,1.7-0.6,2.5c-0.4,1.3-0.7,2.6-0.5,3.6
		c0.1,0.3,0.1,0.5,0,0.8l0,0c-0.2,1.5-0.6,3-1,4.5c-0.7,2.6-1.4,5.2-0.9,7.7c0.1,0.3,0,0.6,0,0.9l0,0c-0.6,2.1-1.1,4.2-1.4,6
		c-0.3,1.7-0.3,3.2-0.1,4.3c0,0.2,0.1,0.4,0,0.5l0,0c-0.1,1.5-0.5,3-0.8,4.4c-0.6,2.3-1.2,4.5-0.3,6.3c1.1,0.9,2.2,1.5,3.3,2
		C226.8,198.5,228.2,198.8,229.6,198.8L229.6,198.8z M235.1,201.5c-0.5,0.2-1.1,0.4-1.6,0.5v0.2c2,0.3,3.7,0.7,5,1.3
		c2.1,1,3.4,2.4,3.4,4.1c0,1.9-1.7,3.5-4.3,4.5c-2.1,0.8-4.9,1.2-8,1.2s-5.9-0.5-8-1.2c-2.7-1-4.3-2.5-4.3-4.5
		c0-1.8,1.4-3.2,3.6-4.2c1.4-0.6,3.1-1,5.2-1.3V202c-0.6-0.2-1.3-0.4-1.9-0.6c-1.6-0.6-3.2-1.5-4.6-2.8c-0.2-0.1-0.4-0.3-0.5-0.5
		c-1.8-3.1-1-6.2-0.2-9.4c0.3-1.2,0.6-2.4,0.7-3.5c-0.3-1.6-0.2-3.5,0.1-5.5c0.3-1.9,0.8-3.9,1.4-6c-0.5-3.2,0.3-6.1,1-8.9
		c0.3-1.2,0.7-2.5,0.9-3.7c-0.4-1.9,0.1-3.5,0.6-5.2c0.2-0.6,0.3-1.2,0.4-1.7c-0.7-2.7-0.1-5.1,0.5-7.5c0.2-1,0.5-2,0.6-3
		c-0.3-2.4,0.3-4.6,0.9-6.8c0.3-1,0.5-2,0.7-2.8V134c0.1-0.8,0.4-1.5,0.9-2.1c0.6-0.7,1.4-1.1,2.3-1.2h0.1c0.9,0,1.7,0.4,2.3,1.2
		c0.4,0.5,0.7,1.3,0.9,2.1l0,0c0.1,0.9,0.4,1.9,0.7,2.9c0.6,2.2,1.2,4.4,0.9,6.8c0.1,0.9,0.3,2,0.6,3c0.6,2.4,1.1,4.8,0.5,7.5
		c0.1,0.5,0.3,1.1,0.4,1.7c0.5,1.7,0.9,3.3,0.6,5.2c0.2,1.2,0.5,2.4,0.9,3.7c0.8,2.9,1.6,5.8,1,8.9c0.6,2.1,1.1,4.1,1.4,6
		c0.3,2,0.4,3.9,0.1,5.5c0.1,1.1,0.4,2.3,0.7,3.5c0.8,3.1,1.6,6.3-0.2,9.4l0,0c-0.1,0.2-0.2,0.3-0.4,0.5
		C238.3,200,236.7,200.9,235.1,201.5L235.1,201.5z M233.5,206.1L233.5,206.1c0,0.4-0.1,0.8-0.3,1.1c-0.4,0.7-1,1.3-1.7,1.6
		c-0.6,0.3-1.1,0.4-1.8,0.4c-0.6,0-1.2-0.2-1.8-0.5c-0.7-0.4-1.3-1-1.7-1.8c-0.1-0.3-0.2-0.6-0.2-0.8l0,0V206
		c-1.4,0.2-2.7,0.5-3.7,1c-0.8,0.3-1.3,0.6-1.3,0.7c0,0.2,0.7,0.5,1.8,0.9c1.7,0.6,4.1,1,6.7,1s5-0.4,6.7-1c1.1-0.4,1.8-0.7,1.8-0.9
		c0-0.1-0.4-0.3-1.2-0.6C236,206.7,234.8,206.3,233.5,206.1L233.5,206.1z M200.8,249.1c1.9,0,3.8-0.4,5.7-1.1
		c1.6-0.6,3.2-1.6,4.7-2.9c1.3-2.5,0.5-5.7-0.3-8.9c-0.5-1.9-1-3.8-1.1-5.8c0-0.2,0-0.4,0.1-0.6c0.3-1.6,0.2-3.7-0.1-5.9
		c-0.4-2.5-1.1-5.2-1.9-8.1c-0.1-0.3-0.1-0.7,0-1c0.7-3.4-0.3-6.9-1.2-10.4c-0.5-1.9-1-3.9-1.3-5.9c0-0.3,0-0.6,0.1-0.8
		c0.4-1.5-0.1-3.3-0.6-5.1c-0.3-1.1-0.6-2.2-0.8-3.3c0-0.3,0-0.6,0.1-0.8c0.8-2.6,0.1-5.5-0.5-8.3c-0.4-1.6-0.7-3.1-0.9-4.8
		c0-0.2,0-0.3,0-0.5c0.4-2.4-0.3-4.9-1-7.5c-0.3-1.1-0.6-2.2-0.8-3.3c-0.2,1.1-0.5,2.2-0.8,3.3c-0.7,2.6-1.4,5.2-1,7.5
		c0,0.2,0,0.4,0,0.5c-0.2,1.7-0.5,3.2-0.9,4.8c-0.7,2.8-1.3,5.6-0.5,8.3c0.1,0.3,0.1,0.6,0,0.9c-0.2,1.1-0.5,2.2-0.8,3.3
		c-0.5,1.8-1,3.6-0.6,5.2c0.1,0.3,0.1,0.5,0,0.8l0,0c-0.3,2-0.8,3.9-1.3,5.9c-1,3.5-1.9,7.1-1.2,10.5c0.1,0.3,0,0.6,0,0.9l0,0
		c-0.8,2.9-1.5,5.6-1.9,8.1c-0.4,2.3-0.5,4.4-0.1,6c0,0.2,0.1,0.4,0,0.5l0,0c-0.1,2-0.6,3.9-1.1,5.8c-0.8,3.2-1.6,6.4-0.3,8.9
		c1.5,1.3,3.1,2.2,4.7,2.9C196.9,248.7,198.9,249,200.8,249.1L200.8,249.1z M207.9,251.5c-0.9,0.3-1.7,0.6-2.6,0.8v1.3
		c2.8,0.3,5.3,1,7.1,1.8c2.6,1.2,4.2,2.9,4.2,4.9c0,2.3-2,4.2-5.3,5.4c-2.7,1-6.4,1.6-10.5,1.6s-7.8-0.6-10.5-1.6
		c-1.3-0.5-2.4-1.1-3.3-1.7c0.2,0.9,0.3,1.8,0.5,2.6c0.5,3.3,0.7,6.3,0.1,8.9c0.2,2,0.7,4.1,1.2,6.2c1.3,5,2.5,10-0.3,14.7l0,0
		c-0.1,0.2-0.2,0.3-0.4,0.5c-2.4,2.1-4.9,3.6-7.5,4.6c-1.2,0.5-2.4,0.8-3.5,1.1v2.4c3.6,0.4,6.8,1.2,9.2,2.3c3.1,1.4,5,3.4,5,5.7
		c0,2.6-2.4,4.8-6.4,6.3c-3.4,1.2-7.9,2-13,2c-2.2,0-4.4-0.1-6.4-0.4c-1.4-0.2-2.7-0.4-3.9-0.7c0,0.2-0.1,0.4-0.1,0.6
		c0.2,2.4,0.8,5,1.5,7.6c1.5,5.9,3,11.8-0.3,17.3l0,0c-0.1,0.2-0.2,0.3-0.4,0.5c-2.8,2.5-5.8,4.3-8.9,5.5c-1.5,0.6-3,1-4.5,1.3
		c0,0.1,0,0.2,0,0.2v3.3c4.4,0.5,8.3,1.4,11.2,2.7c3.6,1.6,5.7,3.9,5.7,6.5c0,3-2.8,5.5-7.4,7.2c-4,1.5-9.4,2.3-15.4,2.3
		s-11.4-0.9-15.4-2.3c-4.6-1.7-7.4-4.2-7.4-7.2c0-2.7,2.3-5,6.1-6.7c3-1.3,7-2.2,11.5-2.6v-3.3V353c-1.7-0.3-3.4-0.8-5.1-1.5
		c-3-1.2-6-2.9-8.8-5.4c-0.2-0.1-0.4-0.3-0.5-0.5c-3.3-5.5-1.8-11.4-0.3-17.3c0.7-2.6,1.3-5.2,1.5-7.6c-0.6-3-0.5-6.6,0.2-10.6
		c0.6-3.8,1.7-8,2.8-12.2c-1.1-6.1,0.4-11.8,2-17.5c0.7-2.6,1.4-5.3,1.8-7.9c-0.8-3.4,0.1-6.7,1-9.9c0.4-1.4,0.8-2.7,1-4
		c-1.4-5-0.3-9.7,0.8-14.4c0.5-2.2,1-4.3,1.2-6.4c-0.7-4.5,0.5-8.8,1.7-13c0.5-2,1.1-4,1.4-6v-0.1c0.2-1.2,0.7-2.4,1.3-3.2
		c0.8-1,1.9-1.6,3.1-1.6h0.1c1.2,0,2.3,0.6,3.1,1.6c0.7,0.8,1.1,1.9,1.3,3.2l0,0c0.3,1.9,0.9,4,1.4,6c1.2,4.3,2.3,8.6,1.7,13
		c0.2,2.1,0.7,4.2,1.2,6.4c1.1,4.7,2.2,9.4,0.8,14.4c0.2,1.3,0.6,2.7,1,4c0.9,3.2,1.8,6.4,1,9.9c0.3,1.9,0.7,3.7,1.2,5.6
		c0.2-0.9,0.3-1.7,0.4-2.5c-0.5-2.6-0.4-5.6,0.1-8.9c0.5-3.2,1.4-6.6,2.4-10.1c-0.9-5.1,0.4-9.9,1.7-14.7c0.6-2.2,1.2-4.4,1.5-6.5
		c-0.6-2.9,0.1-5.6,0.9-8.3c0.3-1.1,0.6-2.2,0.8-3.2c-1.1-4.2-0.2-8.2,0.7-12.1c0.4-1.8,0.8-3.6,1-5.3c-0.5-3.8,0.4-7.4,1.4-11
		c0.5-1.7,0.9-3.4,1.2-4.9v-0.1c0.2-1.1,0.6-2.1,1.2-2.8c0.7-0.9,1.7-1.4,2.8-1.5h0.1c1.1,0,2.1,0.6,2.8,1.5c0.6,0.7,1,1.7,1.2,2.8
		l0,0c0.3,1.6,0.7,3.3,1.2,5c1,3.6,1.9,7.2,1.4,11c0.2,1.7,0.6,3.5,1,5.3c0.9,3.9,1.8,7.9,0.7,12.1c0.2,1,0.5,2.1,0.8,3.2
		c0.8,2.7,1.5,5.4,0.9,8.3c0.3,2.1,0.9,4.3,1.5,6.5c1.3,4.8,2.6,9.5,1.7,14.7c0.2,0.6,0.3,1.1,0.5,1.7c0.7-1.1,2-2.1,3.8-2.8
		c1.9-0.8,4.4-1.4,7.3-1.7v-1.2c-1-0.2-2-0.5-3-0.9c-2.1-0.8-4.1-2-6-3.7c-0.2-0.1-0.4-0.3-0.5-0.5c-2.3-3.9-1.3-8-0.2-12
		c0.4-1.7,0.9-3.3,1-4.9c-0.4-2.1-0.3-4.5,0.1-7.2c0.4-2.5,1.1-5.3,1.9-8.1c-0.7-4.2,0.3-8,1.3-11.8c0.5-1.7,0.9-3.4,1.2-5.1
		c-0.5-2.4,0.1-4.6,0.7-6.8c0.2-0.8,0.5-1.7,0.6-2.5c-0.9-3.4-0.2-6.6,0.6-9.8c0.3-1.4,0.7-2.8,0.8-4.1c-0.4-3.1,0.3-6,1.1-8.9
		c0.4-1.3,0.7-2.7,0.9-3.9v-0.1c0.1-0.9,0.5-1.8,1-2.4c0.6-0.8,1.5-1.3,2.5-1.3h0.1c1,0,1.9,0.5,2.5,1.3c0.5,0.6,0.9,1.5,1,2.4l0,0
		c0.2,1.2,0.6,2.6,0.9,3.9c0.8,2.9,1.6,5.8,1.1,8.9c0.1,1.3,0.5,2.7,0.8,4.1c0.7,3.2,1.5,6.3,0.6,9.8c0.1,0.8,0.4,1.6,0.6,2.5
		c0.6,2.2,1.2,4.4,0.7,6.8c0.3,1.7,0.7,3.4,1.2,5.1c1,3.8,2.1,7.6,1.3,11.8c0.8,2.8,1.5,5.5,1.9,8.1c0.4,2.7,0.5,5.1,0.1,7.2
		c0.1,1.5,0.6,3.2,1,4.9c1,4.1,2.1,8.1-0.2,12l0,0c-0.1,0.2-0.2,0.3-0.4,0.5C212.1,249.4,210,250.7,207.9,251.5L207.9,251.5z
		 M201.5,252.8c-0.2,0-0.4,0-0.7,0h-0.1c-0.1,0-0.2,0-0.3,0v4.8c0.1,0.1,0.1,0.1,0.2,0.1c0.1,0,0.2,0.1,0.3,0.1s0.2,0,0.3-0.1
		c0.1,0,0.2-0.1,0.2-0.2L201.5,252.8L201.5,252.8z M205.3,257.4v0.8c0,0.4-0.1,0.7-0.3,1c-0.5,0.9-1.2,1.6-2.1,2
		c-0.6,0.3-1.3,0.5-2,0.5s-1.4-0.2-2.1-0.5c-0.8-0.4-1.5-1.1-2-2.1c-0.1-0.3-0.2-0.6-0.2-0.8l0,0v-0.8c-2.3,0.3-4.3,0.8-5.8,1.4
		c-1.3,0.6-2.1,1.1-2.1,1.5c0,0.5,1.1,1.2,2.8,1.8c2.3,0.8,5.6,1.4,9.2,1.4s6.9-0.5,9.2-1.4c1.7-0.6,2.8-1.3,2.8-1.8
		c0-0.4-0.7-0.9-1.9-1.4C209.4,258.2,207.5,257.7,205.3,257.4z M158.9,294.5c1.8,1.5,3.8,2.6,5.7,3.4c2.4,0.9,4.9,1.4,7.4,1.4
		c2.4-0.1,4.9-0.5,7.4-1.4c2.1-0.8,4.2-2,6.1-3.7c1.8-3.3,0.7-7.4-0.3-11.5c-0.6-2.4-1.2-4.8-1.4-7.2c0-0.2,0-0.4,0.1-0.6
		c0.4-2.1,0.3-4.7-0.1-7.6c-0.5-3.1-1.4-6.6-2.4-10.1c-0.1-0.3-0.1-0.7,0-1c0.9-4.4-0.3-8.8-1.5-13.3c-0.6-2.4-1.3-4.8-1.7-7.3
		c0-0.3,0-0.6,0.1-0.8c0.5-2.1-0.1-4.4-0.8-6.7c-0.4-1.3-0.8-2.7-1-4.1c0-0.3,0-0.6,0.1-0.8c1-3.4,0.2-7-0.6-10.6
		c-0.5-2-0.9-3.9-1.1-6c0-0.2,0-0.3,0-0.5c0.5-3.1-0.4-6.3-1.3-9.6c-0.5-1.8-1-3.5-1.3-5.4l0,0l0,0c0-0.3-0.1-0.6-0.2-0.7
		c-0.1,0.2-0.2,0.4-0.2,0.7v0.1c-0.3,1.8-0.8,3.6-1.2,5.3c-0.9,3.3-1.8,6.6-1.3,9.6c0,0.2,0,0.4,0,0.5c-0.2,2.1-0.7,4-1.1,5.9
		c-0.8,3.6-1.7,7.2-0.6,10.6c0.1,0.3,0.1,0.6,0,0.9c-0.2,1.4-0.6,2.7-1,4c-0.7,2.3-1.3,4.7-0.8,6.7c0.1,0.3,0.1,0.5,0,0.8l0,0
		c-0.4,2.5-1,4.9-1.7,7.3c-1.2,4.5-2.4,9-1.5,13.4c0.1,0.3,0,0.6,0,0.9l0,0c-1,3.6-1.9,7-2.4,10.1c-0.5,3-0.6,5.6-0.1,7.7
		c0,0.2,0.1,0.4,0,0.5l0,0c-0.2,2.4-0.8,4.8-1.4,7.2c-0.2,0.8-0.4,1.6-0.6,2.2c-0.1,0.3-0.2,0.5-0.3,0.7
		C158.6,288.5,159,291.4,158.9,294.5L158.9,294.5z M161.9,316.1c1.2,0.3,2.6,0.6,4.1,0.8c1.8,0.2,3.8,0.4,5.9,0.4
		c4.6,0,8.7-0.7,11.7-1.7c2.4-0.9,3.8-1.8,3.8-2.7c0-0.7-1-1.5-2.7-2.2c-1.9-0.9-4.5-1.5-7.6-1.9v1.5c0,0.4-0.1,0.7-0.3,1
		c-0.6,1-1.5,1.8-2.4,2.3c-0.7,0.4-1.5,0.6-2.3,0.5c-0.8,0-1.6-0.2-2.4-0.6c-0.9-0.5-1.7-1.3-2.3-2.4c-0.1-0.3-0.2-0.6-0.2-0.8l0,0
		v-1.5c-1.1,0.1-2.2,0.3-3.1,0.5c-1,0.2-1.9,0.4-2.7,0.7v0.1C161.7,312.1,161.9,314.2,161.9,316.1L161.9,316.1z M160.7,306.1
		c0.9-0.2,1.8-0.5,2.7-0.7c1.2-0.2,2.5-0.4,3.9-0.6v-2.3c-1.3-0.3-2.7-0.7-4-1.2c-1.5-0.6-2.9-1.3-4.3-2.2
		C159.6,301.6,160.2,303.9,160.7,306.1z M171.9,303.1c-0.3,0-0.6,0-0.8,0v6.7c0.1,0.2,0.3,0.3,0.5,0.4s0.4,0.1,0.6,0.2
		c0.2,0,0.4-0.1,0.6-0.2c0.2-0.1,0.4-0.3,0.6-0.5v-6.6C172.9,303.1,172.4,303.1,171.9,303.1L171.9,303.1z M145.2,353.3
		c-0.7,0.1-1.3,0.1-2,0.1h-0.1c-0.5,0-0.9,0-1.4-0.1v8.5c0.2,0.3,0.5,0.6,0.8,0.7c0.3,0.2,0.6,0.2,0.9,0.2c0.3,0,0.6-0.1,0.9-0.2
		c0.3-0.2,0.6-0.4,0.9-0.8L145.2,353.3L145.2,353.3z M149,360.1v2.2c0,0.4-0.1,0.7-0.3,1c-0.7,1.2-1.6,2.1-2.7,2.6
		c-0.8,0.4-1.7,0.6-2.6,0.6c-0.9,0-1.8-0.2-2.7-0.7c-1-0.6-1.9-1.5-2.5-2.7c-0.1-0.3-0.2-0.6-0.2-0.8l0,0V360c-4,0.4-7.4,1.2-10,2.3
		c-2.3,1-3.8,2.1-3.8,3.1c0,1.2,1.9,2.5,4.9,3.6c3.6,1.3,8.6,2.1,14.1,2.1s10.5-0.8,14.1-2.1c3-1.1,4.9-2.4,4.9-3.6c0-1-1.3-2-3.5-3
		C156.2,361.4,152.9,360.5,149,360.1L149,360.1z"/>
	<rect x="279.5" y="367.7" class="st1" width="6.3" height="6.8"/>
	<rect x="265.4" y="306.8" class="st1" width="6.3" height="6.8"/>
	<rect x="244.5" y="269.7" class="st1" width="6.3" height="6.8"/>
	<rect x="261.1" y="243.6" class="st1" width="6.3" height="6.8"/>
	
		<rect x="251.9" y="218.6" transform="matrix(1.466359e-02 -0.9999 0.9999 1.466359e-02 29.8309 473.6751)" class="st1" width="6.8" height="6.3"/>
	<rect x="261" y="201.6" transform="matrix(0.918 -0.3965 0.3965 0.918 -59.5999 121.6534)" class="st1" width="6.9" height="6.8"/>
	
		<rect x="245.9" y="202" transform="matrix(0.4201 -0.9075 0.9075 0.4201 -41.7822 345.3293)" class="st1" width="6.8" height="6.8"/>
	
		<rect x="169.3" y="368.4" transform="matrix(0.4201 -0.9075 0.9075 0.4201 -237.2346 372.3424)" class="st1" width="6.8" height="6.8"/>
</g>
<g class="st0">
	<path class="st12" d="M213.8,366.2h15.7c4.4,0,7.9-3.5,7.9-7.9v-16.6h125.8v16.6c0,4.3,3.5,7.9,7.9,7.9h15.7c4.4,0,7.9-3.5,7.9-7.9
		v-16.6h7.9v-20.1H198.1v20.1h7.9v16.6C205.9,362.7,209.5,366.2,213.8,366.2z"/>
	<path class="st12" d="M192.5,210.6v-3.9l0,0c0-10.7-8.8-19.4-19.4-19.4h-3.9h-36.3H129c-10.7,0-19.4,8.8-19.4,19.4l0,0v1.3v2.6
		v54.5c0,3,1.9,5.6,4.5,6.6v5h-4.5v44.1h14.3v-44.1h-4.5v-5c2.7-1,4.5-3.6,4.5-6.6v-54.5h3.9v38.2v18.8v88.8c0,5.3,4.4,9.7,9.7,9.7
		h1.3c5.3,0,9.7-4.4,9.7-9.7v-83.6h5.2v83.6c0,5.3,4.4,9.7,9.7,9.7h1.3c5.3,0,9.7-4.4,9.7-9.7v-88.8v-18.8v-38.2h3.9V240
		c0,3.1,2,5.8,4.9,6.8l29.2,9.5l-5.9,15.9c-5.3,1.5-8.3,2.5-8.3,2.5v40.1h204.5v-40.1c0,0-3-1-8.3-2.5L369,204.7
		c0,0-52.5-8.7-68.7-8.7s-68.7,8.7-68.7,8.7l-14.3,38.2l-24.8-8.1L192.5,210.6L192.5,210.6z M385.7,292.7c0,7.3-5.9,13.3-13.3,13.3
		c-7.3,0-13.2-5.9-13.2-13.3c0-7.3,5.9-13.3,13.2-13.3C379.7,279.4,385.7,285.3,385.7,292.7z M243.2,218.7c12-1.9,45-7,57.2-7
		c12.1,0,45.1,5.1,57.1,7l18,48c0,0-47.7-7.8-75.1-7.8c-27.5,0-75.2,7.8-75.2,7.8L243.2,218.7z M228.2,279.4
		c7.3,0,13.2,5.9,13.2,13.3c0,7.3-5.9,13.3-13.2,13.3s-13.3-5.9-13.3-13.3S220.9,279.4,228.2,279.4z"/>
	<circle class="st12" cx="335.6" cy="238.8" r="18.2"/>
	<circle class="st12" cx="151" cy="163.9" r="18.2"/>
	<g class="st3">
		<g>
			<g>
				<path class="st13" d="M272.1,161.5c0,3,0,5.9,0,8.8c0,2,0,4,0,6c0,1-0.1,1.9,0,2.9c0.2,2,1.7,3.5,3.7,3.5c0.1,0,0.3,0,0.4,0
					c0.9,0,1.8,0,2.7,0c3.5,0,7.1,0,10.6,0c4.3,0,8.6,0,12.9,0c3.4,0,6.7,0,10.1,0c0.8,0,1.5,0,2.3,0c0.6,0,1.1-0.1,1.7-0.3
					c1.4-0.6,2.3-2,2.3-3.5c0-1.4,0-2.7,0-4.1c0-3.2,0-6.3,0-9.5c0-4.1,0-8.3,0-12.4c0-4.3,0-8.7,0-13c0-3.7,0-7.5,0-11.2
					c0-2.3,0-4.6,0-6.9c0-0.4,0-0.8,0-1.1c0-1.7-1.2-3.3-2.9-3.6c-0.4-0.1-0.7-0.1-1.1-0.1c-2.3,0-4.6,0-6.9,0c-4.1,0-8.2,0-12.2,0
					c-4.1,0-8.3,0-12.4,0c-2.4,0-4.8,0-7.2,0c-0.1,0-0.3,0-0.4,0c-2.1,0-3.7,1.6-3.8,3.7c0,1,0,1.9,0,2.9c0,4,0,8.1,0,12.1
					c0,0.9,0,1.7,0,2.6c0,0.8,0.7,1.6,1.6,1.6c0.8,0,1.6-0.7,1.6-1.6c0-2.9,0-5.8,0-8.7c0-2.9-0.1-5.9,0-8.8v-0.2
					c0.1,0-0.1,0.4,0,0.1v-0.1c0.1-0.2,0-0.1,0,0.1l0.1-0.2c0.2-0.3,0,0,0,0l0.1-0.1c0.1-0.1,0.1-0.1-0.1,0.1c0.1,0,0.1-0.1,0.2-0.1
					l0.2-0.1c-0.1,0-0.1,0.1-0.2,0.1c0.1,0,0.1,0,0.2-0.1c0.3-0.1-0.1,0.1-0.1,0h0.2l0,0c0.2,0,0.4,0,0.5,0c0.9,0,1.9,0,2.8,0
					c3.5,0,7,0,10.5,0c4.3,0,8.6,0,12.8,0c3.3,0,6.7,0,10,0c0.8,0,1.6,0,2.4,0c0.1,0,0.1,0,0.2,0l0,0l0,0h0.1c0.2,0,0.1,0-0.1,0
					c0.1,0,0.1,0,0.2,0c0.3,0-0.1,0-0.1,0s0.2,0.1,0.3,0.1c0.2,0.1-0.1,0-0.1-0.1l0.2,0.2c0,0-0.2-0.3-0.1-0.1c0,0,0.2,0.3,0.1,0.3
					c0,0-0.1-0.4,0-0.1c0,0.1,0,0.1,0.1,0.2c0-0.2,0-0.3,0-0.2c0,0.1,0,0.1,0,0.2c0,1.4,0,2.8,0,4.2c0,3.1,0,6.3,0,9.4
					c0,4.1,0,8.2,0,12.2c0,4.3,0,8.5,0,12.8c0,3.7,0,7.4,0,11.1c0,2.3,0,4.7,0,7c0,0.4,0,0.9,0,1.3l0,0l0,0l0,0c0,0.1,0,0.1,0,0.2
					c0-0.2,0-0.3,0-0.1l-0.1,0.2c0-0.1,0.1-0.1,0.1-0.2c0,0.1-0.1,0.1-0.1,0.2l-0.1,0.2c0-0.1,0.1-0.1,0.1-0.2
					c0,0.1-0.1,0.1-0.1,0.1s-0.1,0.1-0.2,0.1l0.1-0.1c-0.1,0-0.1,0.1-0.2,0.1c-0.2,0.1,0.1-0.1,0.1,0c-0.1,0-0.1,0-0.2,0.1
					c-0.1,0-0.1,0,0,0h0.1c-0.1,0-0.1,0-0.2,0l0,0l0,0c0,0,0,0-0.1,0s-0.2,0-0.2,0c-2.3,0-4.6,0-6.8,0c-4,0-8.1,0-12.1,0
					c-4.1,0-8.2,0-12.2,0c-2.5,0-4.9,0-7.4,0c-0.2,0-0.3,0-0.5,0h-0.1c-0.3,0,0.1,0,0.1,0l-0.3-0.1c0,0,0.4,0.2,0.1,0
					c-0.1,0-0.1-0.1-0.2-0.1c0.2,0.1,0.2,0.2,0.1,0.1c0-0.1-0.1-0.1-0.2-0.2c-0.2-0.2,0.1,0.2,0,0c0-0.1-0.1-0.2-0.1-0.2
					c-0.2-0.3,0.1,0.2,0,0l-0.1-0.3c0,0,0,0.4,0,0c0,0,0,0,0-0.1c0-1,0-2,0-3c0-4,0-8,0-11.9c0-0.8,0-1.7,0-2.5s-0.7-1.6-1.6-1.6
					C272.8,160,272.1,160.6,272.1,161.5L272.1,161.5z"/>
			</g>
		</g>
		<g>
			<g>
				<path class="st13" d="M256.1,151.4c1.5,0,3,0,4.5,0c3.6,0,7.3,0,10.9,0c4.4,0,8.8,0,13.2,0c3.8,0,7.6,0,11.4,0
					c1.8,0,3.7,0,5.5,0h0.1c0.8,0,1.6-0.7,1.6-1.6s-0.7-1.6-1.6-1.6c-1.5,0-3,0-4.5,0c-3.6,0-7.3,0-10.9,0c-4.4,0-8.8,0-13.2,0
					c-3.8,0-7.6,0-11.4,0c-1.8,0-3.7,0-5.5,0h-0.1c-0.8,0-1.6,0.7-1.6,1.6C254.6,150.7,255.2,151.4,256.1,151.4L256.1,151.4z"/>
			</g>
		</g>
		<g>
			<g>
				<path class="st13" d="M289.5,139.7c1.3,1.3,2.5,2.5,3.8,3.8c2,2,4,4,6,6c0.5,0.5,0.9,0.9,1.4,1.4c0-0.7,0-1.5,0-2.2
					c-1.3,1.3-2.5,2.5-3.8,3.8c-2,2-4,4-6,6c-0.5,0.5-0.9,0.9-1.4,1.4c-0.6,0.6-0.6,1.6,0,2.2c0.6,0.6,1.6,0.6,2.2,0
					c1.3-1.3,2.5-2.5,3.8-3.8c2-2,4-4,6-6c0.5-0.5,0.9-0.9,1.4-1.4c0.6-0.6,0.6-1.6,0-2.2c-1.3-1.3-2.5-2.5-3.8-3.8c-2-2-4-4-6-6
					c-0.5-0.5-0.9-0.9-1.4-1.4c-0.6-0.6-1.6-0.6-2.2,0S288.9,139.1,289.5,139.7L289.5,139.7z"/>
			</g>
		</g>
	</g>
</g>
</svg>
