<?xml version="1.0" encoding="utf-8"?>
<!-- Generator: Adobe Illustrator 16.0.0, SVG Export Plug-In . SVG Version: 6.00 Build 0)  -->
<!DOCTYPE svg PUBLIC "-//W3C//DTD SVG 1.1//EN" "http://www.w3.org/Graphics/SVG/1.1/DTD/svg11.dtd">
<svg version="1.1" id="Layer_1" xmlns="http://www.w3.org/2000/svg" xmlns:xlink="http://www.w3.org/1999/xlink" x="0px" y="0px"
	 width="50px" height="50px" viewBox="0 0 50 50" enable-background="new 0 0 50 50" xml:space="preserve">
<circle fill="none" stroke="#BF973F" stroke-linecap="round" stroke-linejoin="round" stroke-miterlimit="10" cx="25" cy="25" r="24.125"/>
<g>
	<path fill-rule="evenodd" clip-rule="evenodd" fill="#BF973F" d="M12.796,26.796c-0.322,0-0.593,0.008-0.865-0.001
		c-0.345-0.011-0.495-0.161-0.501-0.507c-0.008-0.424-0.007-0.847,0-1.27c0.005-0.37,0.148-0.511,0.514-0.518
		c0.27-0.004,0.54-0.001,0.831-0.001c0-2.018,0-4.006,0-6.039c-0.34,0-0.679-0.002-1.017,0.001c-0.221,0.001-0.425-0.024-0.539-0.25
		c-0.118-0.233,0.011-0.402,0.146-0.572c1.777-2.217,3.552-4.434,5.329-6.649c0.345-0.43,0.584-0.426,0.934,0.009
		c1.771,2.209,3.54,4.417,5.31,6.626c0.135,0.168,0.272,0.334,0.164,0.57c-0.112,0.245-0.329,0.268-0.56,0.265
		c-0.33-0.004-0.66-0.001-1.007-0.001c0,2.021,0,4.009,0,6.04c0.291,0,0.569-0.004,0.848,0.001c0.347,0.007,0.494,0.149,0.5,0.5
		c0.008,0.423,0.008,0.846,0,1.27c-0.006,0.376-0.158,0.518-0.546,0.524c-0.26,0.005-0.52,0-0.82,0c0,0.146,0,0.264,0,0.381
		c0,3.828,0,7.657,0,11.486c0,0.565-0.099,0.665-0.666,0.665c-0.353,0-0.706,0.002-1.058,0c-0.434-0.003-0.571-0.142-0.573-0.584
		c-0.002-0.613,0-1.227,0-1.86c-1.38,0-2.734,0-4.127,0c0,0.591,0,1.173,0,1.753c0,0.586-0.103,0.691-0.679,0.691
		c-0.343,0-0.685,0.001-1.027,0c-0.465-0.002-0.591-0.126-0.591-0.589c0-3.85,0-7.698,0-11.547
		C12.796,27.073,12.796,26.955,12.796,26.796z M21.832,17.6c-1.582-1.973-3.121-3.892-4.675-5.831
		c-1.57,1.96-3.106,3.878-4.671,5.831C15.628,17.6,18.696,17.6,21.832,17.6z M20.654,18.48c-2.347,0-4.667,0-6.994,0
		c0,2.008,0,3.997,0,6.002c2.337,0,4.657,0,6.994,0C20.654,22.478,20.654,20.49,20.654,18.48z M19.204,26.818
		c-1.381,0-2.734,0-4.093,0c0,0.652,0,1.282,0,1.927c1.37,0,2.724,0,4.093,0C19.204,28.1,19.204,27.47,19.204,26.818z
		 M13.666,26.812c0,3.909,0,7.781,0,11.652c0.2,0,0.377,0,0.563,0c0-3.89,0-7.764,0-11.652
		C14.034,26.812,13.857,26.812,13.666,26.812z M20.646,38.473c0-3.881,0-7.762,0-11.651c-0.188,0-0.372,0-0.558,0
		c0,3.896,0,7.77,0,11.651C20.279,38.473,20.45,38.473,20.646,38.473z M19.203,31.169c0-0.532,0-1.03,0-1.542
		c-1.372,0-2.725,0-4.086,0c0,0.524,0,1.03,0,1.542C16.487,31.169,17.833,31.169,19.203,31.169z M19.21,32.048
		c-1.387,0-2.74,0-4.1,0c0,0.521,0,1.021,0,1.525c1.377,0,2.736,0,4.1,0C19.21,33.054,19.21,32.563,19.21,32.048z M15.11,35.996
		c1.381,0,2.734,0,4.093,0c0-0.52,0-1.019,0-1.532c-1.37,0-2.723,0-4.093,0C15.11,34.979,15.11,35.478,15.11,35.996z M22.025,25.368
		c-3.264,0-6.493,0-9.73,0c0,0.197,0,0.373,0,0.555c3.255,0,6.491,0,9.73,0C22.025,25.726,22.025,25.558,22.025,25.368z"/>
	<path fill-rule="evenodd" clip-rule="evenodd" fill="#BF973F" d="M34.134,38.481c0-1.437,0-2.843,0-4.266
		c-0.127-0.034-0.252-0.063-0.374-0.102c-0.866-0.265-1.411-0.871-1.639-1.713c-0.185-0.684-0.327-1.4-0.342-2.105
		c-0.066-3.007,0.361-5.945,1.476-8.753c0.229-0.579,0.579-1.136,0.979-1.613c0.646-0.768,1.446-0.743,2.135-0.01
		c0.687,0.731,1.049,1.645,1.336,2.58c0.826,2.687,1.25,5.434,1.088,8.25c-0.029,0.517-0.135,1.039-0.283,1.537
		c-0.332,1.128-0.888,1.629-2.045,1.926c0,1.41,0,2.825,0,4.27c0.277,0,0.546-0.003,0.815,0.001c0.301,0.007,0.488,0.17,0.492,0.416
		c0.003,0.251-0.184,0.427-0.48,0.428c-1.33,0.004-2.661,0.004-3.991,0c-0.299-0.001-0.484-0.176-0.48-0.428
		c0.003-0.246,0.191-0.411,0.492-0.416C33.581,38.479,33.851,38.481,34.134,38.481z M32.591,29.593
		c0.024,0.828,0.021,1.736,0.342,2.604c0.276,0.745,0.799,1.176,1.601,1.211c0.532,0.023,1.067,0.026,1.598-0.007
		c0.693-0.044,1.219-0.397,1.452-1.053c0.178-0.496,0.323-1.025,0.355-1.549c0.187-2.962-0.273-5.839-1.263-8.629
		c-0.192-0.543-0.476-1.067-0.795-1.549c-0.362-0.542-0.757-0.523-1.167-0.019c-0.112,0.14-0.224,0.29-0.3,0.452
		c-0.198,0.417-0.407,0.833-0.561,1.267C33.036,24.648,32.661,27.055,32.591,29.593z M35.582,38.469c0-1.4,0-2.775,0-4.155
		c-0.199,0-0.383,0-0.572,0c0,1.395,0,2.768,0,4.155C35.202,38.469,35.38,38.469,35.582,38.469z"/>
	<path fill-rule="evenodd" clip-rule="evenodd" fill="#BF973F" d="M24.564,37.414c0,0.358,0,0.708,0,1.057
		c0,0.121,0.004,0.242-0.001,0.363c-0.014,0.308-0.17,0.489-0.418,0.492c-0.25,0.003-0.417-0.179-0.424-0.483
		c-0.009-0.362-0.002-0.726-0.003-1.088c0-0.108,0-0.218,0-0.362c-0.227,0-0.425,0.006-0.624-0.001
		c-0.285-0.011-0.454-0.169-0.456-0.417c-0.002-0.251,0.165-0.415,0.447-0.426c0.199-0.008,0.398-0.002,0.633-0.002
		c0-0.631-0.001-1.232,0-1.833c0-0.132-0.004-0.263,0.012-0.393c0.029-0.233,0.175-0.365,0.405-0.369
		c0.23-0.002,0.378,0.126,0.414,0.358c0.019,0.118,0.021,0.237,0.033,0.375c1.853,0,3.691,0,5.557,0
		c0.006-0.095,0.011-0.191,0.018-0.288c0.02-0.273,0.19-0.452,0.43-0.448c0.238,0.005,0.412,0.187,0.414,0.463
		c0.006,0.695,0.001,1.39,0.001,2.135c0.206,0,0.402-0.004,0.598,0.001c0.298,0.007,0.487,0.172,0.489,0.42
		c0.002,0.249-0.185,0.415-0.483,0.425c-0.182,0.006-0.362,0.006-0.543,0.01c-0.009,0-0.017,0.01-0.059,0.037
		c0,0.427,0.001,0.877,0,1.326c-0.003,0.354-0.149,0.552-0.411,0.56c-0.272,0.009-0.434-0.198-0.436-0.565
		c-0.002-0.441-0.001-0.883-0.001-1.346C28.293,37.414,26.446,37.414,24.564,37.414z M30.136,36.529c0-0.328,0-0.643,0-0.957
		c-1.86,0-3.696,0-5.553,0c0,0.326,0,0.633,0,0.957C26.431,36.529,28.27,36.529,30.136,36.529z"/>
	<path fill-rule="evenodd" clip-rule="evenodd" fill="#BF973F" d="M34.351,15.687c-0.424,0-0.847,0.012-1.27-0.003
		c-0.698-0.024-1.214-0.354-1.498-0.993c-0.28-0.629-0.166-1.217,0.26-1.753c0.08-0.101,0.15-0.212,0.206-0.327
		c0.37-0.749,1.235-1.062,2.002-0.73c0.132,0.056,0.285,0.087,0.428,0.09c0.653,0.013,1.13,0.302,1.451,0.871
		c0.073,0.126,0.193,0.249,0.321,0.316c0.54,0.284,0.845,0.876,0.724,1.464c-0.122,0.602-0.642,1.039-1.265,1.064
		c-0.02,0.001-0.04,0.001-0.06,0.001C35.217,15.687,34.783,15.687,34.351,15.687z M34.367,14.84c0.412,0,0.826,0.004,1.238-0.001
		c0.329-0.004,0.525-0.168,0.544-0.443c0.019-0.283-0.142-0.475-0.47-0.516c-0.262-0.032-0.389-0.169-0.441-0.417
		c-0.104-0.488-0.396-0.671-0.896-0.632c-0.174,0.014-0.376-0.036-0.53-0.122c-0.422-0.234-0.851-0.094-1.037,0.358
		c-0.051,0.125-0.125,0.251-0.218,0.349c-0.255,0.267-0.353,0.565-0.21,0.91c0.141,0.341,0.412,0.51,0.782,0.513
		C33.541,14.843,33.954,14.84,34.367,14.84z"/>
	<path fill-rule="evenodd" clip-rule="evenodd" fill="#BF973F" d="M27.314,20.936c-0.401,0-0.805,0.003-1.208,0
		c-0.733-0.006-1.256-0.399-1.401-1.044c-0.143-0.644,0.147-1.192,0.797-1.525c0.079-0.041,0.152-0.123,0.193-0.203
		c0.325-0.655,0.851-0.965,1.579-0.953c0.104,0.002,0.216-0.03,0.313-0.073c0.806-0.353,1.653-0.044,2.037,0.745
		c0.049,0.097,0.108,0.192,0.178,0.275c0.447,0.538,0.558,1.137,0.279,1.775c-0.279,0.641-0.805,0.965-1.498,0.996
		c-0.422,0.02-0.846,0.003-1.269,0.003C27.314,20.935,27.314,20.936,27.314,20.936z M27.291,20.089c0,0,0-0.001,0-0.001
		c0.422,0,0.845,0.01,1.267-0.003c0.361-0.013,0.637-0.184,0.766-0.534c0.124-0.336,0.037-0.627-0.21-0.884
		c-0.087-0.091-0.171-0.2-0.216-0.316c-0.204-0.51-0.617-0.644-1.087-0.364c-0.126,0.075-0.304,0.119-0.448,0.101
		c-0.53-0.067-0.837,0.117-0.943,0.634c-0.049,0.243-0.177,0.367-0.414,0.407c-0.331,0.055-0.506,0.239-0.491,0.5
		c0.016,0.274,0.232,0.455,0.569,0.46C26.486,20.094,26.888,20.089,27.291,20.089z"/>
	<path fill-rule="evenodd" clip-rule="evenodd" fill="#BF973F" d="M15.31,16.194c-0.382-0.012-0.589-0.368-0.398-0.633
		c0.323-0.446,0.674-0.872,1.031-1.292c0.148-0.174,0.358-0.179,0.543-0.039c0.183,0.139,0.246,0.347,0.11,0.531
		c-0.334,0.45-0.691,0.885-1.051,1.314C15.481,16.151,15.356,16.172,15.31,16.194z"/>
	<path fill-rule="evenodd" clip-rule="evenodd" fill="#BF973F" d="M17.184,19.123c1.308,0.016,2.343,1.075,2.331,2.388
		c-0.012,1.277-1.093,2.338-2.371,2.325c-1.316-0.014-2.364-1.092-2.344-2.411C14.818,20.14,15.886,19.108,17.184,19.123z
		 M17.154,19.972c-0.83,0-1.501,0.665-1.507,1.491c-0.005,0.834,0.677,1.522,1.514,1.526c0.813,0.003,1.504-0.685,1.506-1.501
		C18.67,20.644,17.999,19.972,17.154,19.972z"/>
</g>
</svg>
