<?xml version="1.0" encoding="utf-8"?>
<!-- Generator: Adobe Illustrator 16.0.0, SVG Export Plug-In . SVG Version: 6.00 Build 0)  -->
<!DOCTYPE svg PUBLIC "-//W3C//DTD SVG 1.1//EN" "http://www.w3.org/Graphics/SVG/1.1/DTD/svg11.dtd">
<svg version="1.1" id="Layer_1" xmlns="http://www.w3.org/2000/svg" xmlns:xlink="http://www.w3.org/1999/xlink" x="0px" y="0px"
	 width="50px" height="50px" viewBox="0 0 50 50" enable-background="new 0 0 50 50" xml:space="preserve">
<circle fill="none" stroke="#BF973F" stroke-linecap="round" stroke-linejoin="round" stroke-miterlimit="10" cx="25" cy="25" r="24.125"/>
<g>
	<path fill-rule="evenodd" clip-rule="evenodd" fill="#BF973F" d="M8.441,28.362C8.658,28.238,8.86,28.062,9.093,28
		c1.035-0.274,2.087-0.442,3.163-0.29c0.182,0.025,0.26-0.032,0.333-0.2c0.495-1.141,1.293-2.053,2.209-2.871
		c0.252-0.225,0.495-0.221,0.753,0.011c0.888,0.799,1.667,1.686,2.159,2.79c0.083,0.186,0.182,0.226,0.369,0.201
		c1.154-0.154,2.275,0.039,3.382,0.346c0.33,0.092,0.498,0.331,0.417,0.627c-0.392,1.431-0.954,2.771-2.092,3.79
		c-0.111,0.1-0.231,0.189-0.36,0.295c0.609,1.317,0.673,2.701,0.528,4.111c-0.043,0.419-0.235,0.639-0.603,0.601
		c-1.353-0.134-2.652-0.448-3.797-1.23c-0.142-0.097-0.273-0.207-0.417-0.316c-1.172,0.991-2.581,1.348-4.05,1.54
		c-0.499,0.064-0.719-0.122-0.768-0.627c-0.137-1.389-0.075-2.753,0.523-4.054c-1.267-0.986-1.89-2.355-2.336-3.83
		c-0.015-0.049-0.043-0.095-0.066-0.142C8.441,28.621,8.441,28.492,8.441,28.362z M13.495,28.012
		c1.253,0.685,2.284,1.516,2.189,3.152c0.489-0.112,0.863-0.349,1.042-0.774c0.155-0.37,0.285-0.776,0.302-1.173
		c0.066-1.515-0.922-2.491-1.845-3.525C14.472,26.391,13.874,27.11,13.495,28.012z M14.305,31.775
		c-0.594-0.188-1.062-0.087-1.582,0.317c-1.101,0.856-1.745,2.834-1.37,4.202c1.045-0.036,2.604-0.67,3.107-1.271
		C13.803,33.986,13.582,32.912,14.305,31.775z M18.966,36.344c0.049-1.133,0.013-2.185-0.479-3.187
		c-1.276,0.439-2.4,0.316-3.338-0.852c-0.095,0.295-0.207,0.529-0.24,0.772c-0.066,0.483,0.133,0.906,0.378,1.308
		C16.117,35.747,17.514,36.032,18.966,36.344z M14.644,30.772c-0.074-0.534-0.271-0.859-0.687-1.228
		c-0.873-0.774-1.913-0.936-3.022-0.825c-0.442,0.044-0.881,0.127-1.347,0.194c0.422,1.159,0.875,2.21,1.854,2.953
		C12.319,30.956,13.298,30.363,14.644,30.772z M18.081,28.684c0.02,1.453-0.302,2.697-1.734,3.383
		c0.383,0.279,0.771,0.347,1.193,0.272c1.508-0.268,2.922-1.823,3.15-3.482C19.838,28.665,18.982,28.54,18.081,28.684z"/>
	<path fill-rule="evenodd" clip-rule="evenodd" fill="#BF973F" d="M41.56,33.278c-0.141,0.472-0.235,0.964-0.434,1.41
		c-0.574,1.293-1.571,2.138-2.926,2.529c-0.438,0.127-0.91,0.188-1.368,0.191c-2.025,0.021-4.052,0.018-6.077,0.007
		c-1.645-0.009-2.947-0.695-3.906-2.033c-0.529-0.74-0.768-1.578-0.809-2.477c-0.021-0.477,0.173-0.662,0.657-0.662
		c2.047-0.001,4.095-0.001,6.143-0.001c0.129,0,0.258,0,0.413,0c0-0.357,0-0.707,0-1.085c-0.073-0.031-0.17-0.071-0.267-0.111
		c-1.006-0.423-1.535-1.459-1.112-2.457c0.419-0.983,0.977-1.911,1.509-2.843c0.196-0.343,0.652-0.322,0.855,0.033
		c0.505,0.886,1.039,1.764,1.444,2.698c0.48,1.11-0.043,2.168-1.174,2.606c-0.06,0.023-0.118,0.05-0.185,0.078
		c0,0.346,0,0.688,0,1.081c0.117,0,0.23,0,0.344,0c2.048,0,4.095,0.006,6.143-0.006c0.315-0.002,0.565,0.066,0.749,0.33
		C41.56,32.805,41.56,33.041,41.56,33.278z M39.423,35.349c-0.207,0-0.326,0-0.443,0c-2.36,0-4.72,0-7.08-0.001
		c-0.441,0-0.68-0.178-0.687-0.506c-0.008-0.342,0.238-0.527,0.698-0.528c0.765-0.001,1.53,0,2.295,0
		c1.896,0,3.793,0.002,5.689-0.006c0.109,0,0.283-0.046,0.315-0.118c0.121-0.278,0.196-0.577,0.297-0.893c-4.499,0-8.933,0-13.418,0
		c0.085,0.286,0.164,0.54,0.235,0.797c0.048,0.172,0.146,0.229,0.328,0.225c0.624-0.013,1.25-0.007,1.875-0.004
		c0.407,0.001,0.644,0.193,0.644,0.516s-0.237,0.516-0.644,0.518c-0.426,0.003-0.852,0.001-1.355,0.001
		c0.693,0.654,1.448,1.008,2.311,1.02c2.208,0.027,4.418,0.027,6.626,0C37.973,36.357,38.729,36.003,39.423,35.349z M33.866,27.056
		c-0.045-0.001-0.09-0.002-0.135-0.003c-0.296,0.604-0.612,1.199-0.88,1.815c-0.192,0.44-0.051,0.836,0.323,1.104
		c0.378,0.271,0.892,0.267,1.265-0.013c0.355-0.267,0.492-0.658,0.307-1.085C34.477,28.259,34.161,27.662,33.866,27.056z"/>
	<path fill-rule="evenodd" clip-rule="evenodd" fill="#BF973F" d="M27.184,27.226c0.853,0.282,1.555,0.736,2.096,1.423
		c0.407,0.517,0.672,1.099,0.813,1.739c0.018,0.084,0.029,0.171,0.032,0.257c0.013,0.291-0.161,0.524-0.429,0.555
		c-0.283,0.031-0.48-0.097-0.565-0.371c-0.06-0.195-0.088-0.4-0.152-0.594c-0.417-1.257-1.58-2.11-2.909-2.128
		c-0.83-0.012-1.66-0.001-2.489-0.004c-0.41-0.001-0.645-0.191-0.647-0.514c-0.001-0.324,0.234-0.517,0.641-0.52
		c0.496-0.003,0.992,0.009,1.488-0.004c0.914-0.023,1.692-0.643,1.92-1.549c-0.121,0-0.233,0-0.345,0c-1.833,0-3.665,0-5.497,0
		c-0.097,0-0.195,0.005-0.291-0.003c-0.304-0.026-0.511-0.244-0.504-0.526c0.006-0.27,0.205-0.476,0.494-0.502
		c0.107-0.01,0.215-0.004,0.323-0.004c1.929,0,3.857,0,5.788,0c-0.041-0.628-0.69-1.304-1.432-1.481
		c-0.187-0.045-0.383-0.067-0.575-0.068c-2.371-0.005-4.743-0.001-7.114-0.004c-0.503-0.001-0.952,0.141-1.353,0.446
		c-0.333,0.254-0.625,0.245-0.824-0.012c-0.193-0.249-0.129-0.574,0.195-0.8c0.289-0.202,0.604-0.365,0.938-0.563
		c-0.519-0.707-0.741-1.508-0.469-2.397c0.271-0.89,0.878-1.454,1.747-1.75c-0.616-1.21-0.268-2.349,0.771-2.968
		c0-0.397-0.052-0.754,0.011-1.089c0.136-0.719,0.744-1.197,1.475-1.21c0.679-0.011,1.358-0.008,2.037-0.002
		c1.143,0.011,1.854,0.995,1.51,2.085c-0.015,0.05-0.031,0.1-0.044,0.143c1.243,1.004,1.453,1.73,0.869,3.035
		c0.855,0.305,1.474,0.858,1.744,1.746c0.269,0.882,0.071,1.679-0.494,2.434c1.077,0.412,1.808,1.142,2.076,2.261
		C28.283,25.394,27.96,26.366,27.184,27.226z M25.435,20.859c-0.181,0-0.297,0-0.413,0c-1.508,0-3.016,0.001-4.524,0
		c-0.432,0-0.674-0.192-0.67-0.523c0.004-0.331,0.242-0.509,0.682-0.511c0.064,0,0.129,0,0.194,0c1.443,0,2.887,0,4.33,0
		c0.114,0,0.228,0,0.351,0c-0.163-0.591-0.719-1.023-1.363-1.028c-1.767-0.012-3.533-0.017-5.3,0
		c-0.823,0.008-1.478,0.714-1.482,1.535c-0.005,0.823,0.64,1.544,1.461,1.554c1.777,0.021,3.555,0.021,5.332-0.001
		C24.679,21.875,25.128,21.511,25.435,20.859z M21.394,15.684c-0.506,0-1.013-0.004-1.52,0.001c-0.629,0.006-1.086,0.45-1.083,1.041
		c0.004,0.574,0.459,1.021,1.067,1.025c1.013,0.007,2.026,0.007,3.039,0c0.608-0.004,1.063-0.45,1.066-1.025
		c0.004-0.587-0.457-1.035-1.083-1.041C22.385,15.68,21.889,15.684,21.394,15.684z M21.352,14.649c0.334,0,0.668,0.006,1.002-0.001
		c0.352-0.007,0.578-0.219,0.573-0.522c-0.004-0.293-0.222-0.504-0.554-0.508c-0.668-0.007-1.337-0.008-2.005,0.001
		c-0.329,0.004-0.544,0.226-0.541,0.52c0.004,0.292,0.222,0.5,0.554,0.508C20.705,14.656,21.028,14.649,21.352,14.649z"/>
	<path fill-rule="evenodd" clip-rule="evenodd" fill="#BF973F" d="M31.21,22.896c0-0.646-0.003-1.293,0.001-1.94
		c0.003-0.381,0.203-0.612,0.516-0.612c0.313,0,0.517,0.231,0.517,0.611c0.004,1.315,0.004,2.63,0,3.945
		c0,0.38-0.203,0.612-0.516,0.613c-0.313,0-0.514-0.232-0.517-0.612C31.207,24.233,31.21,23.565,31.21,22.896z"/>
	<path fill-rule="evenodd" clip-rule="evenodd" fill="#BF973F" d="M36.385,22.932c0,0.646,0.002,1.293-0.001,1.94
		c-0.001,0.408-0.196,0.644-0.52,0.642c-0.322-0.002-0.514-0.239-0.514-0.648c-0.002-1.293-0.002-2.587,0-3.88
		c0.001-0.409,0.194-0.643,0.52-0.641c0.322,0.002,0.513,0.238,0.514,0.647C36.387,21.638,36.385,22.285,36.385,22.932z"/>
	<path fill-rule="evenodd" clip-rule="evenodd" fill="#BF973F" d="M34.314,18.556c0,0.561,0.003,1.121-0.001,1.681
		c-0.002,0.382-0.198,0.615-0.51,0.619c-0.313,0.004-0.521-0.229-0.522-0.605c-0.004-1.143-0.003-2.286,0-3.428
		c0.001-0.383,0.196-0.614,0.509-0.619c0.314-0.004,0.521,0.228,0.523,0.606C34.318,17.392,34.314,17.974,34.314,18.556z"/>
	<path fill-rule="evenodd" clip-rule="evenodd" fill="#BF973F" d="M23.186,34.313c0.571,0,1.143-0.003,1.714,0.001
		c0.382,0.003,0.613,0.201,0.615,0.513c0.002,0.313-0.231,0.519-0.609,0.52c-1.143,0.004-2.285,0.004-3.427,0.001
		c-0.382-0.002-0.613-0.201-0.615-0.514c-0.002-0.315,0.228-0.517,0.609-0.52C22.043,34.311,22.614,34.313,23.186,34.313z"/>
	<path fill-rule="evenodd" clip-rule="evenodd" fill="#BF973F" d="M33.281,23.189c0-0.259-0.01-0.518,0.003-0.776
		c0.014-0.309,0.229-0.516,0.511-0.517s0.508,0.206,0.515,0.513c0.014,0.517,0.013,1.035,0,1.552
		c-0.006,0.308-0.229,0.517-0.511,0.518c-0.281,0.001-0.491-0.207-0.518-0.513c-0.002-0.021-0.001-0.043-0.001-0.064
		C33.28,23.664,33.28,23.427,33.281,23.189L33.281,23.189z"/>
	<path fill-rule="evenodd" clip-rule="evenodd" fill="#BF973F" d="M33.791,14.134c0.281-0.003,0.518,0.229,0.521,0.509
		c0.004,0.28-0.229,0.518-0.509,0.521c-0.28,0.003-0.517-0.229-0.521-0.509C33.279,14.374,33.51,14.138,33.791,14.134z"/>
	<path fill-rule="evenodd" clip-rule="evenodd" fill="#BF973F" d="M32.242,16.723c-0.003,0.28-0.239,0.514-0.52,0.511
		c-0.28-0.002-0.513-0.238-0.51-0.519c0.002-0.281,0.237-0.513,0.519-0.511C32.012,16.207,32.244,16.442,32.242,16.723z"/>
	<path fill-rule="evenodd" clip-rule="evenodd" fill="#BF973F" d="M35.861,16.204c0.28-0.003,0.517,0.229,0.521,0.509
		c0.003,0.28-0.229,0.518-0.509,0.521c-0.28,0.003-0.518-0.229-0.521-0.509C35.35,16.443,35.579,16.208,35.861,16.204z"/>
	<path fill-rule="evenodd" clip-rule="evenodd" fill="#BF973F" d="M32.242,18.785c0.002,0.28-0.231,0.517-0.512,0.519
		c-0.28,0.002-0.516-0.23-0.518-0.511c-0.002-0.282,0.229-0.516,0.511-0.518C32.004,18.272,32.239,18.504,32.242,18.785z"/>
	<path fill-rule="evenodd" clip-rule="evenodd" fill="#BF973F" d="M36.382,18.814c-0.015,0.279-0.263,0.504-0.54,0.489
		c-0.28-0.014-0.503-0.261-0.489-0.541c0.014-0.28,0.26-0.503,0.54-0.489C36.173,18.289,36.396,18.536,36.382,18.814z"/>
	<path fill-rule="evenodd" clip-rule="evenodd" fill="#BF973F" d="M19.305,25.015c-0.009,0.28-0.252,0.508-0.531,0.499
		c-0.28-0.009-0.507-0.25-0.499-0.531c0.009-0.281,0.25-0.508,0.53-0.499S19.314,24.735,19.305,25.015z"/>
</g>
</svg>
