<?xml version="1.0" encoding="utf-8"?>
<!-- Generator: Adobe Illustrator 16.0.0, SVG Export Plug-In . SVG Version: 6.00 Build 0)  -->
<!DOCTYPE svg PUBLIC "-//W3C//DTD SVG 1.1//EN" "http://www.w3.org/Graphics/SVG/1.1/DTD/svg11.dtd">
<svg version="1.1" id="Layer_1" xmlns="http://www.w3.org/2000/svg" xmlns:xlink="http://www.w3.org/1999/xlink" x="0px" y="0px"
	 width="50px" height="50px" viewBox="0 0 50 50" enable-background="new 0 0 50 50" xml:space="preserve">
<circle fill="none" stroke="#BF973F" stroke-linecap="round" stroke-linejoin="round" stroke-miterlimit="10" cx="25" cy="25" r="24.125"/>
<g>
	<path fill-rule="evenodd" clip-rule="evenodd" fill="#BF973F" d="M25.086,23.936c0.977,0,1.912,0,2.917,0
		c-1.561,2.322-3.083,4.585-4.606,6.852c-0.018-0.008-0.035-0.016-0.052-0.021c0.462-1.59,0.925-3.178,1.398-4.804
		c-1.145,0-2.25,0-3.399,0c0.043-0.126,0.07-0.214,0.103-0.299c0.87-2.205,1.742-4.41,2.606-6.617
		c0.075-0.191,0.158-0.272,0.378-0.269c0.823,0.017,1.647,0.007,2.542,0.007C26.335,20.526,25.718,22.209,25.086,23.936z"/>
	<path fill-rule="evenodd" clip-rule="evenodd" fill="#BF973F" d="M20.218,11.679c0.71,1.654,1.419,3.308,2.143,4.991
		c-0.2,0.077-0.388,0.147-0.613,0.234c-0.529-1.748-1.05-3.477-1.572-5.205C20.19,11.692,20.205,11.685,20.218,11.679z"/>
	<path fill-rule="evenodd" clip-rule="evenodd" fill="#BF973F" d="M24.725,33.631c0.251,0.018,0.442,0.031,0.667,0.047
		c-0.219,1.782-0.435,3.533-0.65,5.284c-0.005-0.002-0.011-0.002-0.017-0.004C24.725,37.197,24.725,35.437,24.725,33.631z"/>
	<path fill-rule="evenodd" clip-rule="evenodd" fill="#BF973F" d="M29.773,11.826c-0.508,1.682-1.017,3.364-1.531,5.073
		c-0.216-0.078-0.402-0.146-0.618-0.222c0.707-1.647,1.403-3.269,2.099-4.892C29.738,11.799,29.756,11.813,29.773,11.826z"/>
	<path fill-rule="evenodd" clip-rule="evenodd" fill="#BF973F" d="M33.515,23.696c-0.039-0.223-0.072-0.42-0.111-0.647
		c1.759-0.209,3.493-0.415,5.229-0.622c0.002,0.021,0.006,0.044,0.01,0.065C36.942,22.89,35.242,23.29,33.515,23.696z"/>
	<path fill-rule="evenodd" clip-rule="evenodd" fill="#BF973F" d="M12.893,31.819c1.489-0.976,2.979-1.951,4.49-2.94
		c0.112,0.19,0.214,0.365,0.332,0.565c-1.61,0.814-3.203,1.617-4.796,2.422C12.91,31.851,12.901,31.835,12.893,31.819z"/>
	<path fill-rule="evenodd" clip-rule="evenodd" fill="#BF973F" d="M32.271,29.446c0.114-0.198,0.216-0.371,0.33-0.569
		c1.511,0.989,3.001,1.965,4.491,2.94c-0.009,0.016-0.017,0.031-0.026,0.047C35.476,31.063,33.886,30.261,32.271,29.446z"/>
	<path fill-rule="evenodd" clip-rule="evenodd" fill="#BF973F" d="M11.359,22.427c1.728,0.206,3.456,0.411,5.219,0.621
		c-0.033,0.214-0.064,0.41-0.101,0.648c-1.72-0.403-3.419-0.802-5.118-1.2C11.359,22.474,11.359,22.45,11.359,22.427z"/>
	<path fill-rule="evenodd" clip-rule="evenodd" fill="#BF973F" d="M21.747,32.826c0.227,0.084,0.407,0.151,0.615,0.229
		c-0.705,1.643-1.4,3.263-2.095,4.884c-0.02-0.006-0.038-0.014-0.056-0.02C20.719,36.233,21.227,34.548,21.747,32.826z"/>
	<path fill-rule="evenodd" clip-rule="evenodd" fill="#BF973F" d="M17.716,20.284c-0.115,0.198-0.217,0.372-0.33,0.568
		c-1.506-0.986-2.993-1.96-4.479-2.934c0.009-0.017,0.018-0.033,0.026-0.05C14.52,18.671,16.106,19.472,17.716,20.284z"/>
	<path fill-rule="evenodd" clip-rule="evenodd" fill="#BF973F" d="M37.098,17.907c-1.488,0.976-2.979,1.951-4.491,2.941
		c-0.108-0.181-0.212-0.354-0.338-0.563c1.607-0.812,3.201-1.616,4.793-2.419C37.073,17.879,37.087,17.893,37.098,17.907z"/>
	<path fill-rule="evenodd" clip-rule="evenodd" fill="#BF973F" d="M28.24,32.826c0.521,1.724,1.027,3.405,1.535,5.086
		c-0.02,0.008-0.037,0.016-0.057,0.021c-0.693-1.615-1.388-3.229-2.093-4.874C27.826,32.983,28.015,32.912,28.24,32.826z"/>
	<path fill-rule="evenodd" clip-rule="evenodd" fill="#BF973F" d="M16.145,14.263c1.187,1.263,2.374,2.527,3.576,3.807
		c-0.169,0.143-0.317,0.268-0.501,0.423c-1.05-1.404-2.09-2.794-3.13-4.184C16.107,14.293,16.126,14.278,16.145,14.263z"/>
	<path fill-rule="evenodd" clip-rule="evenodd" fill="#BF973F" d="M33.897,14.309c-1.036,1.386-2.072,2.771-3.127,4.18
		c-0.175-0.146-0.331-0.275-0.504-0.42c1.203-1.28,2.391-2.545,3.578-3.809C33.862,14.277,33.88,14.292,33.897,14.309z"/>
	<path fill-rule="evenodd" clip-rule="evenodd" fill="#BF973F" d="M25.321,16.255c-0.233,0-0.426,0-0.653,0
		c0.097-1.748,0.194-3.482,0.291-5.215c0.023-0.001,0.047-0.001,0.07-0.002C25.125,12.768,25.223,14.497,25.321,16.255z"/>
	<path fill-rule="evenodd" clip-rule="evenodd" fill="#BF973F" d="M11.38,27.231c1.687-0.398,3.374-0.795,5.09-1.197
		c0.039,0.222,0.075,0.418,0.116,0.646c-1.747,0.208-3.47,0.412-5.194,0.618C11.388,27.275,11.384,27.253,11.38,27.231z"/>
	<path fill-rule="evenodd" clip-rule="evenodd" fill="#BF973F" d="M38.597,27.299c-1.718-0.204-3.435-0.408-5.193-0.618
		c0.037-0.219,0.072-0.421,0.111-0.646c1.718,0.402,3.406,0.801,5.094,1.197C38.604,27.253,38.601,27.275,38.597,27.299z"/>
	<path fill-rule="evenodd" clip-rule="evenodd" fill="#BF973F" d="M33.845,35.468c-1.188-1.264-2.375-2.526-3.578-3.808
		c0.171-0.142,0.325-0.271,0.504-0.42c1.053,1.407,2.089,2.793,3.125,4.177C33.878,35.435,33.86,35.452,33.845,35.468z"/>
	<path fill-rule="evenodd" clip-rule="evenodd" fill="#BF973F" d="M19.218,31.236c0.177,0.15,0.325,0.274,0.502,0.424
		c-1.2,1.277-2.389,2.542-3.577,3.808c-0.018-0.016-0.036-0.031-0.054-0.045C17.123,34.039,18.157,32.655,19.218,31.236z"/>
</g>
</svg>
