<?xml version="1.0" encoding="utf-8"?>
<!-- Generator: Adobe Illustrator 16.0.0, SVG Export Plug-In . SVG Version: 6.00 Build 0)  -->
<!DOCTYPE svg PUBLIC "-//W3C//DTD SVG 1.1//EN" "http://www.w3.org/Graphics/SVG/1.1/DTD/svg11.dtd">
<svg version="1.1" id="Layer_1" xmlns="http://www.w3.org/2000/svg" xmlns:xlink="http://www.w3.org/1999/xlink" x="0px" y="0px"
	 width="50px" height="50px" viewBox="0 0 50 50" enable-background="new 0 0 50 50" xml:space="preserve">
<circle fill="none" stroke="#BF973F" stroke-linecap="round" stroke-linejoin="round" stroke-miterlimit="10" cx="25" cy="25" r="24.125"/>
<g>
	<path fill-rule="evenodd" clip-rule="evenodd" fill="#BF973F" d="M30.657,34.366c0,0.736,0,1.441,0,2.177
		c-5.923,0-11.836,0-17.769,0c0-0.73,0-1.442,0-2.177C18.811,34.366,24.716,34.366,30.657,34.366z"/>
	<path fill-rule="evenodd" clip-rule="evenodd" fill="#BF973F" d="M18.629,28.838c2.116,0,4.196,0,6.295,0c0,1.661,0,3.304,0,4.973
		c-2.088,0-4.178,0-6.295,0C18.629,32.165,18.629,30.514,18.629,28.838z M22.347,30.744c-0.017-0.002-0.12-0.049-0.166-0.016
		c-0.276,0.197-0.543,0.191-0.827,0.023c-0.048-0.028-0.127-0.005-0.192-0.005c0.003,0.063-0.017,0.144,0.014,0.186
		c0.197,0.268,0.184,0.531,0.026,0.81c-0.028,0.05-0.015,0.123-0.02,0.186c0.07-0.002,0.158,0.021,0.208-0.012
		c0.264-0.18,0.521-0.181,0.792-0.021c0.051,0.031,0.126,0.02,0.191,0.028c-0.004-0.072,0-0.146-0.015-0.217
		c-0.026-0.116-0.094-0.23-0.093-0.345C22.268,31.179,22.312,30.995,22.347,30.744z"/>
	<path fill-rule="evenodd" clip-rule="evenodd" fill="#BF973F" d="M18.045,28.826c0,1.687,0,3.32,0,4.982c-1.721,0-3.43,0-5.178,0
		c0-0.268,0.001-0.524,0-0.781c-0.003-0.913-0.241-1.238-1.141-1.528c0-0.69-0.026-1.395,0.011-2.095
		c0.018-0.338,0.287-0.567,0.624-0.57C14.244,28.818,16.127,28.826,18.045,28.826z M15.444,30.816c0.026,0,0.051-0.001,0.077-0.001
		c-0.024-0.038-0.042-0.099-0.074-0.108c-0.047-0.015-0.121-0.013-0.156,0.017c-0.271,0.216-0.542,0.186-0.826,0.031
		c-0.05-0.027-0.131-0.02-0.188,0.001c-0.019,0.008-0.032,0.117-0.007,0.15c0.207,0.285,0.216,0.564,0.023,0.861
		c-0.026,0.04,0.001,0.131,0.031,0.183c0.01,0.02,0.114,0.015,0.15-0.014c0.27-0.206,0.539-0.208,0.825-0.034
		c0.049,0.029,0.127,0.008,0.192,0.011c-0.001-0.063,0.008-0.126-0.005-0.186c-0.03-0.136-0.099-0.267-0.103-0.401
		C15.378,31.157,15.421,30.986,15.444,30.816z"/>
	<path fill-rule="evenodd" clip-rule="evenodd" fill="#BF973F" d="M30.676,33.821c-1.751,0-3.442,0-5.154,0c0-1.659,0-3.303,0-5
		c0.109,0,0.222,0,0.334,0c1.695,0,3.392-0.001,5.088,0.001c0.639,0,0.897,0.259,0.901,0.9c0.003,0.506-0.007,1.013,0.004,1.519
		c0.004,0.194-0.046,0.284-0.253,0.339c-0.565,0.147-0.899,0.598-0.918,1.194C30.667,33.113,30.676,33.453,30.676,33.821z
		 M29.341,31.927c-0.229-0.492-0.228-0.492-0.065-1.068c0.012-0.044-0.01-0.123-0.043-0.146c-0.034-0.023-0.117-0.019-0.152,0.009
		c-0.271,0.209-0.54,0.209-0.827,0.037c-0.049-0.029-0.127-0.011-0.19-0.014c0.002,0.063-0.021,0.146,0.01,0.188
		c0.192,0.266,0.179,0.526,0.028,0.805c-0.029,0.056-0.003,0.143-0.003,0.216c0.063-0.011,0.127-0.017,0.188-0.032
		c0.125-0.032,0.251-0.104,0.374-0.099C28.873,31.829,29.085,31.884,29.341,31.927z"/>
	<path fill-rule="evenodd" clip-rule="evenodd" fill="#BF973F" d="M30.667,21.279c-2.118,0-4.237,0-6.356,0
		c-0.524,0-0.573-0.048-0.573-0.558c0-2.249,0-4.497,0-6.745c0-0.473,0.075-0.547,0.556-0.547c4.25,0,8.499,0,12.749,0
		c0.483,0,0.553,0.069,0.553,0.548c0,2.26,0,4.52,0,6.78c-0.001,0.468-0.056,0.522-0.536,0.522
		C34.929,21.279,32.799,21.278,30.667,21.279z M36.937,20.624c0-2.188,0-4.357,0-6.536c-4.195,0-8.366,0-12.534,0
		c0,2.195,0,4.365,0,6.536C28.594,20.624,32.757,20.624,36.937,20.624z"/>
	<path fill-rule="evenodd" clip-rule="evenodd" fill="#BF973F" d="M38.265,27.312c0,2.896,0,5.738,0,8.625
		c0.371,0,0.721,0.004,1.07-0.002c0.224-0.003,0.422,0.05,0.425,0.308c0.003,0.251-0.187,0.329-0.412,0.329
		c-0.941,0-1.883,0.002-2.825,0c-0.22-0.001-0.414-0.061-0.413-0.324c0-0.269,0.198-0.313,0.418-0.312
		c0.34,0.002,0.68,0.001,1.051,0.001c0-2.877,0-5.728,0-8.625c-0.479,0-0.958,0.003-1.436,0c-0.468-0.004-0.587-0.15-0.512-0.615
		c0.181-1.102,0.37-2.203,0.536-3.307c0.051-0.337,0.208-0.458,0.54-0.453c0.812,0.014,1.624,0.018,2.436-0.001
		c0.354-0.008,0.513,0.13,0.564,0.472c0.169,1.115,0.354,2.229,0.532,3.344c0.063,0.392-0.063,0.553-0.461,0.559
		C39.285,27.317,38.792,27.312,38.265,27.312z"/>
	<path fill-rule="evenodd" clip-rule="evenodd" fill="#BF973F" d="M9.766,27.113c0-0.366,0-0.692,0-1.039c5.674,0,11.332,0,17.012,0
		c0,0.348,0,0.682,0,1.039C21.106,27.113,15.449,27.113,9.766,27.113z"/>
	<path fill-rule="evenodd" clip-rule="evenodd" fill="#BF973F" d="M12.356,36.564c-0.68,0-1.313,0.02-1.945-0.008
		c-0.39-0.016-0.651-0.307-0.656-0.701c-0.012-1.035-0.013-2.07,0-3.106c0.005-0.409,0.288-0.68,0.696-0.694
		c0.399-0.013,0.801-0.013,1.2,0c0.41,0.014,0.696,0.282,0.7,0.689C12.363,34.002,12.356,35.26,12.356,36.564z"/>
	<path fill-rule="evenodd" clip-rule="evenodd" fill="#BF973F" d="M31.194,36.567c0-0.267,0-0.488,0-0.709
		c0-0.987-0.004-1.974,0.002-2.962c0.003-0.592,0.251-0.84,0.832-0.846c0.34-0.004,0.682-0.008,1.022,0.001
		c0.462,0.013,0.731,0.268,0.735,0.721c0.01,1.022,0.009,2.045,0,3.067c-0.004,0.415-0.259,0.705-0.668,0.721
		C32.497,36.585,31.875,36.567,31.194,36.567z"/>
	<path fill-rule="evenodd" clip-rule="evenodd" fill="#BF973F" d="M24.746,24.874c-0.356,0.269-0.673,0.508-1.015,0.765
		c-0.717-0.946-1.418-1.872-2.149-2.836c0.336-0.255,0.66-0.501,1.012-0.769C23.309,22.977,24.017,23.911,24.746,24.874z"/>
	<path fill-rule="evenodd" clip-rule="evenodd" fill="#BF973F" d="M10.41,22.255c0.421,0,0.806,0,1.223,0c0,1.17,0,2.334,0,3.526
		c-0.401,0-0.802,0-1.223,0C10.41,24.604,10.41,23.448,10.41,22.255z"/>
	<path fill-rule="evenodd" clip-rule="evenodd" fill="#BF973F" d="M13.633,22.255c0.425,0,0.811,0,1.225,0c0,1.168,0,2.327,0,3.519
		c-0.401,0-0.802,0-1.225,0C13.633,24.606,13.633,23.447,13.633,22.255z"/>
	<path fill-rule="evenodd" clip-rule="evenodd" fill="#BF973F" d="M16.446,25.787c-0.406,0-0.8,0-1.219,0c0-1.175,0-2.335,0-3.518
		c0.402,0,0.795,0,1.219,0C16.446,23.432,16.446,24.599,16.446,25.787z"/>
	<path fill-rule="evenodd" clip-rule="evenodd" fill="#BF973F" d="M18.068,22.268c0,1.171,0,2.33,0,3.514c-0.413,0-0.815,0-1.236,0
		c0-1.174,0-2.333,0-3.514C17.243,22.268,17.646,22.268,18.068,22.268z"/>
	<path fill-rule="evenodd" clip-rule="evenodd" fill="#BF973F" d="M19.679,22.266c0,1.179,0,2.335,0,3.516c-0.412,0-0.805,0-1.227,0
		c0-1.164,0-2.329,0-3.516C18.851,22.266,19.245,22.266,19.679,22.266z"/>
	<path fill-rule="evenodd" clip-rule="evenodd" fill="#BF973F" d="M21.276,22.262c0,1.191,0,2.34,0,3.517c-0.408,0-0.801,0-1.226,0
		c0-1.169,0-2.335,0-3.517C20.458,22.262,20.852,22.262,21.276,22.262z"/>
	<path fill-rule="evenodd" clip-rule="evenodd" fill="#BF973F" d="M13.256,25.788c-0.424,0-0.82,0-1.234,0c0-1.177,0-2.336,0-3.519
		c0.407,0,0.811,0,1.234,0C13.256,23.437,13.256,24.595,13.256,25.788z"/>
	<path fill-rule="evenodd" clip-rule="evenodd" fill="#BF973F" d="M21.748,31.627c-0.084-0.146-0.178-0.24-0.172-0.327
		c0.004-0.063,0.162-0.183,0.208-0.165c0.083,0.032,0.173,0.144,0.183,0.23C21.973,31.429,21.854,31.506,21.748,31.627z"/>
	<path fill-rule="evenodd" clip-rule="evenodd" fill="#BF973F" d="M15.196,31.302c-0.146,0.115-0.224,0.221-0.313,0.229
		c-0.061,0.008-0.186-0.11-0.193-0.182c-0.007-0.069,0.096-0.206,0.159-0.212C14.937,31.131,15.033,31.219,15.196,31.302z"/>
	<path fill-rule="evenodd" clip-rule="evenodd" fill="#BF973F" d="M28.652,31.036c0.105,0.133,0.214,0.211,0.22,0.297
		c0.004,0.065-0.133,0.207-0.183,0.197c-0.087-0.018-0.192-0.116-0.217-0.202C28.455,31.27,28.562,31.175,28.652,31.036z"/>
	<path fill-rule="evenodd" clip-rule="evenodd" fill="#BF973F" d="M24.877,20.145c-0.008-0.121-0.019-0.213-0.019-0.306
		c-0.001-1.648,0.005-3.296-0.007-4.944c-0.002-0.279,0.078-0.357,0.358-0.357c3.637,0.009,7.274,0.009,10.912,0
		c0.274,0,0.366,0.067,0.364,0.353c-0.013,1.648-0.011,3.296-0.001,4.944c0.002,0.263-0.079,0.344-0.342,0.344
		c-3.649-0.007-7.298-0.005-10.948-0.006C25.093,20.172,24.991,20.155,24.877,20.145z M25.102,14.77c0,1.673,0,3.32,0,5.051
		c0.764-1.168,1.479-2.263,2.243-3.431c0.817,1.251,1.577,2.415,2.373,3.632c0.54-0.824,1.038-1.583,1.572-2.398
		c0.117,0.159,0.188,0.247,0.25,0.34c0.368,0.561,0.747,1.115,1.095,1.688c0.148,0.245,0.322,0.323,0.599,0.315
		c0.647-0.019,1.296-0.006,1.944-0.006c0.35,0,0.7,0,1.064,0c0-1.754,0-3.465,0-5.191C32.521,14.77,28.826,14.77,25.102,14.77z"/>
	<path fill-rule="evenodd" clip-rule="evenodd" fill="#BF973F" d="M34.43,15.684c0.373,0.01,0.688,0.337,0.684,0.71
		c-0.004,0.392-0.341,0.708-0.733,0.689c-0.377-0.018-0.684-0.349-0.669-0.722C33.727,15.989,34.06,15.674,34.43,15.684z"/>
</g>
</svg>
