<?xml version="1.0" encoding="utf-8"?>
<!-- Generator: Adobe Illustrator 16.0.0, SVG Export Plug-In . SVG Version: 6.00 Build 0)  -->
<!DOCTYPE svg PUBLIC "-//W3C//DTD SVG 1.1//EN" "http://www.w3.org/Graphics/SVG/1.1/DTD/svg11.dtd">
<svg version="1.1" id="Layer_1" xmlns="http://www.w3.org/2000/svg" xmlns:xlink="http://www.w3.org/1999/xlink" x="0px" y="0px"
	 width="50px" height="50px" viewBox="0 0 50 50" enable-background="new 0 0 50 50" xml:space="preserve">
<circle fill="none" stroke="#BF973F" stroke-linecap="round" stroke-linejoin="round" stroke-miterlimit="10" cx="25" cy="25" r="24.125"/>
<g>
	<path fill-rule="evenodd" clip-rule="evenodd" fill="#BF973F" d="M30.691,29.349c-0.72,0-1.44,0.006-2.16-0.004
		c-0.193-0.003-0.247,0.061-0.263,0.249c-0.107,1.339-1.238,2.378-2.591,2.396c-1.34,0.018-2.492-1.036-2.611-2.401
		c-0.017-0.193-0.085-0.244-0.271-0.243c-1.219,0.006-2.438,0.023-3.656-0.006c-3.339-0.081-6.108-2.305-6.932-5.542
		c-0.9-3.532,1.083-7.295,4.499-8.559c1.287-0.476,2.6-0.603,3.946-0.332c0.183,0.037,0.281-0.012,0.393-0.154
		c1.548-1.969,3.577-3.01,6.083-3.067c3.757-0.085,7.083,2.702,7.686,6.417c0.03,0.187,0.1,0.305,0.278,0.399
		c2.067,1.087,3.246,3.457,2.842,5.766c-0.393,2.246-1.614,3.864-3.737,4.756c-0.576,0.242-1.188,0.332-1.813,0.327
		C31.818,29.345,31.255,29.349,30.691,29.349z M30.412,28.39c0.638,0,1.275,0.017,1.912-0.007c0.375-0.013,0.76-0.044,1.12-0.143
		c1.361-0.373,2.331-1.252,2.977-2.478c0.823-1.562,0.864-3.144-0.02-4.704c-0.475-0.837-1.173-1.44-2.046-1.838
		c-0.27-0.123-0.405-0.305-0.443-0.606c-0.234-1.832-1.05-3.357-2.507-4.497c-1.783-1.395-3.804-1.786-5.983-1.219
		c-1.564,0.408-2.808,1.316-3.749,2.636c-0.353,0.495-0.389,0.491-0.969,0.363c-1.808-0.4-3.5-0.101-5.011,0.964
		c-2.647,1.866-3.497,5.165-2.032,8.051c1.054,2.079,2.806,3.264,5.143,3.427c1.425,0.099,2.862,0.041,4.292,0.043
		c0.079,0,0.197-0.089,0.231-0.165c0.505-1.138,1.189-2.167,1.907-3.175c0.233-0.328,0.625-0.333,0.856-0.01
		c0.716,0.999,1.397,2.019,1.89,3.151c0.073,0.167,0.156,0.212,0.325,0.209C29.008,28.385,29.71,28.39,30.412,28.39z M25.726,26.077
		c-0.523,0.613-1.447,2.26-1.64,2.882c-0.286,0.924,0.402,1.931,1.364,2.047c1.201,0.145,2.31-1.064,1.695-2.313
		C26.716,27.818,26.218,26.978,25.726,26.077z"/>
	<path fill-rule="evenodd" clip-rule="evenodd" fill="#BF973F" d="M32.461,38.316c-1.905-0.042-3.073-1.965-2.479-3.471
		c0.438-1.109,1.073-2.097,1.726-3.081c0.106-0.161,0.216-0.322,0.338-0.473c0.21-0.259,0.6-0.275,0.789-0.008
		c0.81,1.144,1.604,2.297,2.092,3.631c0.45,1.236-0.265,2.702-1.531,3.177C33.098,38.204,32.773,38.243,32.461,38.316z
		 M32.444,32.396c-0.6,0.928-1.213,1.804-1.56,2.824c-0.076,0.226-0.091,0.493-0.059,0.73c0.128,0.926,1.099,1.543,2.023,1.311
		c0.917-0.23,1.46-1.178,1.154-2.058C33.653,34.192,33.046,33.322,32.444,32.396z"/>
	<path fill-rule="evenodd" clip-rule="evenodd" fill="#BF973F" d="M17.924,38.275c-1.897-0.001-3.061-1.927-2.465-3.432
		c0.426-1.074,1.034-2.034,1.664-2.989c0.126-0.192,0.257-0.383,0.401-0.563c0.207-0.259,0.6-0.273,0.789-0.006
		c0.793,1.122,1.554,2.259,2.065,3.552C20.985,36.377,19.784,38.272,17.924,38.275z M17.935,32.415
		c-0.53,0.662-1.382,2.179-1.581,2.799c-0.214,0.669,0.016,1.353,0.599,1.783c0.563,0.416,1.372,0.414,1.939-0.005
		c0.58-0.427,0.818-1.12,0.587-1.785C19.13,34.196,18.518,33.328,17.935,32.415z"/>
	<path fill-rule="evenodd" clip-rule="evenodd" fill="#BF973F" d="M32.681,19.108c0,0.135,0.008,0.237-0.002,0.337
		c-0.027,0.27-0.219,0.456-0.466,0.463c-0.227,0.007-0.438-0.161-0.479-0.414c-0.038-0.227-0.034-0.46-0.068-0.687
		c-0.343-2.24-2.054-3.813-4.314-3.97c-0.074-0.005-0.147-0.006-0.221-0.013c-0.31-0.029-0.493-0.218-0.485-0.494
		c0.008-0.276,0.207-0.458,0.517-0.459c0.952-0.004,1.851,0.227,2.669,0.706C31.577,15.595,32.512,17.13,32.681,19.108z"/>
</g>
</svg>
