<?xml version="1.0" encoding="utf-8"?>
<!-- Generator: Adobe Illustrator 16.0.0, SVG Export Plug-In . SVG Version: 6.00 Build 0)  -->
<!DOCTYPE svg PUBLIC "-//W3C//DTD SVG 1.1//EN" "http://www.w3.org/Graphics/SVG/1.1/DTD/svg11.dtd">
<svg version="1.1" id="Layer_1" xmlns="http://www.w3.org/2000/svg" xmlns:xlink="http://www.w3.org/1999/xlink" x="0px" y="0px"
	 width="50px" height="50px" viewBox="0 0 50 50" enable-background="new 0 0 50 50" xml:space="preserve">
<circle fill="none" stroke="#BF973F" stroke-linecap="round" stroke-linejoin="round" stroke-miterlimit="10" cx="25" cy="25" r="24.125"/>
<g>
	<path fill-rule="evenodd" clip-rule="evenodd" fill="#BF973F" d="M12.894,29.77c0.183-0.402,0.492-0.555,0.928-0.525
		c0.36,0.021,0.72,0.005,1.119,0.005c0-0.11,0-0.199,0-0.288c0-1.796,0-3.592,0-5.388c0-0.64,0.254-0.898,0.881-0.898
		c6.121,0,12.242,0,18.363,0c0.627,0,0.881,0.258,0.881,0.898c0,1.788,0,3.575,0,5.363c0,0.093,0,0.187,0,0.313
		c0.381,0,0.754,0.017,1.118-0.005c0.44-0.029,0.746,0.128,0.924,0.525c0,1.593,0,3.186,0,4.778
		c-0.178,0.398-0.491,0.56-0.924,0.525c-0.364-0.017-0.737,0-1.118,0c0,0.194,0,0.364,0,0.525s0,0.33,0,0.5
		c-0.017,0.372-0.237,0.652-0.56,0.72c-0.448,0.093-0.843-0.221-0.855-0.678c-0.013-0.355-0.004-0.703-0.004-1.051
		c-5.782,0-11.521,0-17.287,0c0,0.356,0.008,0.703-0.004,1.042c-0.013,0.44-0.356,0.737-0.779,0.695
		c-0.364-0.034-0.623-0.331-0.631-0.729c-0.008-0.339-0.004-0.678-0.004-1.025c-0.398,0-0.758-0.017-1.119,0
		c-0.436,0.034-0.745-0.127-0.928-0.525C12.894,32.955,12.894,31.362,12.894,29.77z M14.33,30.677c0,1.004,0,1.982,0,2.965
		c7.125,0,14.229,0,21.345,0c0-0.991,0-1.974,0-2.965C28.559,30.677,21.45,30.677,14.33,30.677z M16.372,26.14
		c5.756,0,11.504,0,17.252,0c0-0.69,0-1.36,0-2.029c-5.761,0-11.5,0-17.252,0C16.372,24.789,16.372,25.458,16.372,26.14z
		 M16.372,29.231c5.769,0,11.509,0,17.257,0c0-0.555,0-1.093,0-1.635c-5.761,0-11.505,0-17.257,0
		C16.372,28.151,16.372,28.686,16.372,29.231z"/>
	<path fill-rule="evenodd" clip-rule="evenodd" fill="#BF973F" d="M37.106,17.998c-0.127,0.31-0.212,0.644-0.39,0.919
		c-0.424,0.648-1.06,0.958-1.83,0.958c-2.102,0.008-4.206,0.017-6.308,0c-1.16-0.009-2.071-0.835-2.198-1.944
		c-0.127-1.081,0.572-2.126,1.647-2.351c0.395-0.085,0.56-0.258,0.733-0.593c0.656-1.241,1.715-1.88,3.122-1.817
		c1.406,0.059,2.385,0.792,2.952,2.076c0.076,0.161,0.144,0.246,0.348,0.271c0.999,0.135,1.677,0.792,1.889,1.783
		c0,0.03,0.025,0.055,0.034,0.081C37.106,17.587,37.106,17.791,37.106,17.998z M31.718,18.46c0.166,0,0.331,0,0.496,0
		c0.89,0,1.783,0.004,2.673,0c0.33-0.004,0.593-0.152,0.737-0.462c0.127-0.292,0.084-0.576-0.128-0.817
		c-0.22-0.254-0.508-0.317-0.838-0.225c-0.551,0.161-0.924-0.097-1-0.665c-0.102-0.817-0.669-1.465-1.466-1.66
		c-0.767-0.191-1.601,0.102-2.029,0.775c-0.173,0.275-0.262,0.614-0.347,0.936c-0.089,0.36-0.275,0.623-0.589,0.652
		c-0.157,0.017-0.326-0.021-0.483-0.055c-0.491-0.115-0.953,0.241-0.953,0.741c-0.004,0.458,0.339,0.775,0.852,0.779
		C29.668,18.464,30.693,18.46,31.718,18.46z"/>
</g>
</svg>
