<?xml version="1.0" encoding="utf-8"?>
<!-- Generator: Adobe Illustrator 16.0.0, SVG Export Plug-In . SVG Version: 6.00 Build 0)  -->
<!DOCTYPE svg PUBLIC "-//W3C//DTD SVG 1.1//EN" "http://www.w3.org/Graphics/SVG/1.1/DTD/svg11.dtd">
<svg version="1.1" id="Layer_1" xmlns="http://www.w3.org/2000/svg" xmlns:xlink="http://www.w3.org/1999/xlink" x="0px" y="0px"
	 width="50px" height="50px" viewBox="0 0 50 50" enable-background="new 0 0 50 50" xml:space="preserve">
<circle fill="none" stroke="#BF973F" stroke-linecap="round" stroke-linejoin="round" stroke-miterlimit="10" cx="25" cy="25" r="24.125"/>
<g>
	<path fill-rule="evenodd" clip-rule="evenodd" fill="#BF973F" d="M40.063,25.524c-0.168,0.162-0.328,0.332-0.503,0.485
		c-0.914,0.799-1.717,1.69-2.351,2.73c-0.036,0.059-0.071,0.117-0.112,0.172c-0.175,0.238-0.429,0.3-0.637,0.157
		c-0.199-0.136-0.257-0.389-0.103-0.624c0.306-0.468,0.621-0.929,0.953-1.376c0.228-0.305,0.492-0.58,0.772-0.907
		c-1.06,0.258-2.029,0.611-2.95,1.097c-0.74,0.391-1.433,0.85-2.01,1.465c-0.066,0.071-0.142,0.143-0.176,0.229
		c-0.457,1.141-0.784,2.316-0.951,3.536c-0.005,0.038,0,0.077,0,0.142c1.032,0,2.063,0,3.131,0c0.016-0.201,0.029-0.411,0.047-0.622
		c0.012-0.137,0.021-0.273,0.047-0.408c0.049-0.259,0.208-0.395,0.476-0.376c0.24,0.017,0.391,0.194,0.383,0.468
		c-0.009,0.304-0.036,0.606-0.058,0.947c0.119,0.006,0.222,0.016,0.324,0.016c0.961,0.001,1.922-0.002,2.882,0.003
		c0.127,0,0.29-0.016,0.369,0.053c0.125,0.109,0.274,0.291,0.262,0.43c-0.013,0.137-0.196,0.279-0.334,0.377
		c-0.073,0.053-0.21,0.021-0.316,0.021c-9.472,0-18.943,0-28.414,0c-0.458,0-0.669-0.133-0.678-0.424
		c-0.008-0.307,0.217-0.458,0.684-0.458c0.941,0,1.882,0,2.823,0c0.106,0,0.211,0,0.353,0c-0.018-0.313-0.035-0.593-0.05-0.873
		c-0.019-0.346,0.11-0.534,0.377-0.56c0.272-0.025,0.452,0.13,0.493,0.463c0.039,0.31,0.051,0.623,0.077,0.952
		c1.044,0,2.079,0,3.167,0c-0.085-0.457-0.137-0.903-0.255-1.331c-0.21-0.764-0.422-1.532-0.714-2.266
		c-0.121-0.303-0.421-0.557-0.686-0.777c-1.1-0.92-2.382-1.493-3.743-1.908c-0.206-0.063-0.414-0.118-0.621-0.176
		c-0.017-0.004-0.038,0.007-0.061,0.01c0.323,0.396,0.656,0.778,0.963,1.182c0.248,0.327,0.47,0.676,0.691,1.022
		c0.176,0.273,0.14,0.529-0.074,0.675c-0.223,0.152-0.489,0.081-0.666-0.208c-0.729-1.191-1.643-2.218-2.728-3.095
		c-0.081-0.066-0.14-0.16-0.208-0.241c0-0.098,0-0.196,0-0.294c0.169-0.216,0.365-0.301,0.658-0.254
		c1.836,0.293,3.58,0.841,5.188,1.789c0.067,0.04,0.135,0.077,0.261,0.148c-0.052-0.118-0.074-0.185-0.109-0.241
		c-1.176-1.975-2.653-3.687-4.464-5.106c-0.209-0.164-0.369-0.342-0.236-0.621c0.131-0.276,0.37-0.275,0.63-0.218
		c2.571,0.571,4.882,1.72,7.053,3.179c0.078,0.052,0.158,0.1,0.315,0.199c-0.113-0.893-0.179-1.713-0.326-2.517
		c-0.19-1.039-0.441-2.067-0.677-3.096c-0.056-0.245-0.048-0.454,0.18-0.594c0.219-0.134,0.41-0.045,0.588,0.105
		c1.261,1.066,2.291,2.333,3.22,3.688c0.199,0.29,0.383,0.59,0.617,0.95c0.046-0.164,0.075-0.268,0.106-0.372
		c0.53-1.792,1.061-3.583,1.592-5.375c0.06-0.203,0.144-0.39,0.386-0.432c0.251-0.044,0.438,0.079,0.534,0.389
		c0.46,1.496,0.917,2.994,1.367,4.493c0.121,0.401,0.215,0.811,0.339,1.287c0.099-0.143,0.171-0.238,0.234-0.338
		c0.921-1.456,1.978-2.801,3.247-3.973c0.129-0.12,0.267-0.231,0.4-0.346c0.174-0.147,0.365-0.201,0.565-0.065
		c0.194,0.13,0.223,0.316,0.171,0.543c-0.255,1.156-0.52,2.311-0.736,3.474c-0.129,0.69-0.175,1.396-0.268,2.182
		c0.147-0.097,0.225-0.145,0.3-0.196c2.001-1.355,4.135-2.426,6.479-3.048c0.208-0.056,0.419-0.103,0.629-0.149
		c0.239-0.052,0.459-0.026,0.58,0.219c0.128,0.26,0.005,0.446-0.201,0.606c-1.655,1.29-3.034,2.832-4.169,4.594
		c-0.106,0.164-0.205,0.333-0.306,0.502c-0.041,0.066-0.078,0.135-0.154,0.271c0.125-0.062,0.195-0.091,0.26-0.129
		c1.615-0.956,3.368-1.511,5.214-1.804c0.294-0.047,0.489,0.039,0.657,0.255C40.063,25.328,40.063,25.426,40.063,25.524z
		 M18.927,32.635c0.971,0,1.897,0,2.833,0c-0.009-0.069-0.012-0.118-0.021-0.165c-0.358-1.702-1.161-3.171-2.343-4.437
		c-0.171-0.184-0.32-0.362-0.206-0.619c0.125-0.281,0.382-0.275,0.632-0.237c0.365,0.057,0.727,0.127,1.135,0.199
		c-0.628-0.93-1.273-1.789-2.146-2.444c-1.401-1.054-2.939-1.867-4.558-2.53c-0.233-0.096-0.47-0.179-0.706-0.268
		C16.432,25.091,18.362,28.51,18.927,32.635z M31.073,32.64c0.567-4.144,2.507-7.56,5.396-10.488
		c-1.341,0.447-2.583,1.063-3.781,1.773c-0.827,0.491-1.642,1.007-2.293,1.726c-0.479,0.53-0.907,1.107-1.359,1.664
		c0.445-0.018,0.829-0.084,1.215-0.143c0.225-0.034,0.44-0.008,0.552,0.229c0.113,0.241,0.003,0.425-0.168,0.601
		c-0.719,0.748-1.29,1.6-1.729,2.538c-0.311,0.665-0.549,1.354-0.667,2.101C29.187,32.64,30.113,32.64,31.073,32.64z M25.02,18.345
		c-0.044,0.063-0.067,0.083-0.073,0.106c-0.473,1.715-0.947,3.43-1.408,5.149c-0.031,0.115,0.011,0.267,0.061,0.384
		c0.187,0.441,0.416,0.865,0.583,1.312c0.495,1.316,0.682,2.689,0.722,4.086c0.004,0.125,0.034,0.251,0.045,0.33
		c0.685-0.494,1.352-0.971,2.008-1.46c0.066-0.049,0.106-0.182,0.1-0.271c-0.058-0.781-0.091-1.565-0.207-2.339
		c-0.3-2.016-0.832-3.981-1.401-5.936C25.32,19.262,25.171,18.823,25.02,18.345z M19.505,19.667
		c-0.021,0.084-0.032,0.103-0.028,0.119c0.351,1.64,0.57,3.296,0.657,4.972c0.005,0.104,0.069,0.225,0.143,0.304
		c0.736,0.782,1.341,1.657,1.884,2.58c0.083,0.141,0.225,0.262,0.367,0.352c0.429,0.271,0.871,0.521,1.31,0.778
		c0.044,0.025,0.093,0.04,0.148,0.064c-0.004-1.245-0.396-3.005-1.021-4.12c-0.637-1.132-1.331-2.235-2.053-3.316
		C20.508,20.795,19.995,20.263,19.505,19.667z M27.97,27.403c0.062-0.093,0.109-0.172,0.165-0.247
		c0.506-0.673,1.002-1.353,1.525-2.01c0.138-0.173,0.204-0.333,0.225-0.547c0.104-1.062,0.213-2.123,0.345-3.182
		c0.07-0.564,0.192-1.122,0.291-1.683c-0.022-0.016-0.044-0.032-0.066-0.049c-0.021,0.045-0.038,0.094-0.067,0.133
		c-0.722,0.939-1.455,1.869-2.162,2.818c-0.54,0.726-0.916,1.466-0.601,2.455C27.854,25.814,27.859,26.61,27.97,27.403z
		 M20.766,28.272c0.999,1.361,1.639,2.788,1.905,4.361c1.063,0,2.093,0,3.157,0C24.832,30.389,23.142,29.006,20.766,28.272z
		 M25.625,30.411c0.347,0.642,0.69,1.243,1.002,1.86c0.216,0.428,0.219,0.449,0.712,0.34c0.256-1.573,0.909-2.986,1.885-4.332
		C27.776,28.707,26.579,29.401,25.625,30.411z"/>
</g>
</svg>
